<svg xmlns="http://www.w3.org/2000/svg" xmlns:xlink="http://www.w3.org/1999/xlink" contentStyleType="text/css" data-diagram-type="SEQUENCE" height="872px" preserveAspectRatio="none" style="width:895px;height:872px;background:#FFFFFF;" version="1.1" viewBox="0 0 895 872" width="895px" zoomAndPan="magnify"><defs/><g><g><title>FdV</title><rect fill="#FFFFFF" height="234.7949" style="stroke:#181818;stroke-width:1;" width="10" x="50.7354" y="340.9727"/></g><g><title>FdV</title><rect fill="#FFFFFF" height="122.2422" style="stroke:#181818;stroke-width:1;" width="10" x="50.7354" y="629.3887"/></g><g><title>Fachdienst</title><rect fill="#FFFFFF" height="63.6211" style="stroke:#181818;stroke-width:1;" width="10" x="316.0459" y="160.1094"/></g><g><title>Fachdienst</title><rect fill="#FFFFFF" height="29.3105" style="stroke:#181818;stroke-width:1;" width="10" x="316.0459" y="722.3203"/></g><g><title>Push Gateway</title><rect fill="#FFFFFF" height="281.7266" style="stroke:#181818;stroke-width:1;" width="10" x="584.124" y="194.4199"/></g><g><title>Notification Provider</title><rect fill="#FFFFFF" height="29.3105" style="stroke:#181818;stroke-width:1;" width="10" x="716.335" y="311.6621"/></g><g><title>Internal</title><rect fill="#FFFFFF" height="29.3105" style="stroke:#181818;stroke-width:1;" width="10" x="829.0806" y="253.041"/></g><g><title>Internal</title><rect fill="#FFFFFF" height="14" style="stroke:#181818;stroke-width:1;" width="10" x="829.0806" y="462.1465"/></g><g><title>Internal</title><rect fill="#FFFFFF" height="29.3105" style="stroke:#181818;stroke-width:1;" width="10" x="829.0806" y="663.6992"/></g><rect fill="none" height="455.2793" style="stroke:#000000;stroke-width:1.5;" width="844.3149" x="30" y="113.4883"/><rect fill="none" height="176.8633" style="stroke:#000000;stroke-width:1.5;" width="844.3149" x="30" y="582.7676"/><g><title>FdV</title><rect fill="#000000" fill-opacity="0.00000" height="680.1426" width="8" x="51.7354" y="96.4883"/><line style="stroke:#181818;stroke-width:0.5;stroke-dasharray:5,5;" x1="55" x2="55" y1="96.4883" y2="776.6309"/></g><g><title>Fachdienst</title><rect fill="#000000" fill-opacity="0.00000" height="680.1426" width="8" x="317.0459" y="96.4883"/><line style="stroke:#181818;stroke-width:0.5;stroke-dasharray:5,5;" x1="320.6377" x2="320.6377" y1="96.4883" y2="776.6309"/></g><g><title>Push Gateway</title><rect fill="#000000" fill-opacity="0.00000" height="680.1426" width="8" x="585.124" y="96.4883"/><line style="stroke:#181818;stroke-width:0.5;stroke-dasharray:5,5;" x1="588.4243" x2="588.4243" y1="96.4883" y2="776.6309"/></g><g><title>Notification Provider</title><rect fill="#000000" fill-opacity="0.00000" height="680.1426" width="8" x="717.335" y="96.4883"/><line style="stroke:#181818;stroke-width:0.5;stroke-dasharray:5,5;" x1="720.8237" x2="720.8237" y1="96.4883" y2="776.6309"/></g><g><title>Internal</title><rect fill="#000000" fill-opacity="0.00000" height="680.1426" width="8" x="830.0806" y="96.4883"/><line style="stroke:#181818;stroke-width:0.5;stroke-dasharray:5,5;" x1="833.8462" x2="833.8462" y1="96.4883" y2="776.6309"/></g><g class="participant participant-head" data-participant="App"><text fill="#000000" font-family="sans-serif" font-size="14" lengthAdjust="spacing" textLength="25.4707" x="40" y="93.5352">FdV</text><ellipse cx="55.7354" cy="28.5" fill="#E2E2F0" rx="8" ry="8" style="stroke:#181818;stroke-width:0.5;"/><path d="M55.7354,36.5 L55.7354,63.5 M42.7354,44.5 L68.7354,44.5 M55.7354,63.5 L42.7354,78.5 M55.7354,63.5 L68.7354,78.5" fill="none" style="stroke:#181818;stroke-width:0.5;"/></g><g class="participant participant-tail" data-participant="App"><text fill="#000000" font-family="sans-serif" font-size="14" lengthAdjust="spacing" textLength="25.4707" x="40" y="789.166">FdV</text><ellipse cx="55.7354" cy="800.6191" fill="#E2E2F0" rx="8" ry="8" style="stroke:#181818;stroke-width:0.5;"/><path d="M55.7354,808.6191 L55.7354,835.6191 M42.7354,816.6191 L68.7354,816.6191 M55.7354,835.6191 L42.7354,850.6191 M55.7354,835.6191 L68.7354,850.6191" fill="none" style="stroke:#181818;stroke-width:0.5;"/></g><g class="participant participant-head" data-participant="Fachdienst"><text fill="#000000" font-family="sans-serif" font-size="14" lengthAdjust="spacing" textLength="72.8164" x="281.6377" y="77.0469">Fachdienst</text><text fill="#000000" font-family="sans-serif" font-size="14" lengthAdjust="spacing" textLength="4.4297" x="315.8311" y="93.5352">&#160;</text><ellipse cx="321.0459" cy="47.5117" fill="#E2E2F0" rx="12" ry="12" style="stroke:#181818;stroke-width:0.5;"/><line style="stroke:#181818;stroke-width:0.5;" x1="309.0459" x2="333.0459" y1="61.5117" y2="61.5117"/></g><g class="participant participant-tail" data-participant="Fachdienst"><text fill="#000000" font-family="sans-serif" font-size="14" lengthAdjust="spacing" textLength="72.8164" x="281.6377" y="789.166">Fachdienst</text><text fill="#000000" font-family="sans-serif" font-size="14" lengthAdjust="spacing" textLength="4.4297" x="315.8311" y="805.6543">&#160;</text><ellipse cx="321.0459" cy="824.6074" fill="#E2E2F0" rx="12" ry="12" style="stroke:#181818;stroke-width:0.5;"/><line style="stroke:#181818;stroke-width:0.5;" x1="309.0459" x2="333.0459" y1="838.6074" y2="838.6074"/></g><g class="participant participant-head" data-participant="NotificationService"><text fill="#000000" font-family="sans-serif" font-size="14" lengthAdjust="spacing" textLength="93.3994" x="539.4243" y="77.0469">Push Gateway</text><text fill="#000000" font-family="sans-serif" font-size="14" lengthAdjust="spacing" textLength="4.4297" x="583.9092" y="93.5352">&#160;</text><ellipse cx="589.124" cy="47.5117" fill="#E2E2F0" rx="12" ry="12" style="stroke:#181818;stroke-width:0.5;"/><line style="stroke:#181818;stroke-width:0.5;" x1="577.124" x2="601.124" y1="61.5117" y2="61.5117"/></g><g class="participant participant-tail" data-participant="NotificationService"><text fill="#000000" font-family="sans-serif" font-size="14" lengthAdjust="spacing" textLength="93.3994" x="539.4243" y="789.166">Push Gateway</text><text fill="#000000" font-family="sans-serif" font-size="14" lengthAdjust="spacing" textLength="4.4297" x="583.9092" y="805.6543">&#160;</text><ellipse cx="589.124" cy="824.6074" fill="#E2E2F0" rx="12" ry="12" style="stroke:#181818;stroke-width:0.5;"/><line style="stroke:#181818;stroke-width:0.5;" x1="577.124" x2="601.124" y1="838.6074" y2="838.6074"/></g><g class="participant participant-head" data-participant="NotificationProvider"><text fill="#000000" font-family="sans-serif" font-size="14" lengthAdjust="spacing" textLength="139.0225" x="648.8237" y="77.0469">Notification Provider</text><text fill="#000000" font-family="sans-serif" font-size="14" lengthAdjust="spacing" textLength="133.2871" x="651.6914" y="93.5352">(e.g. Apple/Google)</text><ellipse cx="721.335" cy="47.5117" fill="#E2E2F0" rx="12" ry="12" style="stroke:#181818;stroke-width:0.5;"/><line style="stroke:#181818;stroke-width:0.5;" x1="709.335" x2="733.335" y1="61.5117" y2="61.5117"/></g><g class="participant participant-tail" data-participant="NotificationProvider"><text fill="#000000" font-family="sans-serif" font-size="14" lengthAdjust="spacing" textLength="139.0225" x="648.8237" y="789.166">Notification Provider</text><text fill="#000000" font-family="sans-serif" font-size="14" lengthAdjust="spacing" textLength="133.2871" x="651.6914" y="805.6543">(e.g. Apple/Google)</text><ellipse cx="721.335" cy="824.6074" fill="#E2E2F0" rx="12" ry="12" style="stroke:#181818;stroke-width:0.5;"/><line style="stroke:#181818;stroke-width:0.5;" x1="709.335" x2="733.335" y1="838.6074" y2="838.6074"/></g><g class="participant participant-head" data-participant="PrivateNotificationService"><text fill="#000000" font-family="sans-serif" font-size="14" lengthAdjust="spacing" textLength="51.9531" x="805.104" y="77.0469">Internal</text><text fill="#000000" font-family="sans-serif" font-size="14" lengthAdjust="spacing" textLength="54.4688" x="803.8462" y="93.5352">Services</text><ellipse cx="834.0806" cy="47.5117" fill="#E2E2F0" rx="12" ry="12" style="stroke:#181818;stroke-width:0.5;"/><line style="stroke:#181818;stroke-width:0.5;" x1="822.0806" x2="846.0806" y1="61.5117" y2="61.5117"/></g><g class="participant participant-tail" data-participant="PrivateNotificationService"><text fill="#000000" font-family="sans-serif" font-size="14" lengthAdjust="spacing" textLength="51.9531" x="805.104" y="789.166">Internal</text><text fill="#000000" font-family="sans-serif" font-size="14" lengthAdjust="spacing" textLength="54.4688" x="803.8462" y="805.6543">Services</text><ellipse cx="834.0806" cy="824.6074" fill="#E2E2F0" rx="12" ry="12" style="stroke:#181818;stroke-width:0.5;"/><line style="stroke:#181818;stroke-width:0.5;" x1="822.0806" x2="846.0806" y1="838.6074" y2="838.6074"/></g><g><title>FdV</title><rect fill="#FFFFFF" height="234.7949" style="stroke:#181818;stroke-width:1;" width="10" x="50.7354" y="340.9727"/></g><g><title>FdV</title><rect fill="#FFFFFF" height="122.2422" style="stroke:#181818;stroke-width:1;" width="10" x="50.7354" y="629.3887"/></g><g><title>Fachdienst</title><rect fill="#FFFFFF" height="63.6211" style="stroke:#181818;stroke-width:1;" width="10" x="316.0459" y="160.1094"/></g><g><title>Fachdienst</title><rect fill="#FFFFFF" height="29.3105" style="stroke:#181818;stroke-width:1;" width="10" x="316.0459" y="722.3203"/></g><g><title>Push Gateway</title><rect fill="#FFFFFF" height="281.7266" style="stroke:#181818;stroke-width:1;" width="10" x="584.124" y="194.4199"/></g><g><title>Notification Provider</title><rect fill="#FFFFFF" height="29.3105" style="stroke:#181818;stroke-width:1;" width="10" x="716.335" y="311.6621"/></g><g><title>Internal</title><rect fill="#FFFFFF" height="29.3105" style="stroke:#181818;stroke-width:1;" width="10" x="829.0806" y="253.041"/></g><g><title>Internal</title><rect fill="#FFFFFF" height="14" style="stroke:#181818;stroke-width:1;" width="10" x="829.0806" y="462.1465"/></g><g><title>Internal</title><rect fill="#FFFFFF" height="29.3105" style="stroke:#181818;stroke-width:1;" width="10" x="829.0806" y="663.6992"/></g><path d="M30,113.4883 L139.5938,113.4883 L139.5938,120.7988 L129.5938,130.7988 L30,130.7988 L30,113.4883" fill="#EEEEEE" style="stroke:#000000;stroke-width:1.5;"/><rect fill="none" height="455.2793" style="stroke:#000000;stroke-width:1.5;" width="844.3149" x="30" y="113.4883"/><text fill="#000000" font-family="sans-serif" font-size="13" font-weight="bold" lengthAdjust="spacing" textLength="64.5938" x="45" y="127.0566">SendPush</text><g class="message" data-participant-1="Fachdienst" data-participant-2="Fachdienst"><line style="stroke:#181818;stroke-width:1;" x1="321.0459" x2="368.0459" y1="147.1094" y2="147.1094"/><line style="stroke:#181818;stroke-width:1;" x1="368.0459" x2="368.0459" y1="147.1094" y2="160.1094"/><line style="stroke:#181818;stroke-width:1;" x1="327.0459" x2="368.0459" y1="160.1094" y2="160.1094"/><polygon fill="#181818" points="337.0459,156.1094,327.0459,160.1094,337.0459,164.1094,333.0459,160.1094" style="stroke:#181818;stroke-width:1;"/><text fill="#000000" font-family="sans-serif" font-size="13" lengthAdjust="spacing" textLength="83.3574" x="333.0459" y="142.3672">event_trigger</text></g><g class="message" data-participant-1="Fachdienst" data-participant-2="NotificationService"><polygon fill="#181818" points="572.124,190.4199,582.124,194.4199,572.124,198.4199,576.124,194.4199" style="stroke:#181818;stroke-width:1;"/><line style="stroke:#181818;stroke-width:1;" x1="326.0459" x2="578.124" y1="194.4199" y2="194.4199"/><text fill="#000000" font-family="sans-serif" font-size="13" font-weight="bold" lengthAdjust="spacing" textLength="35.0708" x="333.0459" y="189.6777">POST</text><text fill="#000000" font-family="sans-serif" font-size="13" lengthAdjust="spacing" textLength="4.1133" x="368.1167" y="189.6777">&#160;</text><text fill="#000000" font-family="sans-serif" font-size="13" font-style="italic" lengthAdjust="spacing" textLength="199.894" x="372.23" y="189.6777">push/v1/notifyEncrypted/batch</text></g><g class="message" data-participant-1="NotificationService" data-participant-2="Fachdienst"><line style="stroke:#181818;stroke-width:1;" x1="322.0459" x2="332.0459" y1="223.7305" y2="219.7305"/><line style="stroke:#181818;stroke-width:1;" x1="322.0459" x2="332.0459" y1="223.7305" y2="227.7305"/><line style="stroke:#181818;stroke-width:1;stroke-dasharray:2,2;" x1="321.0459" x2="583.124" y1="223.7305" y2="223.7305"/><text fill="#000000" font-family="sans-serif" font-size="13" lengthAdjust="spacing" textLength="38.2256" x="338.0459" y="218.9883">status</text></g><g class="message" data-participant-1="NotificationService" data-participant-2="PrivateNotificationService"><polygon fill="#181818" points="817.0806,249.041,827.0806,253.041,817.0806,257.041,821.0806,253.041" style="stroke:#181818;stroke-width:1;"/><line style="stroke:#181818;stroke-width:1;" x1="594.124" x2="823.0806" y1="253.041" y2="253.041"/><text fill="#000000" font-family="sans-serif" font-size="13" lengthAdjust="spacing" textLength="187.2559" x="601.124" y="248.2988">get_push_token(for: pushkey)</text></g><g class="message" data-participant-1="PrivateNotificationService" data-participant-2="NotificationService"><polygon fill="#181818" points="605.124,278.3516,595.124,282.3516,605.124,286.3516,601.124,282.3516" style="stroke:#181818;stroke-width:1;"/><line style="stroke:#181818;stroke-width:1;" x1="599.124" x2="833.0806" y1="282.3516" y2="282.3516"/><text fill="#000000" font-family="sans-serif" font-size="13" lengthAdjust="spacing" textLength="73.2012" x="611.124" y="277.6094">push_token</text></g><g class="message" data-participant-1="NotificationService" data-participant-2="NotificationProvider"><polygon fill="#181818" points="704.335,307.6621,714.335,311.6621,704.335,315.6621,708.335,311.6621" style="stroke:#181818;stroke-width:1;"/><line style="stroke:#181818;stroke-width:1;" x1="594.124" x2="710.335" y1="311.6621" y2="311.6621"/><text fill="#000000" font-family="sans-serif" font-size="13" lengthAdjust="spacing" textLength="67.5645" x="601.124" y="306.9199">send_push</text></g><g class="message" data-participant-1="NotificationProvider" data-participant-2="App"><polygon fill="#181818" points="71.7354,336.9727,61.7354,340.9727,71.7354,344.9727,67.7354,340.9727" style="stroke:#181818;stroke-width:1;"/><line style="stroke:#181818;stroke-width:1;" x1="65.7354" x2="720.335" y1="340.9727" y2="340.9727"/><text fill="#000000" font-family="sans-serif" font-size="13" lengthAdjust="spacing" textLength="30.9448" x="77.7354" y="336.2305">push</text></g><g class="message" data-participant-1="NotificationService" data-participant-2="PrivateNotificationService"><polygon fill="#181818" points="817.0806,458.1465,827.0806,462.1465,817.0806,466.1465,821.0806,462.1465" style="stroke:#181818;stroke-width:1;"/><line style="stroke:#181818;stroke-width:1;" x1="594.124" x2="823.0806" y1="462.1465" y2="462.1465"/><text fill="#000000" font-family="sans-serif" font-size="13" lengthAdjust="spacing" textLength="52.7046" x="601.124" y="365.541">register(</text><text fill="#000000" font-family="sans-serif" font-size="13" lengthAdjust="spacing" textLength="43.3989" x="634.0303" y="380.8516">push: {</text><text fill="#000000" font-family="sans-serif" font-size="13" lengthAdjust="spacing" textLength="97.9443" x="666.9365" y="396.1621">"service": "epa",</text><text fill="#000000" font-family="sans-serif" font-size="13" lengthAdjust="spacing" textLength="120.6626" x="666.9365" y="411.4727">"reference":"&lt;ref&gt;"</text><text fill="#000000" font-family="sans-serif" font-size="13" lengthAdjust="spacing" textLength="8.3408" x="634.0303" y="426.7832">},</text><text fill="#000000" font-family="sans-serif" font-size="13" lengthAdjust="spacing" textLength="78.8887" x="634.0303" y="442.0938">for: pushkey</text><text fill="#000000" font-family="sans-serif" font-size="13" lengthAdjust="spacing" textLength="4.2275" x="601.124" y="457.4043">)</text></g><g class="message" data-participant-1="PrivateNotificationService" data-participant-2="NotificationService"><polygon fill="#181818" points="600.124,472.1465,590.124,476.1465,600.124,480.1465,596.124,476.1465" style="stroke:#181818;stroke-width:1;"/><line style="stroke:#181818;stroke-width:1;" x1="594.124" x2="833.0806" y1="476.1465" y2="476.1465"/></g><g class="message" data-participant-1="App" data-participant-2="App"><line style="stroke:#181818;stroke-width:1;" x1="60.7354" x2="102.7354" y1="505.457" y2="505.457"/><line style="stroke:#181818;stroke-width:1;" x1="102.7354" x2="102.7354" y1="505.457" y2="518.457"/><line style="stroke:#181818;stroke-width:1;" x1="61.7354" x2="102.7354" y1="518.457" y2="518.457"/><polygon fill="#181818" points="71.7354,514.457,61.7354,518.457,71.7354,522.457,67.7354,518.457" style="stroke:#181818;stroke-width:1;"/><text fill="#000000" font-family="sans-serif" font-size="13" lengthAdjust="spacing" textLength="125.4614" x="67.7354" y="500.7148">decrypt_notification</text></g><g class="message" data-participant-1="App" data-participant-2="App"><line style="stroke:#181818;stroke-width:1;" x1="60.7354" x2="102.7354" y1="547.7676" y2="547.7676"/><line style="stroke:#181818;stroke-width:1;" x1="102.7354" x2="102.7354" y1="547.7676" y2="560.7676"/><line style="stroke:#181818;stroke-width:1;" x1="61.7354" x2="102.7354" y1="560.7676" y2="560.7676"/><polygon fill="#181818" points="71.7354,556.7676,61.7354,560.7676,71.7354,564.7676,67.7354,560.7676" style="stroke:#181818;stroke-width:1;"/><text fill="#000000" font-family="sans-serif" font-size="13" lengthAdjust="spacing" textLength="110.9189" x="67.7354" y="543.0254">show_notification</text></g><path d="M30,582.7676 L185.062,582.7676 L185.062,590.0781 L175.062,600.0781 L30,600.0781 L30,582.7676" fill="#EEEEEE" style="stroke:#000000;stroke-width:1.5;"/><rect fill="none" height="176.8633" style="stroke:#000000;stroke-width:1.5;" width="844.3149" x="30" y="582.7676"/><text fill="#000000" font-family="sans-serif" font-size="13" font-weight="bold" lengthAdjust="spacing" textLength="110.062" x="45" y="596.3359">ListNotifications</text><g class="message" data-participant-1="App" data-participant-2="App"><line style="stroke:#181818;stroke-width:1;" x1="55.7354" x2="102.7354" y1="616.3887" y2="616.3887"/><line style="stroke:#181818;stroke-width:1;" x1="102.7354" x2="102.7354" y1="616.3887" y2="629.3887"/><line style="stroke:#181818;stroke-width:1;" x1="61.7354" x2="102.7354" y1="629.3887" y2="629.3887"/><polygon fill="#181818" points="71.7354,625.3887,61.7354,629.3887,71.7354,633.3887,67.7354,629.3887" style="stroke:#181818;stroke-width:1;"/><text fill="#000000" font-family="sans-serif" font-size="13" lengthAdjust="spacing" textLength="72.2681" x="67.7354" y="611.6465">user_action</text></g><g class="message" data-participant-1="App" data-participant-2="PrivateNotificationService"><polygon fill="#181818" points="817.0806,659.6992,827.0806,663.6992,817.0806,667.6992,821.0806,663.6992" style="stroke:#181818;stroke-width:1;"/><line style="stroke:#181818;stroke-width:1;" x1="60.7354" x2="823.0806" y1="663.6992" y2="663.6992"/><text fill="#000000" font-family="sans-serif" font-size="13" lengthAdjust="spacing" textLength="105.0601" x="67.7354" y="658.957">get_notifications</text></g><g class="message" data-participant-1="PrivateNotificationService" data-participant-2="App"><polygon fill="#181818" points="71.7354,689.0098,61.7354,693.0098,71.7354,697.0098,67.7354,693.0098" style="stroke:#181818;stroke-width:1;"/><line style="stroke:#181818;stroke-width:1;" x1="65.7354" x2="833.0806" y1="693.0098" y2="693.0098"/><text fill="#000000" font-family="sans-serif" font-size="13" lengthAdjust="spacing" textLength="78.3491" x="77.7354" y="688.2676">notifications</text></g><g class="message" data-participant-1="App" data-participant-2="Fachdienst"><polygon fill="#181818" points="304.0459,718.3203,314.0459,722.3203,304.0459,726.3203,308.0459,722.3203" style="stroke:#181818;stroke-width:1;"/><line style="stroke:#181818;stroke-width:1;" x1="60.7354" x2="310.0459" y1="722.3203" y2="722.3203"/><text fill="#000000" font-family="sans-serif" font-size="13" font-weight="bold" lengthAdjust="spacing" textLength="26.4697" x="67.7354" y="717.5781">GET</text><text fill="#000000" font-family="sans-serif" font-size="13" lengthAdjust="spacing" textLength="4.1133" x="94.2051" y="717.5781">&#160;</text><text fill="#000000" font-family="sans-serif" font-size="13" font-style="italic" lengthAdjust="spacing" textLength="205.7275" x="98.3184" y="717.5781">push/v1/notifications/{pushkey}</text></g><g class="message" data-participant-1="Fachdienst" data-participant-2="App"><polygon fill="#181818" points="66.7354,747.6309,56.7354,751.6309,66.7354,755.6309,62.7354,751.6309" style="stroke:#181818;stroke-width:1;"/><line style="stroke:#181818;stroke-width:1;" x1="60.7354" x2="320.0459" y1="751.6309" y2="751.6309"/><text fill="#000000" font-family="sans-serif" font-size="13" lengthAdjust="spacing" textLength="78.3491" x="72.7354" y="746.8887">notifications</text></g><!--SRC=[jLJ1Yjim4BtxArIVigQ9wDMKG0_RK2Xj8AKdWr7jYIsII4QIlPXb_xqZnN5iHt7PikkJ9JszDpDlD1zC2ISW1PoOuGUoL_94LYjQrQTZ4B3CI4N2h_dla31DlbHL0C9mq-8UoygSWz0c4Uxmkj5ZjhKkoOOPU69jX_eX3T_p3BMas85gU0OzV7X6jaesF0ULY0MiYfNLFWBTI5aSuU66we8EUh9lme0Ix9XSPBIxj5MymO1yOGI5adL5TY1o6tX0yBicHPRhuIecqA1KQXGl2jIrOAoM8n-MufR48uriKRJzkViLHOHYwNL9cqzKM63xA3BLLWPo-eUPhAHqBELBn09yAilbUfA3DipKsbt8mHV-VQxrJ2cHkG2JsaHI8myW5dkfOcBN1sWVnXdCE69nCoftYtaLdgOsP_zCghvMi-N3Ld5PtlVasfXJ-fu7-R6vkx2d0NkvHchsKVwtJGeAhl6XB1AH6AiVasVxcvXGdq5XJ4AeMFYnsrQm1mN27eIVSR4ExS6BEnwwd8XtzlcrrjufwWXZVUZjoC6zl5GCqBSeNSgdCGIR8WW6QiwWyspvZiKUYckFR8s5J-tbJct4Cq3_y_c9aT3RUO7wCRabVuKLNGQZKHH5cqVF_Bj8qEUkhrwc4t1ss9vBEXlivFx4E6VcNm00]--></g></svg>