<svg xmlns="http://www.w3.org/2000/svg" xmlns:xlink="http://www.w3.org/1999/xlink" contentStyleType="text/css" data-diagram-type="SEQUENCE" height="872px" preserveAspectRatio="none" style="width:791px;height:872px;background:#FFFFFF;" version="1.1" viewBox="0 0 791 872" width="791px" zoomAndPan="magnify"><defs/><g><g><title>FdV</title><rect fill="#FFFFFF" height="234.7949" style="stroke:#181818;stroke-width:1;" width="10" x="50.7354" y="340.9727"/></g><g><title>FdV</title><rect fill="#FFFFFF" height="122.2422" style="stroke:#181818;stroke-width:1;" width="10" x="50.7354" y="629.3887"/></g><g><title>Fachdienst</title><rect fill="#FFFFFF" height="63.6211" style="stroke:#181818;stroke-width:1;" width="10" x="316.0459" y="160.1094"/></g><g><title>Fachdienst</title><rect fill="#FFFFFF" height="29.3105" style="stroke:#181818;stroke-width:1;" width="10" x="316.0459" y="722.3203"/></g><g><title>Push Gateway</title><rect fill="#FFFFFF" height="281.7266" style="stroke:#181818;stroke-width:1;" width="10" x="480.0034" y="194.4199"/></g><g><title>Notification Provider</title><rect fill="#FFFFFF" height="29.3105" style="stroke:#181818;stroke-width:1;" width="10" x="612.2144" y="311.6621"/></g><g><title>Internal</title><rect fill="#FFFFFF" height="29.3105" style="stroke:#181818;stroke-width:1;" width="10" x="724.96" y="253.041"/></g><g><title>Internal</title><rect fill="#FFFFFF" height="14" style="stroke:#181818;stroke-width:1;" width="10" x="724.96" y="462.1465"/></g><g><title>Internal</title><rect fill="#FFFFFF" height="29.3105" style="stroke:#181818;stroke-width:1;" width="10" x="724.96" y="663.6992"/></g><rect fill="none" height="455.2793" style="stroke:#000000;stroke-width:1.5;" width="740.1943" x="30" y="113.4883"/><rect fill="none" height="176.8633" style="stroke:#000000;stroke-width:1.5;" width="740.1943" x="30" y="582.7676"/><g><title>FdV</title><rect fill="#000000" fill-opacity="0.00000" height="680.1426" width="8" x="51.7354" y="96.4883"/><line style="stroke:#181818;stroke-width:0.5;stroke-dasharray:5.0,5.0;" x1="55" x2="55" y1="96.4883" y2="776.6309"/></g><g><title>Fachdienst</title><rect fill="#000000" fill-opacity="0.00000" height="680.1426" width="8" x="317.0459" y="96.4883"/><line style="stroke:#181818;stroke-width:0.5;stroke-dasharray:5.0,5.0;" x1="320.6377" x2="320.6377" y1="96.4883" y2="776.6309"/></g><g><title>Push Gateway</title><rect fill="#000000" fill-opacity="0.00000" height="680.1426" width="8" x="481.0034" y="96.4883"/><line style="stroke:#181818;stroke-width:0.5;stroke-dasharray:5.0,5.0;" x1="484.3037" x2="484.3037" y1="96.4883" y2="776.6309"/></g><g><title>Notification Provider</title><rect fill="#000000" fill-opacity="0.00000" height="680.1426" width="8" x="613.2144" y="96.4883"/><line style="stroke:#181818;stroke-width:0.5;stroke-dasharray:5.0,5.0;" x1="616.7031" x2="616.7031" y1="96.4883" y2="776.6309"/></g><g><title>Internal</title><rect fill="#000000" fill-opacity="0.00000" height="680.1426" width="8" x="725.96" y="96.4883"/><line style="stroke:#181818;stroke-width:0.5;stroke-dasharray:5.0,5.0;" x1="729.7256" x2="729.7256" y1="96.4883" y2="776.6309"/></g><g class="participant participant-head" data-participant="App"><text fill="#000000" font-family="sans-serif" font-size="14" lengthAdjust="spacing" textLength="25.4707" x="40" y="93.5352">FdV</text><ellipse cx="55.7354" cy="28.5" fill="#E2E2F0" rx="8" ry="8" style="stroke:#181818;stroke-width:0.5;"/><path d="M55.7354,36.5 L55.7354,63.5 M42.7354,44.5 L68.7354,44.5 M55.7354,63.5 L42.7354,78.5 M55.7354,63.5 L68.7354,78.5" fill="none" style="stroke:#181818;stroke-width:0.5;"/></g><g class="participant participant-tail" data-participant="App"><text fill="#000000" font-family="sans-serif" font-size="14" lengthAdjust="spacing" textLength="25.4707" x="40" y="789.166">FdV</text><ellipse cx="55.7354" cy="800.6191" fill="#E2E2F0" rx="8" ry="8" style="stroke:#181818;stroke-width:0.5;"/><path d="M55.7354,808.6191 L55.7354,835.6191 M42.7354,816.6191 L68.7354,816.6191 M55.7354,835.6191 L42.7354,850.6191 M55.7354,835.6191 L68.7354,850.6191" fill="none" style="stroke:#181818;stroke-width:0.5;"/></g><g class="participant participant-head" data-participant="Fachdienst"><text fill="#000000" font-family="sans-serif" font-size="14" lengthAdjust="spacing" textLength="72.8164" x="281.6377" y="77.0469">Fachdienst</text><text fill="#000000" font-family="sans-serif" font-size="14" lengthAdjust="spacing" textLength="4.4297" x="315.8311" y="93.5352">&#160;</text><ellipse cx="321.0459" cy="47.5117" fill="#E2E2F0" rx="12" ry="12" style="stroke:#181818;stroke-width:0.5;"/><line style="stroke:#181818;stroke-width:0.5;" x1="309.0459" x2="333.0459" y1="61.5117" y2="61.5117"/></g><g class="participant participant-tail" data-participant="Fachdienst"><text fill="#000000" font-family="sans-serif" font-size="14" lengthAdjust="spacing" textLength="72.8164" x="281.6377" y="789.166">Fachdienst</text><text fill="#000000" font-family="sans-serif" font-size="14" lengthAdjust="spacing" textLength="4.4297" x="315.8311" y="805.6543">&#160;</text><ellipse cx="321.0459" cy="824.6074" fill="#E2E2F0" rx="12" ry="12" style="stroke:#181818;stroke-width:0.5;"/><line style="stroke:#181818;stroke-width:0.5;" x1="309.0459" x2="333.0459" y1="838.6074" y2="838.6074"/></g><g class="participant participant-head" data-participant="NotificationService"><text fill="#000000" font-family="sans-serif" font-size="14" lengthAdjust="spacing" textLength="93.3994" x="435.3037" y="77.0469">Push Gateway</text><text fill="#000000" font-family="sans-serif" font-size="14" lengthAdjust="spacing" textLength="4.4297" x="479.7886" y="93.5352">&#160;</text><ellipse cx="485.0034" cy="47.5117" fill="#E2E2F0" rx="12" ry="12" style="stroke:#181818;stroke-width:0.5;"/><line style="stroke:#181818;stroke-width:0.5;" x1="473.0034" x2="497.0034" y1="61.5117" y2="61.5117"/></g><g class="participant participant-tail" data-participant="NotificationService"><text fill="#000000" font-family="sans-serif" font-size="14" lengthAdjust="spacing" textLength="93.3994" x="435.3037" y="789.166">Push Gateway</text><text fill="#000000" font-family="sans-serif" font-size="14" lengthAdjust="spacing" textLength="4.4297" x="479.7886" y="805.6543">&#160;</text><ellipse cx="485.0034" cy="824.6074" fill="#E2E2F0" rx="12" ry="12" style="stroke:#181818;stroke-width:0.5;"/><line style="stroke:#181818;stroke-width:0.5;" x1="473.0034" x2="497.0034" y1="838.6074" y2="838.6074"/></g><g class="participant participant-head" data-participant="NotificationProvider"><text fill="#000000" font-family="sans-serif" font-size="14" lengthAdjust="spacing" textLength="139.0225" x="544.7031" y="77.0469">Notification Provider</text><text fill="#000000" font-family="sans-serif" font-size="14" lengthAdjust="spacing" textLength="133.2871" x="547.5708" y="93.5352">(e.g. Apple/Google)</text><ellipse cx="617.2144" cy="47.5117" fill="#E2E2F0" rx="12" ry="12" style="stroke:#181818;stroke-width:0.5;"/><line style="stroke:#181818;stroke-width:0.5;" x1="605.2144" x2="629.2144" y1="61.5117" y2="61.5117"/></g><g class="participant participant-tail" data-participant="NotificationProvider"><text fill="#000000" font-family="sans-serif" font-size="14" lengthAdjust="spacing" textLength="139.0225" x="544.7031" y="789.166">Notification Provider</text><text fill="#000000" font-family="sans-serif" font-size="14" lengthAdjust="spacing" textLength="133.2871" x="547.5708" y="805.6543">(e.g. Apple/Google)</text><ellipse cx="617.2144" cy="824.6074" fill="#E2E2F0" rx="12" ry="12" style="stroke:#181818;stroke-width:0.5;"/><line style="stroke:#181818;stroke-width:0.5;" x1="605.2144" x2="629.2144" y1="838.6074" y2="838.6074"/></g><g class="participant participant-head" data-participant="PrivateNotificationService"><text fill="#000000" font-family="sans-serif" font-size="14" lengthAdjust="spacing" textLength="51.9531" x="700.9834" y="77.0469">Internal</text><text fill="#000000" font-family="sans-serif" font-size="14" lengthAdjust="spacing" textLength="54.4688" x="699.7256" y="93.5352">Services</text><ellipse cx="729.96" cy="47.5117" fill="#E2E2F0" rx="12" ry="12" style="stroke:#181818;stroke-width:0.5;"/><line style="stroke:#181818;stroke-width:0.5;" x1="717.96" x2="741.96" y1="61.5117" y2="61.5117"/></g><g class="participant participant-tail" data-participant="PrivateNotificationService"><text fill="#000000" font-family="sans-serif" font-size="14" lengthAdjust="spacing" textLength="51.9531" x="700.9834" y="789.166">Internal</text><text fill="#000000" font-family="sans-serif" font-size="14" lengthAdjust="spacing" textLength="54.4688" x="699.7256" y="805.6543">Services</text><ellipse cx="729.96" cy="824.6074" fill="#E2E2F0" rx="12" ry="12" style="stroke:#181818;stroke-width:0.5;"/><line style="stroke:#181818;stroke-width:0.5;" x1="717.96" x2="741.96" y1="838.6074" y2="838.6074"/></g><g><title>FdV</title><rect fill="#FFFFFF" height="234.7949" style="stroke:#181818;stroke-width:1;" width="10" x="50.7354" y="340.9727"/></g><g><title>FdV</title><rect fill="#FFFFFF" height="122.2422" style="stroke:#181818;stroke-width:1;" width="10" x="50.7354" y="629.3887"/></g><g><title>Fachdienst</title><rect fill="#FFFFFF" height="63.6211" style="stroke:#181818;stroke-width:1;" width="10" x="316.0459" y="160.1094"/></g><g><title>Fachdienst</title><rect fill="#FFFFFF" height="29.3105" style="stroke:#181818;stroke-width:1;" width="10" x="316.0459" y="722.3203"/></g><g><title>Push Gateway</title><rect fill="#FFFFFF" height="281.7266" style="stroke:#181818;stroke-width:1;" width="10" x="480.0034" y="194.4199"/></g><g><title>Notification Provider</title><rect fill="#FFFFFF" height="29.3105" style="stroke:#181818;stroke-width:1;" width="10" x="612.2144" y="311.6621"/></g><g><title>Internal</title><rect fill="#FFFFFF" height="29.3105" style="stroke:#181818;stroke-width:1;" width="10" x="724.96" y="253.041"/></g><g><title>Internal</title><rect fill="#FFFFFF" height="14" style="stroke:#181818;stroke-width:1;" width="10" x="724.96" y="462.1465"/></g><g><title>Internal</title><rect fill="#FFFFFF" height="29.3105" style="stroke:#181818;stroke-width:1;" width="10" x="724.96" y="663.6992"/></g><path d="M30,113.4883 L139.5938,113.4883 L139.5938,120.7988 L129.5938,130.7988 L30,130.7988 L30,113.4883" fill="#EEEEEE" style="stroke:#000000;stroke-width:1.5;"/><rect fill="none" height="455.2793" style="stroke:#000000;stroke-width:1.5;" width="740.1943" x="30" y="113.4883"/><text fill="#000000" font-family="sans-serif" font-size="13" font-weight="bold" lengthAdjust="spacing" textLength="64.5938" x="45" y="127.0566">SendPush</text><g class="message" data-participant-1="Fachdienst" data-participant-2="Fachdienst"><line style="stroke:#181818;stroke-width:1;" x1="321.0459" x2="368.0459" y1="147.1094" y2="147.1094"/><line style="stroke:#181818;stroke-width:1;" x1="368.0459" x2="368.0459" y1="147.1094" y2="160.1094"/><line style="stroke:#181818;stroke-width:1;" x1="327.0459" x2="368.0459" y1="160.1094" y2="160.1094"/><polygon fill="#181818" points="337.0459,156.1094,327.0459,160.1094,337.0459,164.1094,333.0459,160.1094" style="stroke:#181818;stroke-width:1;"/><text fill="#000000" font-family="sans-serif" font-size="13" lengthAdjust="spacing" textLength="83.3574" x="333.0459" y="142.3672">event_trigger</text></g><g class="message" data-participant-1="Fachdienst" data-participant-2="NotificationService"><polygon fill="#181818" points="468.0034,190.4199,478.0034,194.4199,468.0034,198.4199,472.0034,194.4199" style="stroke:#181818;stroke-width:1;"/><line style="stroke:#181818;stroke-width:1;" x1="326.0459" x2="474.0034" y1="194.4199" y2="194.4199"/><text fill="#000000" font-family="sans-serif" font-size="13" font-weight="bold" lengthAdjust="spacing" textLength="35.0708" x="333.0459" y="189.6777">POST</text><text fill="#000000" font-family="sans-serif" font-size="13" lengthAdjust="spacing" textLength="4.1133" x="368.1167" y="189.6777">&#160;</text><text fill="#000000" font-family="sans-serif" font-size="13" font-style="italic" lengthAdjust="spacing" textLength="95.7734" x="372.23" y="189.6777">push/v1/notify</text></g><g class="message" data-participant-1="NotificationService" data-participant-2="Fachdienst"><line style="stroke:#181818;stroke-width:1;" x1="322.0459" x2="332.0459" y1="223.7305" y2="219.7305"/><line style="stroke:#181818;stroke-width:1;" x1="322.0459" x2="332.0459" y1="223.7305" y2="227.7305"/><line style="stroke:#181818;stroke-width:1;stroke-dasharray:2.0,2.0;" x1="321.0459" x2="479.0034" y1="223.7305" y2="223.7305"/><text fill="#000000" font-family="sans-serif" font-size="13" lengthAdjust="spacing" textLength="38.2256" x="338.0459" y="218.9883">status</text></g><g class="message" data-participant-1="NotificationService" data-participant-2="PrivateNotificationService"><polygon fill="#181818" points="712.96,249.041,722.96,253.041,712.96,257.041,716.96,253.041" style="stroke:#181818;stroke-width:1;"/><line style="stroke:#181818;stroke-width:1;" x1="490.0034" x2="718.96" y1="253.041" y2="253.041"/><text fill="#000000" font-family="sans-serif" font-size="13" lengthAdjust="spacing" textLength="187.2559" x="497.0034" y="248.2988">get_push_token(for: pushkey)</text></g><g class="message" data-participant-1="PrivateNotificationService" data-participant-2="NotificationService"><polygon fill="#181818" points="501.0034,278.3516,491.0034,282.3516,501.0034,286.3516,497.0034,282.3516" style="stroke:#181818;stroke-width:1;"/><line style="stroke:#181818;stroke-width:1;" x1="495.0034" x2="728.96" y1="282.3516" y2="282.3516"/><text fill="#000000" font-family="sans-serif" font-size="13" lengthAdjust="spacing" textLength="73.2012" x="507.0034" y="277.6094">push_token</text></g><g class="message" data-participant-1="NotificationService" data-participant-2="NotificationProvider"><polygon fill="#181818" points="600.2144,307.6621,610.2144,311.6621,600.2144,315.6621,604.2144,311.6621" style="stroke:#181818;stroke-width:1;"/><line style="stroke:#181818;stroke-width:1;" x1="490.0034" x2="606.2144" y1="311.6621" y2="311.6621"/><text fill="#000000" font-family="sans-serif" font-size="13" lengthAdjust="spacing" textLength="67.5645" x="497.0034" y="306.9199">send_push</text></g><g class="message" data-participant-1="NotificationProvider" data-participant-2="App"><polygon fill="#181818" points="71.7354,336.9727,61.7354,340.9727,71.7354,344.9727,67.7354,340.9727" style="stroke:#181818;stroke-width:1;"/><line style="stroke:#181818;stroke-width:1;" x1="65.7354" x2="616.2144" y1="340.9727" y2="340.9727"/><text fill="#000000" font-family="sans-serif" font-size="13" lengthAdjust="spacing" textLength="30.9448" x="77.7354" y="336.2305">push</text></g><g class="message" data-participant-1="NotificationService" data-participant-2="PrivateNotificationService"><polygon fill="#181818" points="712.96,458.1465,722.96,462.1465,712.96,466.1465,716.96,462.1465" style="stroke:#181818;stroke-width:1;"/><line style="stroke:#181818;stroke-width:1;" x1="490.0034" x2="718.96" y1="462.1465" y2="462.1465"/><text fill="#000000" font-family="sans-serif" font-size="13" lengthAdjust="spacing" textLength="52.7046" x="497.0034" y="365.541">register(</text><text fill="#000000" font-family="sans-serif" font-size="13" lengthAdjust="spacing" textLength="43.3989" x="529.9097" y="380.8516">push: {</text><text fill="#000000" font-family="sans-serif" font-size="13" lengthAdjust="spacing" textLength="97.9443" x="562.8159" y="396.1621">"service": "epa",</text><text fill="#000000" font-family="sans-serif" font-size="13" lengthAdjust="spacing" textLength="120.6626" x="562.8159" y="411.4727">"reference":"&lt;ref&gt;"</text><text fill="#000000" font-family="sans-serif" font-size="13" lengthAdjust="spacing" textLength="8.3408" x="529.9097" y="426.7832">},</text><text fill="#000000" font-family="sans-serif" font-size="13" lengthAdjust="spacing" textLength="78.8887" x="529.9097" y="442.0938">for: pushkey</text><text fill="#000000" font-family="sans-serif" font-size="13" lengthAdjust="spacing" textLength="4.2275" x="497.0034" y="457.4043">)</text></g><g class="message" data-participant-1="PrivateNotificationService" data-participant-2="NotificationService"><polygon fill="#181818" points="496.0034,472.1465,486.0034,476.1465,496.0034,480.1465,492.0034,476.1465" style="stroke:#181818;stroke-width:1;"/><line style="stroke:#181818;stroke-width:1;" x1="490.0034" x2="728.96" y1="476.1465" y2="476.1465"/></g><g class="message" data-participant-1="App" data-participant-2="App"><line style="stroke:#181818;stroke-width:1;" x1="60.7354" x2="102.7354" y1="505.457" y2="505.457"/><line style="stroke:#181818;stroke-width:1;" x1="102.7354" x2="102.7354" y1="505.457" y2="518.457"/><line style="stroke:#181818;stroke-width:1;" x1="61.7354" x2="102.7354" y1="518.457" y2="518.457"/><polygon fill="#181818" points="71.7354,514.457,61.7354,518.457,71.7354,522.457,67.7354,518.457" style="stroke:#181818;stroke-width:1;"/><text fill="#000000" font-family="sans-serif" font-size="13" lengthAdjust="spacing" textLength="125.4614" x="67.7354" y="500.7148">decrypt_notification</text></g><g class="message" data-participant-1="App" data-participant-2="App"><line style="stroke:#181818;stroke-width:1;" x1="60.7354" x2="102.7354" y1="547.7676" y2="547.7676"/><line style="stroke:#181818;stroke-width:1;" x1="102.7354" x2="102.7354" y1="547.7676" y2="560.7676"/><line style="stroke:#181818;stroke-width:1;" x1="61.7354" x2="102.7354" y1="560.7676" y2="560.7676"/><polygon fill="#181818" points="71.7354,556.7676,61.7354,560.7676,71.7354,564.7676,67.7354,560.7676" style="stroke:#181818;stroke-width:1;"/><text fill="#000000" font-family="sans-serif" font-size="13" lengthAdjust="spacing" textLength="110.9189" x="67.7354" y="543.0254">show_notification</text></g><path d="M30,582.7676 L185.062,582.7676 L185.062,590.0781 L175.062,600.0781 L30,600.0781 L30,582.7676" fill="#EEEEEE" style="stroke:#000000;stroke-width:1.5;"/><rect fill="none" height="176.8633" style="stroke:#000000;stroke-width:1.5;" width="740.1943" x="30" y="582.7676"/><text fill="#000000" font-family="sans-serif" font-size="13" font-weight="bold" lengthAdjust="spacing" textLength="110.062" x="45" y="596.3359">ListNotifications</text><g class="message" data-participant-1="App" data-participant-2="App"><line style="stroke:#181818;stroke-width:1;" x1="55.7354" x2="102.7354" y1="616.3887" y2="616.3887"/><line style="stroke:#181818;stroke-width:1;" x1="102.7354" x2="102.7354" y1="616.3887" y2="629.3887"/><line style="stroke:#181818;stroke-width:1;" x1="61.7354" x2="102.7354" y1="629.3887" y2="629.3887"/><polygon fill="#181818" points="71.7354,625.3887,61.7354,629.3887,71.7354,633.3887,67.7354,629.3887" style="stroke:#181818;stroke-width:1;"/><text fill="#000000" font-family="sans-serif" font-size="13" lengthAdjust="spacing" textLength="72.2681" x="67.7354" y="611.6465">user_action</text></g><g class="message" data-participant-1="App" data-participant-2="PrivateNotificationService"><polygon fill="#181818" points="712.96,659.6992,722.96,663.6992,712.96,667.6992,716.96,663.6992" style="stroke:#181818;stroke-width:1;"/><line style="stroke:#181818;stroke-width:1;" x1="60.7354" x2="718.96" y1="663.6992" y2="663.6992"/><text fill="#000000" font-family="sans-serif" font-size="13" lengthAdjust="spacing" textLength="105.0601" x="67.7354" y="658.957">get_notifications</text></g><g class="message" data-participant-1="PrivateNotificationService" data-participant-2="App"><polygon fill="#181818" points="71.7354,689.0098,61.7354,693.0098,71.7354,697.0098,67.7354,693.0098" style="stroke:#181818;stroke-width:1;"/><line style="stroke:#181818;stroke-width:1;" x1="65.7354" x2="728.96" y1="693.0098" y2="693.0098"/><text fill="#000000" font-family="sans-serif" font-size="13" lengthAdjust="spacing" textLength="78.3491" x="77.7354" y="688.2676">notifications</text></g><g class="message" data-participant-1="App" data-participant-2="Fachdienst"><polygon fill="#181818" points="304.0459,718.3203,314.0459,722.3203,304.0459,726.3203,308.0459,722.3203" style="stroke:#181818;stroke-width:1;"/><line style="stroke:#181818;stroke-width:1;" x1="60.7354" x2="310.0459" y1="722.3203" y2="722.3203"/><text fill="#000000" font-family="sans-serif" font-size="13" font-weight="bold" lengthAdjust="spacing" textLength="26.4697" x="67.7354" y="717.5781">GET</text><text fill="#000000" font-family="sans-serif" font-size="13" lengthAdjust="spacing" textLength="4.1133" x="94.2051" y="717.5781">&#160;</text><text fill="#000000" font-family="sans-serif" font-size="13" font-style="italic" lengthAdjust="spacing" textLength="205.7275" x="98.3184" y="717.5781">push/v1/notifications/{pushkey}</text></g><g class="message" data-participant-1="Fachdienst" data-participant-2="App"><polygon fill="#181818" points="66.7354,747.6309,56.7354,751.6309,66.7354,755.6309,62.7354,751.6309" style="stroke:#181818;stroke-width:1;"/><line style="stroke:#181818;stroke-width:1;" x1="60.7354" x2="320.0459" y1="751.6309" y2="751.6309"/><text fill="#000000" font-family="sans-serif" font-size="13" lengthAdjust="spacing" textLength="78.3491" x="72.7354" y="746.8887">notifications</text></g><!--SRC=[jLJ1Zfim4Btp5LDEMTG4xHLLaNfeeqhLRgHKFI4X2oPW9R6HRLYXrVxxZWaXG1oghLfEs7v-RsRUU3wP0ay8EPwOuGVOAtc2rIeigzFHyrXgf0B_U_RR1wRXQrbwA0mt3UsnjCWu2crYqHvUDthCjj85R9Z15zPqg2Tf-9wdf2N53bNDK-pXmpFOAbdp35Ki5hZALrRxYE56olo83pTK5xJNa_qG1fLWn_WYezjBMyLh2iWLXfShMPMmGv7Pm3sWxveKBDV3LGHOarHY5CzpqhLWgbPBFYp5BOb3cjY2OFky-nK445BfTH7MZw6mm2OCnzoko2t0HRjShYT1QyDCfTiB6RhYlS-rdgaTCUTe4XjvOkG1nM8lLGHsVS3cOPp1Z0KMDwDojtfNuMbgStxFfEhgBLi-weqso_kUN3jnIj_p43zrSnVsD60drqZDliA_jabXpZMzZ4KiOcFr8tYrlx7nzHdaH-1ZoVpFtRR2FIeKzi3_GekrRm_UskEXox7uppv_rDexHHrXh0-z7HccgYbD8WReMvGkvCiOGatXUGErrg3pCFb9nHwAQuTiHOLFxELERSGpGF_n-OcHqB_pWlGZk2N_W1LT1gDH50IRRuw1Tv48Nxk-UfjEmDdfUYxfRB2J-nFZMZFV0G00]--></g></svg>