<svg xmlns="http://www.w3.org/2000/svg" xmlns:xlink="http://www.w3.org/1999/xlink" contentStyleType="text/css" data-diagram-type="SEQUENCE" height="599px" preserveAspectRatio="none" style="width:794px;height:599px;background:#FFFFFF;" version="1.1" viewBox="0 0 794 599" width="794px" zoomAndPan="magnify"><defs/><g><g><title>FdV</title><rect fill="#FFFFFF" height="99.6211" style="stroke:#181818;stroke-width:1;" width="10" x="50.7354" y="388.9492"/></g><g><title>Fachdienst</title><rect fill="#FFFFFF" height="64.3105" style="stroke:#181818;stroke-width:1;" width="10" x="210.1968" y="165.0859"/></g><g><title>Fachdienst</title><rect fill="#FFFFFF" height="130.9316" style="stroke:#181818;stroke-width:1;" width="10" x="330.2476" y="199.3965"/></g><g><title>Push Gateway</title><rect fill="#FFFFFF" height="58.6211" style="stroke:#181818;stroke-width:1;" width="10" x="598.3257" y="301.0176"/></g><g><title>Apple.Google</title><rect fill="#FFFFFF" height="29.3105" style="stroke:#181818;stroke-width:1;" width="10" x="708.207" y="359.6387"/></g><rect fill="none" height="363.1055" style="stroke:#000000;stroke-width:1.5;" width="743.3887" x="30" y="118.4648"/><g><title>FdV</title><rect fill="#000000" fill-opacity="0.00000" height="397.1055" width="8" x="51.7354" y="101.4648"/><line style="stroke:#181818;stroke-width:0.5;stroke-dasharray:5,5;" x1="55" x2="55" y1="101.4648" y2="498.5703"/></g><g><title>Fachdienst</title><rect fill="#000000" fill-opacity="0.00000" height="397.1055" width="8" x="211.1968" y="101.4648"/><line style="stroke:#181818;stroke-width:0.5;stroke-dasharray:5,5;" x1="214.7886" x2="214.7886" y1="101.4648" y2="498.5703"/></g><g><title>Fachdienst</title><rect fill="#000000" fill-opacity="0.00000" height="397.1055" width="8" x="331.2476" y="101.4648"/><line style="stroke:#181818;stroke-width:0.5;stroke-dasharray:5,5;" x1="334.4805" x2="334.4805" y1="101.4648" y2="498.5703"/></g><g><title>Push Gateway</title><rect fill="#000000" fill-opacity="0.00000" height="397.1055" width="8" x="599.3257" y="101.4648"/><line style="stroke:#181818;stroke-width:0.5;stroke-dasharray:5,5;" x1="602.626" x2="602.626" y1="101.4648" y2="498.5703"/></g><g><title>Apple.Google</title><rect fill="#000000" fill-opacity="0.00000" height="397.1055" width="8" x="709.207" y="101.4648"/><line style="stroke:#181818;stroke-width:0.5;stroke-dasharray:5,5;" x1="713.0254" x2="713.0254" y1="101.4648" y2="498.5703"/></g><g class="participant participant-head" data-participant="App"><text fill="#000000" font-family="sans-serif" font-size="14" lengthAdjust="spacing" textLength="25.4707" x="40" y="98.5117">FdV</text><ellipse cx="55.7354" cy="33.4766" fill="#E2E2F0" rx="8" ry="8" style="stroke:#181818;stroke-width:0.5;"/><path d="M55.7354,41.4766 L55.7354,68.4766 M42.7354,49.4766 L68.7354,49.4766 M55.7354,68.4766 L42.7354,83.4766 M55.7354,68.4766 L68.7354,83.4766" fill="none" style="stroke:#181818;stroke-width:0.5;"/></g><g class="participant participant-tail" data-participant="App"><text fill="#000000" font-family="sans-serif" font-size="14" lengthAdjust="spacing" textLength="25.4707" x="40" y="511.1055">FdV</text><ellipse cx="55.7354" cy="522.5586" fill="#E2E2F0" rx="8" ry="8" style="stroke:#181818;stroke-width:0.5;"/><path d="M55.7354,530.5586 L55.7354,557.5586 M42.7354,538.5586 L68.7354,538.5586 M55.7354,557.5586 L42.7354,572.5586 M55.7354,557.5586 L68.7354,572.5586" fill="none" style="stroke:#181818;stroke-width:0.5;"/></g><g class="participant participant-head" data-participant="Fachdienst"><text fill="#000000" font-family="sans-serif" font-size="14" lengthAdjust="spacing" textLength="72.8164" x="175.7886" y="65.5352">Fachdienst</text><text fill="#000000" font-family="sans-serif" font-size="14" lengthAdjust="spacing" textLength="4.4297" x="209.9819" y="82.0234">&#160;</text><text fill="#000000" font-family="sans-serif" font-size="14" lengthAdjust="spacing" textLength="4.4297" x="209.9819" y="98.5117">&#160;</text><ellipse cx="215.1968" cy="36" fill="#E2E2F0" rx="12" ry="12" style="stroke:#181818;stroke-width:0.5;"/><line style="stroke:#181818;stroke-width:0.5;" x1="203.1968" x2="227.1968" y1="50" y2="50"/></g><g class="participant participant-tail" data-participant="Fachdienst"><text fill="#000000" font-family="sans-serif" font-size="14" lengthAdjust="spacing" textLength="72.8164" x="175.7886" y="511.1055">Fachdienst</text><text fill="#000000" font-family="sans-serif" font-size="14" lengthAdjust="spacing" textLength="4.4297" x="209.9819" y="527.5938">&#160;</text><text fill="#000000" font-family="sans-serif" font-size="14" lengthAdjust="spacing" textLength="4.4297" x="209.9819" y="544.082">&#160;</text><ellipse cx="215.1968" cy="563.0352" fill="#E2E2F0" rx="12" ry="12" style="stroke:#181818;stroke-width:0.5;"/><line style="stroke:#181818;stroke-width:0.5;" x1="203.1968" x2="227.1968" y1="577.0352" y2="577.0352"/></g><g class="participant participant-head" data-participant="NotificationManagement"><text fill="#000000" font-family="sans-serif" font-size="14" lengthAdjust="spacing" textLength="72.8164" x="295.8394" y="65.5352">Fachdienst</text><text fill="#000000" font-family="sans-serif" font-size="14" lengthAdjust="spacing" textLength="78.8936" x="292.8008" y="82.0234">Notification</text><text fill="#000000" font-family="sans-serif" font-size="14" lengthAdjust="spacing" textLength="87.5342" x="288.4805" y="98.5117">Management</text><ellipse cx="335.2476" cy="36" fill="#E2E2F0" rx="12" ry="12" style="stroke:#181818;stroke-width:0.5;"/><line style="stroke:#181818;stroke-width:0.5;" x1="323.2476" x2="347.2476" y1="50" y2="50"/></g><g class="participant participant-tail" data-participant="NotificationManagement"><text fill="#000000" font-family="sans-serif" font-size="14" lengthAdjust="spacing" textLength="72.8164" x="295.8394" y="511.1055">Fachdienst</text><text fill="#000000" font-family="sans-serif" font-size="14" lengthAdjust="spacing" textLength="78.8936" x="292.8008" y="527.5938">Notification</text><text fill="#000000" font-family="sans-serif" font-size="14" lengthAdjust="spacing" textLength="87.5342" x="288.4805" y="544.082">Management</text><ellipse cx="335.2476" cy="563.0352" fill="#E2E2F0" rx="12" ry="12" style="stroke:#181818;stroke-width:0.5;"/><line style="stroke:#181818;stroke-width:0.5;" x1="323.2476" x2="347.2476" y1="577.0352" y2="577.0352"/></g><g class="participant participant-head" data-participant="NotificationService"><text fill="#000000" font-family="sans-serif" font-size="14" lengthAdjust="spacing" textLength="93.3994" x="553.626" y="98.5117">Push Gateway</text><ellipse cx="603.3257" cy="68.9766" fill="#E2E2F0" rx="12" ry="12" style="stroke:#181818;stroke-width:0.5;"/><line style="stroke:#181818;stroke-width:0.5;" x1="591.3257" x2="615.3257" y1="82.9766" y2="82.9766"/></g><g class="participant participant-tail" data-participant="NotificationService"><text fill="#000000" font-family="sans-serif" font-size="14" lengthAdjust="spacing" textLength="93.3994" x="553.626" y="511.1055">Push Gateway</text><ellipse cx="603.3257" cy="530.0586" fill="#E2E2F0" rx="12" ry="12" style="stroke:#181818;stroke-width:0.5;"/><line style="stroke:#181818;stroke-width:0.5;" x1="591.3257" x2="615.3257" y1="544.0586" y2="544.0586"/></g><g class="participant participant-head" data-participant="NotificationProvider"><text fill="#000000" font-family="sans-serif" font-size="14" lengthAdjust="spacing" textLength="94.3633" x="663.0254" y="98.5117">Apple/Google</text><ellipse cx="713.207" cy="68.9766" fill="#E2E2F0" rx="12" ry="12" style="stroke:#181818;stroke-width:0.5;"/><line style="stroke:#181818;stroke-width:0.5;" x1="701.207" x2="725.207" y1="82.9766" y2="82.9766"/></g><g class="participant participant-tail" data-participant="NotificationProvider"><text fill="#000000" font-family="sans-serif" font-size="14" lengthAdjust="spacing" textLength="94.3633" x="663.0254" y="511.1055">Apple/Google</text><ellipse cx="713.207" cy="530.0586" fill="#E2E2F0" rx="12" ry="12" style="stroke:#181818;stroke-width:0.5;"/><line style="stroke:#181818;stroke-width:0.5;" x1="701.207" x2="725.207" y1="544.0586" y2="544.0586"/></g><g><title>FdV</title><rect fill="#FFFFFF" height="99.6211" style="stroke:#181818;stroke-width:1;" width="10" x="50.7354" y="388.9492"/></g><g><title>Fachdienst</title><rect fill="#FFFFFF" height="64.3105" style="stroke:#181818;stroke-width:1;" width="10" x="210.1968" y="165.0859"/></g><g><title>Fachdienst</title><rect fill="#FFFFFF" height="130.9316" style="stroke:#181818;stroke-width:1;" width="10" x="330.2476" y="199.3965"/></g><g><title>Push Gateway</title><rect fill="#FFFFFF" height="58.6211" style="stroke:#181818;stroke-width:1;" width="10" x="598.3257" y="301.0176"/></g><g><title>Apple.Google</title><rect fill="#FFFFFF" height="29.3105" style="stroke:#181818;stroke-width:1;" width="10" x="708.207" y="359.6387"/></g><path d="M30,118.4648 L139.5938,118.4648 L139.5938,125.7754 L129.5938,135.7754 L30,135.7754 L30,118.4648" fill="#EEEEEE" style="stroke:#000000;stroke-width:1.5;"/><rect fill="none" height="363.1055" style="stroke:#000000;stroke-width:1.5;" width="743.3887" x="30" y="118.4648"/><text fill="#000000" font-family="sans-serif" font-size="13" font-weight="bold" lengthAdjust="spacing" textLength="64.5938" x="45" y="132.0332">SendPush</text><g class="message" data-participant-1="Fachdienst" data-participant-2="Fachdienst"><line style="stroke:#181818;stroke-width:1;" x1="215.1968" x2="262.1968" y1="152.0859" y2="152.0859"/><line style="stroke:#181818;stroke-width:1;" x1="262.1968" x2="262.1968" y1="152.0859" y2="165.0859"/><line style="stroke:#181818;stroke-width:1;" x1="221.1968" x2="262.1968" y1="165.0859" y2="165.0859"/><polygon fill="#181818" points="231.1968,161.0859,221.1968,165.0859,231.1968,169.0859,227.1968,165.0859" style="stroke:#181818;stroke-width:1;"/><text fill="#000000" font-family="sans-serif" font-size="13" lengthAdjust="spacing" textLength="83.3574" x="227.1968" y="147.3438">event_trigger</text></g><g class="message" data-participant-1="Fachdienst" data-participant-2="NotificationManagement"><polygon fill="#181818" points="318.2476,195.3965,328.2476,199.3965,318.2476,203.3965,322.2476,199.3965" style="stroke:#181818;stroke-width:1;"/><line style="stroke:#181818;stroke-width:1;stroke-dasharray:2,2;" x1="220.1968" x2="324.2476" y1="199.3965" y2="199.3965"/><text fill="#000000" font-family="sans-serif" font-size="13" lengthAdjust="spacing" textLength="91.0508" x="227.1968" y="194.6543">fire and forget</text></g><g class="message" data-participant-1="NotificationManagement" data-participant-2="NotificationManagement"><line style="stroke:#181818;stroke-width:1;" x1="340.2476" x2="382.2476" y1="258.707" y2="258.707"/><line style="stroke:#181818;stroke-width:1;" x1="382.2476" x2="382.2476" y1="258.707" y2="271.707"/><line style="stroke:#181818;stroke-width:1;" x1="341.2476" x2="382.2476" y1="271.707" y2="271.707"/><polygon fill="#181818" points="351.2476,267.707,341.2476,271.707,351.2476,275.707,347.2476,271.707" style="stroke:#181818;stroke-width:1;"/><text fill="#000000" font-family="sans-serif" font-size="13" lengthAdjust="spacing" textLength="108.7861" x="347.2476" y="253.9648">encrypt_message</text></g><g class="message" data-participant-1="NotificationManagement" data-participant-2="NotificationService"><polygon fill="#181818" points="586.3257,297.0176,596.3257,301.0176,586.3257,305.0176,590.3257,301.0176" style="stroke:#181818;stroke-width:1;"/><line style="stroke:#181818;stroke-width:1;" x1="340.2476" x2="592.3257" y1="301.0176" y2="301.0176"/><text fill="#000000" font-family="sans-serif" font-size="13" font-weight="bold" lengthAdjust="spacing" textLength="35.0708" x="347.2476" y="296.2754">POST</text><text fill="#000000" font-family="sans-serif" font-size="13" lengthAdjust="spacing" textLength="4.1133" x="382.3184" y="296.2754">&#160;</text><text fill="#000000" font-family="sans-serif" font-size="13" font-style="italic" lengthAdjust="spacing" textLength="199.894" x="386.4316" y="296.2754">push/v1/notifyEncrypted/batch</text></g><g class="message" data-participant-1="NotificationService" data-participant-2="NotificationManagement"><line style="stroke:#181818;stroke-width:1;" x1="336.2476" x2="346.2476" y1="330.3281" y2="326.3281"/><line style="stroke:#181818;stroke-width:1;" x1="336.2476" x2="346.2476" y1="330.3281" y2="334.3281"/><line style="stroke:#181818;stroke-width:1;stroke-dasharray:2,2;" x1="335.2476" x2="597.3257" y1="330.3281" y2="330.3281"/><text fill="#000000" font-family="sans-serif" font-size="13" lengthAdjust="spacing" textLength="38.2256" x="352.2476" y="325.5859">status</text></g><g class="message" data-participant-1="NotificationService" data-participant-2="NotificationProvider"><polygon fill="#181818" points="696.207,355.6387,706.207,359.6387,696.207,363.6387,700.207,359.6387" style="stroke:#181818;stroke-width:1;"/><line style="stroke:#181818;stroke-width:1;" x1="603.3257" x2="702.207" y1="359.6387" y2="359.6387"/><text fill="#000000" font-family="sans-serif" font-size="13" lengthAdjust="spacing" textLength="67.5645" x="610.3257" y="354.8965">send_push</text></g><g class="message" data-participant-1="NotificationProvider" data-participant-2="App"><polygon fill="#181818" points="71.7354,384.9492,61.7354,388.9492,71.7354,392.9492,67.7354,388.9492" style="stroke:#181818;stroke-width:1;"/><line style="stroke:#181818;stroke-width:1;" x1="65.7354" x2="712.207" y1="388.9492" y2="388.9492"/><text fill="#000000" font-family="sans-serif" font-size="13" lengthAdjust="spacing" textLength="30.9448" x="77.7354" y="384.207">push</text></g><g class="message" data-participant-1="App" data-participant-2="App"><line style="stroke:#181818;stroke-width:1;" x1="60.7354" x2="102.7354" y1="418.2598" y2="418.2598"/><line style="stroke:#181818;stroke-width:1;" x1="102.7354" x2="102.7354" y1="418.2598" y2="431.2598"/><line style="stroke:#181818;stroke-width:1;" x1="61.7354" x2="102.7354" y1="431.2598" y2="431.2598"/><polygon fill="#181818" points="71.7354,427.2598,61.7354,431.2598,71.7354,435.2598,67.7354,431.2598" style="stroke:#181818;stroke-width:1;"/><text fill="#000000" font-family="sans-serif" font-size="13" lengthAdjust="spacing" textLength="125.4614" x="67.7354" y="413.5176">decrypt_notification</text></g><g class="message" data-participant-1="App" data-participant-2="App"><line style="stroke:#181818;stroke-width:1;" x1="60.7354" x2="102.7354" y1="460.5703" y2="460.5703"/><line style="stroke:#181818;stroke-width:1;" x1="102.7354" x2="102.7354" y1="460.5703" y2="473.5703"/><line style="stroke:#181818;stroke-width:1;" x1="61.7354" x2="102.7354" y1="473.5703" y2="473.5703"/><polygon fill="#181818" points="71.7354,469.5703,61.7354,473.5703,71.7354,477.5703,67.7354,473.5703" style="stroke:#181818;stroke-width:1;"/><text fill="#000000" font-family="sans-serif" font-size="13" lengthAdjust="spacing" textLength="110.9189" x="67.7354" y="455.8281">show_notification</text></g><!--SRC=[bLFBReCm4Bpp5TiSaHghrnmYzT3cr3PIgfuYHIvUm6gmaRqGyVTTvm64GAfoytfsPcSzF52E1KA6XIJz0wcp1SpdegoAVHJ9XAo3sQlwce7qy5oM4HhIr71D9hdIQ3njpTOShxlIAEhTaavrmZAMEzwaaIpAm6Dl_xAxQddMbSzX9GaFihd1Rz3LEi4Mp6FkKQoipVPu0ruxMsk5BeeoPwiIDcXKO8-0lsvSU5psJml0ckbtv7IMSNC0yt9qpIFrVGz9c6NSsG9IxH2aKP1Qbo5TKqwi8s0KJWcFDy6T6T0ahYbfLw3tNFm7otdd2uZZzSVcCuv1S6PyBkedOGAkUJbnenBVaf9SY6c7bmSSof_hOOrJ7lXbF4cg_70tTpOuAh4SJKcWvu3ioaj29XGk3gOzjhaRJj1AyGYSN5RyIwoBy9LQ-3j38P2qN0fFBsnw_RSedzl3DOHDHptvmFqB]--></g></svg>