<svg xmlns="http://www.w3.org/2000/svg" xmlns:xlink="http://www.w3.org/1999/xlink" contentStyleType="text/css" data-diagram-type="SEQUENCE" height="530px" preserveAspectRatio="none" style="width:674px;height:530px;background:#FFFFFF;" version="1.1" viewBox="0 0 674 530" width="674px" zoomAndPan="magnify"><defs/><g><g><title>FdV</title><rect fill="#FFFFFF" height="99.6211" style="stroke:#181818;stroke-width:1;" width="10" x="50.7354" y="324.6621"/></g><g><title>Fachdienst</title><rect fill="#FFFFFF" height="105.9316" style="stroke:#181818;stroke-width:1;" width="10" x="210.1968" y="160.1094"/></g><g><title>Push Gateway</title><rect fill="#FFFFFF" height="58.6211" style="stroke:#181818;stroke-width:1;" width="10" x="478.2749" y="236.7305"/></g><g><title>Apple.Google</title><rect fill="#FFFFFF" height="29.3105" style="stroke:#181818;stroke-width:1;" width="10" x="588.1563" y="295.3516"/></g><rect fill="none" height="303.7949" style="stroke:#000000;stroke-width:1.5;" width="623.3379" x="30" y="113.4883"/><g><title>FdV</title><rect fill="#000000" fill-opacity="0.00000" height="337.7949" width="8" x="51.7354" y="96.4883"/><line style="stroke:#181818;stroke-width:0.5;stroke-dasharray:5,5;" x1="55" x2="55" y1="96.4883" y2="434.2832"/></g><g><title>Fachdienst</title><rect fill="#000000" fill-opacity="0.00000" height="337.7949" width="8" x="211.1968" y="96.4883"/><line style="stroke:#181818;stroke-width:0.5;stroke-dasharray:5,5;" x1="214.7886" x2="214.7886" y1="96.4883" y2="434.2832"/></g><g><title>Push Gateway</title><rect fill="#000000" fill-opacity="0.00000" height="337.7949" width="8" x="479.2749" y="96.4883"/><line style="stroke:#181818;stroke-width:0.5;stroke-dasharray:5,5;" x1="482.5752" x2="482.5752" y1="96.4883" y2="434.2832"/></g><g><title>Apple.Google</title><rect fill="#000000" fill-opacity="0.00000" height="337.7949" width="8" x="589.1563" y="96.4883"/><line style="stroke:#181818;stroke-width:0.5;stroke-dasharray:5,5;" x1="592.9746" x2="592.9746" y1="96.4883" y2="434.2832"/></g><g class="participant participant-head" data-participant="App"><text fill="#000000" font-family="sans-serif" font-size="14" lengthAdjust="spacing" textLength="25.4707" x="40" y="93.5352">FdV</text><ellipse cx="55.7354" cy="28.5" fill="#E2E2F0" rx="8" ry="8" style="stroke:#181818;stroke-width:0.5;"/><path d="M55.7354,36.5 L55.7354,63.5 M42.7354,44.5 L68.7354,44.5 M55.7354,63.5 L42.7354,78.5 M55.7354,63.5 L68.7354,78.5" fill="none" style="stroke:#181818;stroke-width:0.5;"/></g><g class="participant participant-tail" data-participant="App"><text fill="#000000" font-family="sans-serif" font-size="14" lengthAdjust="spacing" textLength="25.4707" x="40" y="446.8184">FdV</text><ellipse cx="55.7354" cy="458.2715" fill="#E2E2F0" rx="8" ry="8" style="stroke:#181818;stroke-width:0.5;"/><path d="M55.7354,466.2715 L55.7354,493.2715 M42.7354,474.2715 L68.7354,474.2715 M55.7354,493.2715 L42.7354,508.2715 M55.7354,493.2715 L68.7354,508.2715" fill="none" style="stroke:#181818;stroke-width:0.5;"/></g><g class="participant participant-head" data-participant="Fachdienst"><text fill="#000000" font-family="sans-serif" font-size="14" lengthAdjust="spacing" textLength="72.8164" x="175.7886" y="93.5352">Fachdienst</text><ellipse cx="215.1968" cy="64" fill="#E2E2F0" rx="12" ry="12" style="stroke:#181818;stroke-width:0.5;"/><line style="stroke:#181818;stroke-width:0.5;" x1="203.1968" x2="227.1968" y1="78" y2="78"/></g><g class="participant participant-tail" data-participant="Fachdienst"><text fill="#000000" font-family="sans-serif" font-size="14" lengthAdjust="spacing" textLength="72.8164" x="175.7886" y="446.8184">Fachdienst</text><ellipse cx="215.1968" cy="465.7715" fill="#E2E2F0" rx="12" ry="12" style="stroke:#181818;stroke-width:0.5;"/><line style="stroke:#181818;stroke-width:0.5;" x1="203.1968" x2="227.1968" y1="479.7715" y2="479.7715"/></g><g class="participant participant-head" data-participant="NotificationService"><text fill="#000000" font-family="sans-serif" font-size="14" lengthAdjust="spacing" textLength="93.3994" x="433.5752" y="93.5352">Push Gateway</text><ellipse cx="483.2749" cy="64" fill="#E2E2F0" rx="12" ry="12" style="stroke:#181818;stroke-width:0.5;"/><line style="stroke:#181818;stroke-width:0.5;" x1="471.2749" x2="495.2749" y1="78" y2="78"/></g><g class="participant participant-tail" data-participant="NotificationService"><text fill="#000000" font-family="sans-serif" font-size="14" lengthAdjust="spacing" textLength="93.3994" x="433.5752" y="446.8184">Push Gateway</text><ellipse cx="483.2749" cy="465.7715" fill="#E2E2F0" rx="12" ry="12" style="stroke:#181818;stroke-width:0.5;"/><line style="stroke:#181818;stroke-width:0.5;" x1="471.2749" x2="495.2749" y1="479.7715" y2="479.7715"/></g><g class="participant participant-head" data-participant="NotificationProvider"><text fill="#000000" font-family="sans-serif" font-size="14" lengthAdjust="spacing" textLength="94.3633" x="542.9746" y="93.5352">Apple/Google</text><ellipse cx="593.1563" cy="64" fill="#E2E2F0" rx="12" ry="12" style="stroke:#181818;stroke-width:0.5;"/><line style="stroke:#181818;stroke-width:0.5;" x1="581.1563" x2="605.1563" y1="78" y2="78"/></g><g class="participant participant-tail" data-participant="NotificationProvider"><text fill="#000000" font-family="sans-serif" font-size="14" lengthAdjust="spacing" textLength="94.3633" x="542.9746" y="446.8184">Apple/Google</text><ellipse cx="593.1563" cy="465.7715" fill="#E2E2F0" rx="12" ry="12" style="stroke:#181818;stroke-width:0.5;"/><line style="stroke:#181818;stroke-width:0.5;" x1="581.1563" x2="605.1563" y1="479.7715" y2="479.7715"/></g><g><title>FdV</title><rect fill="#FFFFFF" height="99.6211" style="stroke:#181818;stroke-width:1;" width="10" x="50.7354" y="324.6621"/></g><g><title>Fachdienst</title><rect fill="#FFFFFF" height="105.9316" style="stroke:#181818;stroke-width:1;" width="10" x="210.1968" y="160.1094"/></g><g><title>Push Gateway</title><rect fill="#FFFFFF" height="58.6211" style="stroke:#181818;stroke-width:1;" width="10" x="478.2749" y="236.7305"/></g><g><title>Apple.Google</title><rect fill="#FFFFFF" height="29.3105" style="stroke:#181818;stroke-width:1;" width="10" x="588.1563" y="295.3516"/></g><path d="M30,113.4883 L139.5938,113.4883 L139.5938,120.7988 L129.5938,130.7988 L30,130.7988 L30,113.4883" fill="#EEEEEE" style="stroke:#000000;stroke-width:1.5;"/><rect fill="none" height="303.7949" style="stroke:#000000;stroke-width:1.5;" width="623.3379" x="30" y="113.4883"/><text fill="#000000" font-family="sans-serif" font-size="13" font-weight="bold" lengthAdjust="spacing" textLength="64.5938" x="45" y="127.0566">SendPush</text><g class="message" data-participant-1="Fachdienst" data-participant-2="Fachdienst"><line style="stroke:#181818;stroke-width:1;" x1="215.1968" x2="262.1968" y1="147.1094" y2="147.1094"/><line style="stroke:#181818;stroke-width:1;" x1="262.1968" x2="262.1968" y1="147.1094" y2="160.1094"/><line style="stroke:#181818;stroke-width:1;" x1="221.1968" x2="262.1968" y1="160.1094" y2="160.1094"/><polygon fill="#181818" points="231.1968,156.1094,221.1968,160.1094,231.1968,164.1094,227.1968,160.1094" style="stroke:#181818;stroke-width:1;"/><text fill="#000000" font-family="sans-serif" font-size="13" lengthAdjust="spacing" textLength="83.3574" x="227.1968" y="142.3672">event_trigger</text></g><g class="message" data-participant-1="Fachdienst" data-participant-2="Fachdienst"><line style="stroke:#181818;stroke-width:1;" x1="220.1968" x2="262.1968" y1="194.4199" y2="194.4199"/><line style="stroke:#181818;stroke-width:1;" x1="262.1968" x2="262.1968" y1="194.4199" y2="207.4199"/><line style="stroke:#181818;stroke-width:1;" x1="221.1968" x2="262.1968" y1="207.4199" y2="207.4199"/><polygon fill="#181818" points="231.1968,203.4199,221.1968,207.4199,231.1968,211.4199,227.1968,207.4199" style="stroke:#181818;stroke-width:1;"/><text fill="#000000" font-family="sans-serif" font-size="13" lengthAdjust="spacing" textLength="108.7861" x="227.1968" y="189.6777">encrypt_message</text></g><g class="message" data-participant-1="Fachdienst" data-participant-2="NotificationService"><polygon fill="#181818" points="466.2749,232.7305,476.2749,236.7305,466.2749,240.7305,470.2749,236.7305" style="stroke:#181818;stroke-width:1;"/><line style="stroke:#181818;stroke-width:1;" x1="220.1968" x2="472.2749" y1="236.7305" y2="236.7305"/><text fill="#000000" font-family="sans-serif" font-size="13" font-weight="bold" lengthAdjust="spacing" textLength="35.0708" x="227.1968" y="231.9883">POST</text><text fill="#000000" font-family="sans-serif" font-size="13" lengthAdjust="spacing" textLength="4.1133" x="262.2676" y="231.9883">&#160;</text><text fill="#000000" font-family="sans-serif" font-size="13" font-style="italic" lengthAdjust="spacing" textLength="199.894" x="266.3809" y="231.9883">push/v1/notifyEncrypted/batch</text></g><g class="message" data-participant-1="NotificationService" data-participant-2="Fachdienst"><line style="stroke:#181818;stroke-width:1;" x1="216.1968" x2="226.1968" y1="266.041" y2="262.041"/><line style="stroke:#181818;stroke-width:1;" x1="216.1968" x2="226.1968" y1="266.041" y2="270.041"/><line style="stroke:#181818;stroke-width:1;stroke-dasharray:2,2;" x1="215.1968" x2="477.2749" y1="266.041" y2="266.041"/><text fill="#000000" font-family="sans-serif" font-size="13" lengthAdjust="spacing" textLength="38.2256" x="232.1968" y="261.2988">status</text></g><g class="message" data-participant-1="NotificationService" data-participant-2="NotificationProvider"><polygon fill="#181818" points="576.1563,291.3516,586.1563,295.3516,576.1563,299.3516,580.1563,295.3516" style="stroke:#181818;stroke-width:1;"/><line style="stroke:#181818;stroke-width:1;" x1="483.2749" x2="582.1563" y1="295.3516" y2="295.3516"/><text fill="#000000" font-family="sans-serif" font-size="13" lengthAdjust="spacing" textLength="67.5645" x="490.2749" y="290.6094">send_push</text></g><g class="message" data-participant-1="NotificationProvider" data-participant-2="App"><polygon fill="#181818" points="71.7354,320.6621,61.7354,324.6621,71.7354,328.6621,67.7354,324.6621" style="stroke:#181818;stroke-width:1;"/><line style="stroke:#181818;stroke-width:1;" x1="65.7354" x2="592.1563" y1="324.6621" y2="324.6621"/><text fill="#000000" font-family="sans-serif" font-size="13" lengthAdjust="spacing" textLength="30.9448" x="77.7354" y="319.9199">push</text></g><g class="message" data-participant-1="App" data-participant-2="App"><line style="stroke:#181818;stroke-width:1;" x1="60.7354" x2="102.7354" y1="353.9727" y2="353.9727"/><line style="stroke:#181818;stroke-width:1;" x1="102.7354" x2="102.7354" y1="353.9727" y2="366.9727"/><line style="stroke:#181818;stroke-width:1;" x1="61.7354" x2="102.7354" y1="366.9727" y2="366.9727"/><polygon fill="#181818" points="71.7354,362.9727,61.7354,366.9727,71.7354,370.9727,67.7354,366.9727" style="stroke:#181818;stroke-width:1;"/><text fill="#000000" font-family="sans-serif" font-size="13" lengthAdjust="spacing" textLength="125.4614" x="67.7354" y="349.2305">decrypt_notification</text></g><g class="message" data-participant-1="App" data-participant-2="App"><line style="stroke:#181818;stroke-width:1;" x1="60.7354" x2="102.7354" y1="396.2832" y2="396.2832"/><line style="stroke:#181818;stroke-width:1;" x1="102.7354" x2="102.7354" y1="396.2832" y2="409.2832"/><line style="stroke:#181818;stroke-width:1;" x1="61.7354" x2="102.7354" y1="409.2832" y2="409.2832"/><polygon fill="#181818" points="71.7354,405.2832,61.7354,409.2832,71.7354,413.2832,67.7354,409.2832" style="stroke:#181818;stroke-width:1;"/><text fill="#000000" font-family="sans-serif" font-size="13" lengthAdjust="spacing" textLength="110.9189" x="67.7354" y="391.541">show_notification</text></g><!--SRC=[XP8_RuCm4CLtVmet8r9YTUs0rA7DrY9HTKKkle1Li95z4F7jUoOgVn97ORDvztllplU4DRJ0AsWbwbz-ShRbXuFe-hPXJ9Pe7T-zg-yTbvw_TXq3Wnf7kfDbhJGOZzElvJWhijxN_2WHpdASD1yMzKcNv6DD3cxG9SnYGZSWZjPM3To8CsS7hS0nLZdRTpm7emATSVeMPxvFrwSN3WFX2tIwggWuYAaXFL2aTTv745EwiSEY1Uzb1H5vf2-gIvBiC_zA4YvecBuMmxCmGJY-NO2Wn8_4iXPYcomsfI28kUptwLLQZn9xFnKekDTj59L6HnwGDEsY-n_tYXfBUh-N-H6l4ynM587MW1mVcItxi74Bwnak0cHcARWydrdLtwfyRSzR2JNDLlQ1_GS0]--></g></svg>