<svg xmlns="http://www.w3.org/2000/svg" xmlns:xlink="http://www.w3.org/1999/xlink" contentStyleType="text/css" data-diagram-type="CLASS" height="228px" preserveAspectRatio="none" style="width:652px;height:228px;background:#FFFFFF;" version="1.1" viewBox="0 0 652 228" width="652px" zoomAndPan="magnify"><defs/><g><!--class Konto--><g id="elem_Konto"><rect codeLine="5" fill="#F1F1F1" height="97.4648" id="Konto" rx="2.5" ry="2.5" style="stroke:#181818;stroke-width:0.5;" width="97.7158" x="27" y="68.22"/><ellipse cx="53.4535" cy="84.22" fill="#ADD1B2" rx="11" ry="11" style="stroke:#181818;stroke-width:1;"/><path d="M57.0677,90.72 L49.348,90.72 L49.348,78.3269 L57.0677,78.3269 L57.0677,80.4851 L51.7967,80.4851 L51.7967,83.158 L56.5697,83.158 L56.5697,85.3162 L51.7967,85.3162 L51.7967,88.5618 L57.0677,88.5618 Z " fill="#000000"/><text fill="#000000" font-family="sans-serif" font-size="14" lengthAdjust="spacing" textLength="40.2637" x="69.9987" y="89.511">Konto</text><line style="stroke:#181818;stroke-width:0.5;" x1="28" x2="123.7158" y1="100.22" y2="100.22"/><text fill="#000000" font-family="sans-serif" font-size="14" lengthAdjust="spacing" textLength="78.2715" x="33" y="117.7552">kvnr: string</text><text fill="#000000" font-family="sans-serif" font-size="14" lengthAdjust="spacing" textLength="85.7158" x="33" y="134.2434">name: string</text><text fill="#000000" font-family="sans-serif" font-size="14" lengthAdjust="spacing" textLength="13.2891" x="33" y="150.7317">...</text><line style="stroke:#181818;stroke-width:0.5;" x1="28" x2="123.7158" y1="157.6848" y2="157.6848"/></g><!--class Channel--><g id="elem_Channel"><rect codeLine="11" fill="#F1F1F1" height="97.4648" id="Channel" rx="2.5" ry="2.5" style="stroke:#181818;stroke-width:0.5;" width="273.748" x="356.98" y="68.22"/><ellipse cx="461.939" cy="84.22" fill="#ADD1B2" rx="11" ry="11" style="stroke:#181818;stroke-width:1;"/><path d="M465.5532,90.72 L457.8335,90.72 L457.8335,78.3269 L465.5532,78.3269 L465.5532,80.4851 L460.2822,80.4851 L460.2822,83.158 L465.0552,83.158 L465.0552,85.3162 L460.2822,85.3162 L460.2822,88.5618 L465.5532,88.5618 Z " fill="#000000"/><text fill="#000000" font-family="sans-serif" font-size="14" lengthAdjust="spacing" textLength="55.3301" x="482.439" y="89.511">Channel</text><line style="stroke:#181818;stroke-width:0.5;" x1="357.98" x2="629.728" y1="100.22" y2="100.22"/><text fill="#000000" font-family="sans-serif" font-size="14" lengthAdjust="spacing" textLength="61.2842" x="362.98" y="117.7552">id: string</text><text fill="#000000" font-family="sans-serif" font-size="14" lengthAdjust="spacing" textLength="85.7158" x="362.98" y="134.2434">name: string</text><text fill="#000000" font-family="sans-serif" font-size="14" lengthAdjust="spacing" textLength="261.748" x="362.98" y="150.7317">status: ["active", "inactive", "unknown"]</text><line style="stroke:#181818;stroke-width:0.5;" x1="357.98" x2="629.728" y1="157.6848" y2="157.6848"/></g><!--class Pusher--><g id="elem_Pusher"><rect codeLine="17" fill="#F1F1F1" height="179.9063" id="Pusher" rx="2.5" ry="2.5" style="stroke:#181818;stroke-width:0.5;" width="132.2578" x="174.73" y="27"/><ellipse cx="214.2449" cy="43" fill="#ADD1B2" rx="11" ry="11" style="stroke:#181818;stroke-width:1;"/><path d="M217.8592,49.5 L210.1394,49.5 L210.1394,37.1069 L217.8592,37.1069 L217.8592,39.2651 L212.5882,39.2651 L212.5882,41.938 L217.3611,41.938 L217.3611,44.0962 L212.5882,44.0962 L212.5882,47.3418 L217.8592,47.3418 Z " fill="#000000"/><text fill="#000000" font-family="sans-serif" font-size="14" lengthAdjust="spacing" textLength="45.7803" x="233.6926" y="48.291">Pusher</text><line style="stroke:#181818;stroke-width:0.5;" x1="175.73" x2="305.9878" y1="59" y2="59"/><text fill="#000000" font-family="sans-serif" font-size="14" lengthAdjust="spacing" textLength="61.2842" x="180.73" y="76.5352">id: string</text><text fill="#000000" font-family="sans-serif" font-size="14" lengthAdjust="spacing" textLength="85.7158" x="180.73" y="93.0234">name: string</text><text fill="#000000" font-family="sans-serif" font-size="14" lengthAdjust="spacing" textLength="120.2578" x="180.73" y="109.5117">pushtoken: string</text><text fill="#000000" font-family="sans-serif" font-size="14" lengthAdjust="spacing" textLength="43.8457" x="180.73" y="126">keys: {</text><text fill="#000000" font-family="sans-serif" font-size="14" lengthAdjust="spacing" textLength="92.709" x="180.73" y="142.4883">month: string</text><text fill="#000000" font-family="sans-serif" font-size="14" lengthAdjust="spacing" textLength="61.667" x="180.73" y="158.9766">key: data</text><text fill="#000000" font-family="sans-serif" font-size="14" lengthAdjust="spacing" textLength="11.8945" x="180.73" y="175.4648">\}</text><text fill="#000000" font-family="sans-serif" font-size="14" lengthAdjust="spacing" textLength="13.2891" x="180.73" y="191.9531">...</text><line style="stroke:#181818;stroke-width:0.5;" x1="175.73" x2="305.9878" y1="198.9063" y2="198.9063"/></g><!--link Konto to Pusher--><g id="link_Konto_Pusher"><path codeLine="28" d="M124.92,116.91 C140.4,116.91 157.78,116.91 174.27,116.91 " fill="#FFFFFF" fill-opacity="0.00000" id="Konto-Pusher" style="stroke:#181818;stroke-width:1;"/><text fill="#000000" font-family="sans-serif" font-size="13" lengthAdjust="spacing" textLength="8.2202" x="132.7297" y="113.3934">1</text><text fill="#000000" font-family="sans-serif" font-size="13" lengthAdjust="spacing" textLength="8.0679" x="158.5531" y="113.6703">n</text></g><!--link Pusher to Channel--><g id="link_Pusher_Channel"><path codeLine="30" d="M307.33,116.91 C322.7,116.91 339.62,116.91 356.79,116.91 " fill="#FFFFFF" fill-opacity="0.00000" id="Pusher-Channel" style="stroke:#181818;stroke-width:1;"/><text fill="#000000" font-family="sans-serif" font-size="13" lengthAdjust="spacing" textLength="8.2202" x="315.0498" y="113.6703">1</text><text fill="#000000" font-family="sans-serif" font-size="13" lengthAdjust="spacing" textLength="8.0679" x="341.0774" y="114.0744">n</text></g><!--SRC=[ZL2nhi8m3Dpz5IOpXCV0qfMHXHqOB6fe5E9KYTidXFXt2aGFkZpXoJhV-SwUQCE1ySI1r7ayfXZGsddRXJD0zavQIXHGOisPMrp-0B2eqmkkesZ4A-1GlfTKOTRavFG4X0AF06ijtFwqguP4-5pKhlvVcvMqonLk3HtKzMocQ9oy-qwyn5yn-m-7JPSRJbyQj0DPesSPePulW-bhmwF2S70pOXHMXJKfFP7TxVFQrulCmk0CZPWI2g24Um_AF-0E]--></g></svg>