<svg xmlns="http://www.w3.org/2000/svg" xmlns:xlink="http://www.w3.org/1999/xlink" contentStyleType="text/css" data-diagram-type="CLASS" height="313px" preserveAspectRatio="none" style="width:578px;height:313px;background:#FFFFFF;" version="1.1" viewBox="0 0 578 313" width="578px" zoomAndPan="magnify"><defs/><g><!--class Konto--><g id="elem_Konto"><rect codeLine="5" fill="#F1F1F1" height="48" id="Konto" rx="2.5" ry="2.5" style="stroke:#181818;stroke-width:0.5;" width="72.2637" x="27" y="135"/><ellipse cx="42" cy="151" fill="#ADD1B2" rx="11" ry="11" style="stroke:#181818;stroke-width:1;"/><path d="M45.6143,157.5 L37.8945,157.5 L37.8945,145.1069 L45.6143,145.1069 L45.6143,147.2651 L40.3433,147.2651 L40.3433,149.938 L45.1162,149.938 L45.1162,152.0962 L40.3433,152.0962 L40.3433,155.3418 L45.6143,155.3418 Z " fill="#000000"/><text fill="#000000" font-family="sans-serif" font-size="14" lengthAdjust="spacing" textLength="40.2637" x="56" y="156.291">Konto</text><line style="stroke:#181818;stroke-width:0.5;" x1="28" x2="98.2637" y1="167" y2="167"/><line style="stroke:#181818;stroke-width:0.5;" x1="28" x2="98.2637" y1="175" y2="175"/></g><!--class Inhaber--><g id="elem_Inhaber"><rect codeLine="7" fill="#F1F1F1" height="48" id="Inhaber" rx="2.5" ry="2.5" style="stroke:#181818;stroke-width:0.5;" width="83.4814" x="83.39" y="27"/><ellipse cx="98.39" cy="43" fill="#ADD1B2" rx="11" ry="11" style="stroke:#181818;stroke-width:1;"/><path d="M102.0043,49.5 L94.2845,49.5 L94.2845,37.1069 L102.0043,37.1069 L102.0043,39.2651 L96.7333,39.2651 L96.7333,41.938 L101.5062,41.938 L101.5062,44.0962 L96.7333,44.0962 L96.7333,47.3418 L102.0043,47.3418 Z " fill="#000000"/><text fill="#000000" font-family="sans-serif" font-size="14" lengthAdjust="spacing" textLength="51.4814" x="112.39" y="48.291">Inhaber</text><line style="stroke:#181818;stroke-width:0.5;" x1="84.39" x2="165.8714" y1="59" y2="59"/><line style="stroke:#181818;stroke-width:0.5;" x1="84.39" x2="165.8714" y1="67" y2="67"/></g><!--class Pusher--><g id="elem_Pusher"><rect codeLine="9" fill="#F1F1F1" height="48" id="Pusher" rx="2.5" ry="2.5" style="stroke:#181818;stroke-width:0.5;" width="77.7803" x="149.24" y="135"/><ellipse cx="164.24" cy="151" fill="#ADD1B2" rx="11" ry="11" style="stroke:#181818;stroke-width:1;"/><path d="M167.8543,157.5 L160.1345,157.5 L160.1345,145.1069 L167.8543,145.1069 L167.8543,147.2651 L162.5833,147.2651 L162.5833,149.938 L167.3562,149.938 L167.3562,152.0962 L162.5833,152.0962 L162.5833,155.3418 L167.8543,155.3418 Z " fill="#000000"/><text fill="#000000" font-family="sans-serif" font-size="14" lengthAdjust="spacing" textLength="45.7803" x="178.24" y="156.291">Pusher</text><line style="stroke:#181818;stroke-width:0.5;" x1="150.24" x2="226.0203" y1="167" y2="167"/><line style="stroke:#181818;stroke-width:0.5;" x1="150.24" x2="226.0203" y1="175" y2="175"/></g><!--class Vertreter--><g id="elem_Vertreter"><rect codeLine="11" fill="#F1F1F1" height="48" id="Vertreter" rx="2.5" ry="2.5" style="stroke:#181818;stroke-width:0.5;" width="92.2109" x="79.03" y="243"/><ellipse cx="94.03" cy="259" fill="#ADD1B2" rx="11" ry="11" style="stroke:#181818;stroke-width:1;"/><path d="M97.6443,265.5 L89.9245,265.5 L89.9245,253.1069 L97.6443,253.1069 L97.6443,255.2651 L92.3733,255.2651 L92.3733,257.938 L97.1462,257.938 L97.1462,260.0962 L92.3733,260.0962 L92.3733,263.3418 L97.6443,263.3418 Z " fill="#000000"/><text fill="#000000" font-family="sans-serif" font-size="14" lengthAdjust="spacing" textLength="60.2109" x="108.03" y="264.291">Vertreter</text><line style="stroke:#181818;stroke-width:0.5;" x1="80.03" x2="170.2409" y1="275" y2="275"/><line style="stroke:#181818;stroke-width:0.5;" x1="80.03" x2="170.2409" y1="283" y2="283"/></g><!--class Fachdienst--><g id="elem_Fachdienst"><rect codeLine="13" fill="#F1F1F1" height="48" id="Fachdienst" rx="2.5" ry="2.5" style="stroke:#181818;stroke-width:0.5;" width="104.8164" x="276.72" y="135"/><ellipse cx="291.72" cy="151" fill="#ADD1B2" rx="11" ry="11" style="stroke:#181818;stroke-width:1;"/><path d="M295.3343,157.5 L287.6145,157.5 L287.6145,145.1069 L295.3343,145.1069 L295.3343,147.2651 L290.0633,147.2651 L290.0633,149.938 L294.8362,149.938 L294.8362,152.0962 L290.0633,152.0962 L290.0633,155.3418 L295.3343,155.3418 Z " fill="#000000"/><text fill="#000000" font-family="sans-serif" font-size="14" lengthAdjust="spacing" textLength="72.8164" x="305.72" y="156.291">Fachdienst</text><line style="stroke:#181818;stroke-width:0.5;" x1="277.72" x2="380.5364" y1="167" y2="167"/><line style="stroke:#181818;stroke-width:0.5;" x1="277.72" x2="380.5364" y1="175" y2="175"/></g><!--class PushGateway--><g id="elem_PushGateway"><rect codeLine="15" fill="#F1F1F1" height="48" id="PushGateway" rx="2.5" ry="2.5" style="stroke:#181818;stroke-width:0.5;" width="125.3994" x="431.43" y="135"/><ellipse cx="446.43" cy="151" fill="#ADD1B2" rx="11" ry="11" style="stroke:#181818;stroke-width:1;"/><path d="M450.0443,157.5 L442.3245,157.5 L442.3245,145.1069 L450.0443,145.1069 L450.0443,147.2651 L444.7733,147.2651 L444.7733,149.938 L449.5462,149.938 L449.5462,152.0962 L444.7733,152.0962 L444.7733,155.3418 L450.0443,155.3418 Z " fill="#000000"/><text fill="#000000" font-family="sans-serif" font-size="14" lengthAdjust="spacing" textLength="93.3994" x="460.43" y="156.291">Push Gateway</text><line style="stroke:#181818;stroke-width:0.5;" x1="432.43" x2="555.8294" y1="167" y2="167"/><line style="stroke:#181818;stroke-width:0.5;" x1="432.43" x2="555.8294" y1="175" y2="175"/></g><!--link Inhaber to Konto--><g id="link_Inhaber_Konto"><path codeLine="17" d="M91.33,75.24 C91.33,93.02 91.33,117.08 91.33,134.84 " fill="transparent" id="Inhaber-Konto" style="stroke:#181818;stroke-width:1;"/><text fill="#000000" font-family="sans-serif" font-size="13" lengthAdjust="spacing" textLength="8.2202" x="65.1955" y="95.5828">1</text></g><!--link Inhaber to Pusher--><g id="link_Inhaber_Pusher"><path codeLine="18" d="M158.06,75.24 C158.06,93.02 158.06,117.08 158.06,134.84 " fill="transparent" id="Inhaber-Pusher" style="stroke:#181818;stroke-width:1;"/><text fill="#000000" font-family="sans-serif" font-size="13" lengthAdjust="spacing" textLength="8.2202" x="143.7173" y="95.5828">1</text><text fill="#000000" font-family="sans-serif" font-size="13" lengthAdjust="spacing" textLength="6.2651" x="143.6197" y="124.3353">*</text></g><!--link Konto to Vertreter--><g id="link_Konto_Vertreter"><path codeLine="19" d="M89.15,183.24 C89.15,201.02 89.15,225.08 89.15,242.84 " fill="transparent" id="Konto-Vertreter" style="stroke:#181818;stroke-width:1;"/></g><!--link Pusher to Vertreter--><g id="link_Pusher_Vertreter"><path codeLine="20" d="M160.24,183.24 C160.24,201.02 160.24,225.08 160.24,242.84 " fill="transparent" id="Pusher-Vertreter" style="stroke:#181818;stroke-width:1;"/><text fill="#000000" font-family="sans-serif" font-size="13" lengthAdjust="spacing" textLength="6.2651" x="146.7428" y="203.5828">*</text></g><!--link Konto to Pusher--><!--link Pusher to Fachdienst--><g id="link_Pusher_Fachdienst"><path codeLine="25" d="M227.41,159 C242.56,159 260.13,159 276.36,159 " fill="transparent" id="Pusher-Fachdienst" style="stroke:#181818;stroke-width:1;"/><text fill="#000000" font-family="sans-serif" font-size="13" lengthAdjust="spacing" textLength="8.2202" x="235.1388" y="155.2601">1</text><text fill="#000000" font-family="sans-serif" font-size="13" lengthAdjust="spacing" textLength="8.2202" x="260.3925" y="155.5355">1</text></g><!--link Fachdienst to PushGateway--><g id="link_Fachdienst_PushGateway"><path codeLine="26" d="M381.79,159 C397.45,159 414.76,159 431.01,159 " fill="transparent" id="Fachdienst-PushGateway" style="stroke:#181818;stroke-width:1;"/><text fill="#000000" font-family="sans-serif" font-size="13" lengthAdjust="spacing" textLength="6.2651" x="389.6361" y="155.5355">*</text><text fill="#000000" font-family="sans-serif" font-size="13" lengthAdjust="spacing" textLength="6.2651" x="416.9678" y="155.6732">*</text></g><!--SRC=[LP31hi8W44NtynKZ6nCJ-dJXBsYC6rTkNju2PHIYG0FJ6FFYlsjRsk8E3lTUxioC3Jd2Apd5zeQN61nMrK_Tk3j0kbbVgwWS-g0fKOth9G1vjlp4VV0SyFyrWfqtwaInH8SccMzofCYH-1jkrDbeIpvnIKNhngrYUgYdG9Mwk7plX7q5sTGInGfH31LWgDBI3vOwFFn7in2vqU3i-TW9fdPzw6I0-JYVlDE5VutLclnVwSwXqLvDyJu4v5s8bSWIsPsdsQ5OG_lpgCejykJm1W00]--></g></svg>