<svg xmlns="http://www.w3.org/2000/svg" xmlns:xlink="http://www.w3.org/1999/xlink" contentStyleType="text/css" data-diagram-type="DESCRIPTION" height="330px" preserveAspectRatio="none" style="width:741px;height:330px;background:#FFFFFF;" version="1.1" viewBox="0 0 741 330" width="741px" zoomAndPan="magnify"><defs/><g><!--cluster Apple/Google--><g id="cluster_Apple/Google"><path d="M35.7099,36.319 C38.2427,30.5122 43.6015,28.7424 47.7352,34.6797 C51.4906,28.5992 56.1621,28.6939 59.7983,34.7977 C62.9484,28.5915 68.4377,28.6164 71.8433,34.5442 C75.3629,27.632 79.5584,26.8902 84.7469,32.8742 C88.9745,26.0277 93.6079,27.7885 97.5826,33.1404 C100.6257,27.497 106.0038,28.841 108.7717,33.441 C112.5459,27.5169 116.6972,26.9008 121.4038,32.4109 C125.4809,26.4996 130.3705,26 134.4279,32.4316 C138.2225,27.5908 143.4571,27.6029 146.6093,33.1826 C151.3416,28.0156 156.006,28.106 159.4755,34.5785 C163.1568,30.4835 168.2156,30.0748 170.3118,36.2508 C174.9076,30.4537 179.7062,29.3736 183.6406,36.9119 C188.4217,40.7908 188.3205,45.1636 183.4558,48.8937 C189.8414,53.3206 189.4835,57.7565 183.8949,62.5678 C190.2153,65.9178 191.1873,72.1473 185.3581,76.7507 C191.8744,80.2266 192.0611,86.7462 185.5288,90.3853 C192.2758,94.8953 191.7804,100.0314 184.5102,103.4485 C191.2035,108.7264 191.0432,114.6201 182.7516,118.0993 C179.8307,123.2114 176.1746,123.9267 172.2493,119.1679 C169.1735,124.1162 163.2427,125.5294 160.0263,119.3221 C155.6526,124.972 150.7346,125.2398 146.6569,118.9896 C143.2532,126.6415 138.9681,127.1959 133.2568,121.2663 C130.5926,126.1894 126.3887,126.8032 122.6601,122.487 C118.2326,127.859 113.4981,128.5309 109.368,122.1508 C105.9493,126.9429 101.6221,128.4826 97.8352,122.5465 C93.0628,128.3387 87.9084,127.9766 85.3204,120.488 C80.3186,127.0981 75.9094,125.5808 71.893,119.4497 C68.4568,124.6073 65.0627,125.559 61.0899,119.9902 C56.0442,124.7635 51.1228,124.0894 47.7806,117.9186 C43.7048,124.4522 38.7189,124.4576 34.8961,117.6739 C29.1423,112.9416 29.1433,108.035 35.4229,103.7583 C29.498,99.657 29.153,93.7939 35.5606,89.8144 C29.3397,85.3878 27.2271,81.0498 34.3109,75.4646 C28.8767,72.0773 27.798,67.1219 34.1636,63.5883 C27.1296,58.6212 26,53.8341 34.0815,48.7832 C29.247,44.1776 29.1268,39.433 35.7099,36.319 " fill="transparent" style="stroke:#181818;stroke-width:1;"/><text fill="#000000" font-family="sans-serif" font-size="14" font-weight="bold" lengthAdjust="spacing" textLength="99.8457" x="58.5863" y="53.2486">Apple/Google</text></g><!--cluster App Developer--><g id="cluster_App Developer"><path d="M308.0092,26.7134 L415.6361,26.7134 A3.75,3.75 0 0 1 418.1361,29.2134 L425.1361,49.2017 L475.0092,49.2017 A2.5,2.5 0 0 1 477.5092,51.7017 L477.5092,305.6734 A2.5,2.5 0 0 1 475.0092,308.1734 L308.0092,308.1734 A2.5,2.5 0 0 1 305.5092,305.6734 L305.5092,29.2134 A2.5,2.5 0 0 1 308.0092,26.7134 " fill="transparent" style="stroke:#000000;stroke-width:1.5;"/><line style="stroke:#000000;stroke-width:1.5;" x1="305.5092" x2="425.1361" y1="49.2017" y2="49.2017"/><text fill="#000000" font-family="sans-serif" font-size="14" font-weight="bold" lengthAdjust="spacing" textLength="106.627" x="309.5092" y="42.2486">App Developer</text></g><!--entity PushProvider--><g id="elem_PushProvider"><rect fill="#F1F1F1" height="46.4883" rx="2.5" ry="2.5" style="stroke:#181818;stroke-width:0.5;" width="132.3809" x="42.3192" y="61.7134"/><rect fill="#F1F1F1" height="10" style="stroke:#181818;stroke-width:0.5;" width="15" x="154.7" y="66.7134"/><rect fill="#F1F1F1" height="2" style="stroke:#181818;stroke-width:0.5;" width="4" x="152.7" y="68.7134"/><rect fill="#F1F1F1" height="2" style="stroke:#181818;stroke-width:0.5;" width="4" x="152.7" y="72.7134"/><text fill="#000000" font-family="sans-serif" font-size="14" lengthAdjust="spacing" textLength="92.3809" x="57.3192" y="95.2486">Push Provider</text></g><!--entity PushGateway--><g id="elem_PushGateway"><rect fill="#F1F1F1" height="46.4883" rx="2.5" ry="2.5" style="stroke:#181818;stroke-width:0.5;" width="133.3994" x="324.8092" y="61.7134"/><rect fill="#F1F1F1" height="10" style="stroke:#181818;stroke-width:0.5;" width="15" x="438.2086" y="66.7134"/><rect fill="#F1F1F1" height="2" style="stroke:#181818;stroke-width:0.5;" width="4" x="436.2086" y="68.7134"/><rect fill="#F1F1F1" height="2" style="stroke:#181818;stroke-width:0.5;" width="4" x="436.2086" y="72.7134"/><text fill="#000000" font-family="sans-serif" font-size="14" lengthAdjust="spacing" textLength="93.3994" x="339.8092" y="95.2486">Push Gateway</text></g><!--entity MobileDevice--><g id="elem_MobileDevice"><rect fill="#F1F1F1" height="62.9766" rx="2.5" ry="2.5" style="stroke:#181818;stroke-width:0.5;" width="139.0186" x="321.9992" y="229.1934"/><rect fill="#F1F1F1" height="10" style="stroke:#181818;stroke-width:0.5;" width="15" x="441.0177" y="234.1934"/><rect fill="#F1F1F1" height="2" style="stroke:#181818;stroke-width:0.5;" width="4" x="439.0177" y="236.1934"/><rect fill="#F1F1F1" height="2" style="stroke:#181818;stroke-width:0.5;" width="4" x="439.0177" y="240.1934"/><text fill="#000000" font-family="sans-serif" font-size="14" lengthAdjust="spacing" textLength="25.4707" x="336.9992" y="262.7286">FdV</text><text fill="#000000" font-family="sans-serif" font-size="14" lengthAdjust="spacing" textLength="99.0186" x="336.9992" y="279.2168">(MobileDevice)</text></g><!--entity Fachdienst--><g id="elem_Fachdienst"><rect fill="#F1F1F1" height="46.4883" rx="2.5" ry="2.5" style="stroke:#181818;stroke-width:0.5;" width="112.8164" x="608.0992" y="61.7134"/><rect fill="#F1F1F1" height="10" style="stroke:#181818;stroke-width:0.5;" width="15" x="700.9156" y="66.7134"/><rect fill="#F1F1F1" height="2" style="stroke:#181818;stroke-width:0.5;" width="4" x="698.9156" y="68.7134"/><rect fill="#F1F1F1" height="2" style="stroke:#181818;stroke-width:0.5;" width="4" x="698.9156" y="72.7134"/><text fill="#000000" font-family="sans-serif" font-size="14" lengthAdjust="spacing" textLength="72.8164" x="623.0992" y="95.2486">Fachdienst</text></g><!--reverse link PushProvider to PushGateway--><g id="link_PushProvider_PushGateway"><path d="M180.8592,85.1734 C225.9492,85.1734 279.3792,85.1734 324.5892,85.1734 " fill="transparent" id="PushProvider-backto-PushGateway" style="stroke:#181818;stroke-width:1;"/><polygon fill="#181818" points="174.8592,85.1734,183.8592,89.1734,179.8592,85.1734,183.8592,81.1734,174.8592,85.1734" style="stroke:#181818;stroke-width:1;"/><text fill="#000000" font-family="sans-serif" font-size="13" lengthAdjust="spacing" textLength="23.6514" x="257.6647" y="98.7418">FdV</text><text fill="#000000" font-family="sans-serif" font-size="13" lengthAdjust="spacing" textLength="77.0225" x="230.9792" y="114.0523">spezifisches</text><text fill="#000000" font-family="sans-serif" font-size="13" lengthAdjust="spacing" textLength="38.3271" x="250.3268" y="129.3629">Secret</text></g><!--link PushProvider to MobileDevice--><g id="link_PushProvider_MobileDevice"><path d="M108.5092,114.3534 C108.5092,162.2934 108.5092,261.1734 108.5092,261.1734 C108.5092,261.1734 231.7492,261.1734 315.5492,261.1734 " fill="transparent" id="PushProvider-MobileDevice" style="stroke:#181818;stroke-width:1;stroke-dasharray:7.0,7.0;"/><polygon fill="#181818" points="108.5092,108.3534,104.5092,117.3534,108.5092,113.3534,112.5092,117.3534,108.5092,108.3534" style="stroke:#181818;stroke-width:1;"/><polygon fill="#181818" points="321.5492,261.1734,312.5492,257.1734,316.5492,261.1734,312.5492,265.1734,321.5492,261.1734" style="stroke:#181818;stroke-width:1;"/></g><!--link PushGateway to MobileDevice--><!--link Fachdienst to MobileDevice--><g id="link_Fachdienst_MobileDevice"><path d="M664.5092,114.3534 C664.5092,162.2934 664.5092,261.1734 664.5092,261.1734 C664.5092,261.1734 548.3492,261.1734 467.4592,261.1734 " fill="transparent" id="Fachdienst-MobileDevice" style="stroke:#181818;stroke-width:1;"/><polygon fill="#181818" points="664.5092,108.3534,660.5092,117.3534,664.5092,113.3534,668.5092,117.3534,664.5092,108.3534" style="stroke:#181818;stroke-width:1;"/><polygon fill="#181818" points="461.4592,261.1734,470.4592,265.1734,466.4592,261.1734,470.4592,257.1734,461.4592,261.1734" style="stroke:#181818;stroke-width:1;"/><text fill="#000000" font-family="sans-serif" font-size="13" lengthAdjust="spacing" textLength="67.6152" x="554.1248" y="227.7418">Fachdienst</text><text fill="#000000" font-family="sans-serif" font-size="13" lengthAdjust="spacing" textLength="70.3955" x="552.7346" y="243.0523">spezifische</text><text fill="#000000" font-family="sans-serif" font-size="13" lengthAdjust="spacing" textLength="101.0864" x="537.3892" y="258.3629">Authentisierung</text></g><!--link Fachdienst to PushGateway--><g id="link_Fachdienst_PushGateway"><path d="M601.6092,85.1734 C558.1692,85.1734 510.1892,85.1734 464.4392,85.1734 " fill="transparent" id="Fachdienst-PushGateway" style="stroke:#181818;stroke-width:1;"/><polygon fill="#181818" points="607.6092,85.1734,598.6092,81.1734,602.6092,85.1734,598.6092,89.1734,607.6092,85.1734" style="stroke:#181818;stroke-width:1;"/><polygon fill="#181818" points="458.4392,85.1734,467.4392,89.1734,463.4392,85.1734,467.4392,81.1734,458.4392,85.1734" style="stroke:#181818;stroke-width:1;"/><text fill="#000000" font-family="sans-serif" font-size="13" lengthAdjust="spacing" textLength="34.29" x="497.9354" y="81.7418">mTLS</text></g><!--SRC=[TP7DJiCm48Jl-nHBBeL3MgZ41Q5AbL1x0QaY5HV2mTZRn4hyezWf0iIxuuJIngNav8p7tyxOPxuaHLYGObvMk6cCml5uObjL0xXAQiiQfb0RGOuiNbrV0l3Qj0AJkRKrJPR653Kb-0aOFcwKDPgqnsJLkX9NZTbAGKs2p66d_0hm1M0PhrX1FGdlQ4kriPtrD6h9FBsnzprfzt_iNOYdN9y_c5TPKs1AJXVzaQ7I3HyWCArfuzDP511lTYndwKDkfECbkLndn1lo2S2GXxTfQyVnUHX58tzAh4r5EWdss1g7UIwb4AHVqZGE3OUM2yPB8Kax3t1O1sue4KtjIkpteowvdhVXxRMNJbBJwYA9IRFX9NUStAlrVHQQZ_1Ka6dG1u1XY_zCqoxmSTv7AgJp_VqDdN_oPAH5By4t]--></g></svg>