<svg xmlns="http://www.w3.org/2000/svg" xmlns:xlink="http://www.w3.org/1999/xlink" contentStyleType="text/css" height="314px" preserveAspectRatio="none" style="width:762px;height:314px;background:#FFFFFF;" version="1.1" viewBox="0 0 762 314" width="762px" zoomAndPan="magnify"><defs/><g><!--cluster Apple/Google--><g id="cluster_Apple/Google"><path d="M35.7109,36.7675 C38.2436,30.9607 43.6024,29.1908 47.7361,35.1281 C51.4915,29.0477 56.163,29.1424 59.7992,35.2462 C62.9494,29.04 68.4386,29.0649 71.8442,34.9926 C75.3638,28.0805 79.5593,27.3387 84.7479,33.3227 C88.9754,26.4761 93.6088,28.237 97.5835,33.5888 C100.6266,27.9454 106.0047,29.2895 108.7727,33.8895 C112.5469,27.9654 116.6981,27.3493 121.4047,32.8593 C125.4818,26.9481 130.3714,26.4485 134.4288,32.88 C138.2234,28.0392 143.458,28.0513 146.6102,33.6311 C151.3425,28.464 156.0069,28.5545 159.4764,35.027 C163.1577,30.9319 168.2165,30.5233 170.3127,36.6993 C174.9085,30.9022 179.7072,29.822 183.6415,37.3604 C188.4232,41.2398 188.3221,45.6132 183.4567,49.3439 C189.843,53.7713 189.4851,58.2077 183.8958,63.0196 C190.2169,66.3701 191.189,72.6003 185.359,77.2042 C191.8761,80.6805 192.0628,87.2009 185.5297,90.8405 C192.2776,95.351 191.7822,100.4877 184.5112,103.9053 C191.2052,109.1837 191.045,115.0781 182.7525,118.5577 C179.8316,123.6699 176.1755,124.3852 172.2502,119.6264 C169.1745,124.5747 163.2436,125.9879 160.0272,119.7805 C155.6535,125.4305 150.7355,125.6983 146.6578,119.4481 C143.2541,127.1 138.969,127.6544 133.2578,121.7248 C130.5935,126.6479 126.3896,127.2617 122.661,122.9455 C118.2335,128.3175 113.499,128.9894 109.3689,122.6092 C105.9502,127.4014 101.623,128.9411 97.8361,123.005 C93.0637,128.7972 87.9093,128.4351 85.3213,120.9465 C80.3195,127.5566 75.9104,126.0393 71.8939,119.9082 C68.4577,125.0658 65.0636,126.0175 61.0908,120.4486 C56.0452,125.222 51.1237,124.5479 47.7815,118.3771 C43.7058,124.9107 38.7198,124.9161 34.897,118.1324 C29.1425,113.3996 29.1435,108.4923 35.4238,104.2151 C29.4982,100.1134 29.1531,94.2495 35.5615,90.2695 C29.34,85.8424 27.2271,81.5039 34.3118,75.918 C28.8769,72.5303 27.798,67.5742 34.1645,64.0401 C27.1297,59.0725 26,54.2848 34.0825,49.2334 C29.2472,44.6272 29.1269,39.882 35.7109,36.7675 " fill="none" style="stroke:#181818;stroke-width:1;"/><text fill="#000000" font-family="sans-serif" font-size="14" font-weight="bold" lengthAdjust="spacing" textLength="99.8457" x="58.5872" y="53.697">Apple/Google</text></g><!--cluster App Developer--><g id="cluster_App Developer"><path d="M311.0101,27.1619 L418.637,27.1619 A3.75,3.75 0 0 1 421.137,29.6619 L428.137,49.6502 L472.0101,49.6502 A2.5,2.5 0 0 1 474.5101,52.1502 L474.5101,289.6419 A2.5,2.5 0 0 1 472.0101,292.1419 L311.0101,292.1419 A2.5,2.5 0 0 1 308.5101,289.6419 L308.5101,29.6619 A2.5,2.5 0 0 1 311.0101,27.1619 " fill="none" style="stroke:#000000;stroke-width:1.5;"/><line style="stroke:#000000;stroke-width:1.5;" x1="308.5101" x2="428.137" y1="49.6502" y2="49.6502"/><text fill="#000000" font-family="sans-serif" font-size="14" font-weight="bold" lengthAdjust="spacing" textLength="106.627" x="312.5101" y="42.697">App Developer</text></g><!--cluster TI--><g id="cluster_TI"><path d="M600.8509,35.8744 C606.027,28.3498 610.2698,29.1595 614.9825,36.3204 C619.1484,29.8401 623.3888,29.3408 627.925,35.9544 C629.7545,29.2827 634.8969,28.4355 639.0231,33.8445 C643.8579,27.0952 648.1972,26.5741 652.7979,34.0709 C656.3712,28.7885 660.7347,28.3053 665.0975,33.1082 C669.1322,26.8305 674.8335,28.0031 678.3099,33.7231 C681.7311,28.7113 686.704,27.2652 690.4052,33.4198 C695.5493,26 701.5804,28.5527 704.9718,35.2309 C708.4159,29.4857 712.1047,30.1926 716.2184,34.4803 C721.1687,28.1871 725.4867,28.7346 729.1424,35.7386 C736.9247,38.7362 736.7294,46.3402 730.905,50.9178 C736.3844,53.2557 736.9042,58.9628 732.3301,62.534 C739.9431,66.3213 740.0606,72.7503 733.6397,77.7457 C739.0761,82.3992 737.41,86.409 732.0694,89.6395 C739.4384,93.4746 737.5932,100.241 731.5569,103.5833 C739.1687,108.6473 738.0877,114.1329 730.4819,118.0674 C726.4596,125.5783 721.4268,124.5449 716.6769,118.8267 C713.5064,124.402 709.9828,126.3888 704.9897,120.7212 C701.7324,127.2016 695.3467,127.5005 691.4175,121.4488 C687.5039,127.6197 683.5883,126.9 679.0829,122.115 C675.7612,129.0424 671.7344,130.9649 665.6276,125.028 C660.4982,130.2367 656.5075,129.0693 653.543,122.7571 C649.1194,128.6952 644.4368,127.8201 640.9894,121.7375 C636.441,127.2093 630.9642,127.6846 627.8376,120.2848 C623.0999,126.3076 617.5775,125.917 613.6945,119.3265 C609.1577,124.6092 605.1558,125.3953 601.4101,118.5268 C593.5078,115.0651 592.5851,109.4094 599.5679,104.0532 C593.2537,101.9265 592.0976,95.7655 596.578,91.1395 C588.7476,88.38 589.3441,83.037 594.0079,77.8594 C587.5114,72.1404 588.9952,65.9137 597.13,63.341 C591.9134,58.4735 593.2797,52.623 599.4822,49.7286 C593.8169,44.8953 594.3351,39.5042 600.8509,35.8744 " fill="none" style="stroke:#181818;stroke-width:1;"/><text fill="#000000" font-family="sans-serif" font-size="14" font-weight="bold" lengthAdjust="spacing" textLength="14.3008" x="657.3597" y="53.697">TI</text></g><!--entity PushProvider--><g id="elem_PushProvider"><rect fill="#F1F1F1" height="46.4883" rx="2.5" ry="2.5" style="stroke:#181818;stroke-width:0.5;" width="132.3809" x="42.3201" y="62.1619"/><rect fill="#F1F1F1" height="10" style="stroke:#181818;stroke-width:0.5;" width="15" x="154.7009" y="67.1619"/><rect fill="#F1F1F1" height="2" style="stroke:#181818;stroke-width:0.5;" width="4" x="152.7009" y="69.1619"/><rect fill="#F1F1F1" height="2" style="stroke:#181818;stroke-width:0.5;" width="4" x="152.7009" y="73.1619"/><text fill="#000000" font-family="sans-serif" font-size="14" lengthAdjust="spacing" textLength="92.3809" x="57.3201" y="95.697">Push Provider</text></g><!--entity PushGateway--><g id="elem_PushGateway"><rect fill="#F1F1F1" height="46.4883" rx="2.5" ry="2.5" style="stroke:#181818;stroke-width:0.5;" width="133.3994" x="324.8101" y="62.1619"/><rect fill="#F1F1F1" height="10" style="stroke:#181818;stroke-width:0.5;" width="15" x="438.2095" y="67.1619"/><rect fill="#F1F1F1" height="2" style="stroke:#181818;stroke-width:0.5;" width="4" x="436.2095" y="69.1619"/><rect fill="#F1F1F1" height="2" style="stroke:#181818;stroke-width:0.5;" width="4" x="436.2095" y="73.1619"/><text fill="#000000" font-family="sans-serif" font-size="14" lengthAdjust="spacing" textLength="93.3994" x="339.8101" y="95.697">Push Gateway</text></g><!--entity MobileDevice--><g id="elem_MobileDevice"><rect fill="#F1F1F1" height="46.4883" rx="2.5" ry="2.5" style="stroke:#181818;stroke-width:0.5;" width="134.3428" x="324.3401" y="229.6519"/><rect fill="#F1F1F1" height="10" style="stroke:#181818;stroke-width:0.5;" width="15" x="438.6828" y="234.6519"/><rect fill="#F1F1F1" height="2" style="stroke:#181818;stroke-width:0.5;" width="4" x="436.6828" y="236.6519"/><rect fill="#F1F1F1" height="2" style="stroke:#181818;stroke-width:0.5;" width="4" x="436.6828" y="240.6519"/><text fill="#000000" font-family="sans-serif" font-size="14" lengthAdjust="spacing" textLength="94.3428" x="339.3401" y="263.187">Mobile Device</text></g><!--entity Fachdienst--><g id="elem_Fachdienst"><rect fill="#F1F1F1" height="46.4883" rx="2.5" ry="2.5" style="stroke:#181818;stroke-width:0.5;" width="112.8164" x="608.1001" y="62.1619"/><rect fill="#F1F1F1" height="10" style="stroke:#181818;stroke-width:0.5;" width="15" x="700.9165" y="67.1619"/><rect fill="#F1F1F1" height="2" style="stroke:#181818;stroke-width:0.5;" width="4" x="698.9165" y="69.1619"/><rect fill="#F1F1F1" height="2" style="stroke:#181818;stroke-width:0.5;" width="4" x="698.9165" y="73.1619"/><text fill="#000000" font-family="sans-serif" font-size="14" lengthAdjust="spacing" textLength="72.8164" x="623.1001" y="95.697">Fachdienst</text></g><!--reverse link PushProvider to PushGateway--><g id="link_PushProvider_PushGateway"><path d="M180.8601,85.4119 C225.9501,85.4119 279.3801,85.4119 324.5901,85.4119 " fill="none" id="PushProvider-backto-PushGateway" style="stroke:#181818;stroke-width:1;"/><polygon fill="#181818" points="174.8601,85.4119,183.8601,89.4119,179.8601,85.4119,183.8601,81.4119,174.8601,85.4119" style="stroke:#181818;stroke-width:1;"/></g><!--link PushProvider to MobileDevice--><g id="link_PushProvider_MobileDevice"><path d="M108.5101,115.0519 C108.5101,161.2219 108.5101,252.9019 108.5101,252.9019 C108.5101,252.9019 234.3801,252.9019 318.0801,252.9019 " fill="none" id="PushProvider-MobileDevice" style="stroke:#181818;stroke-width:1;stroke-dasharray:7.0,7.0;"/><polygon fill="#181818" points="108.5101,109.0519,104.5101,118.0519,108.5101,114.0519,112.5101,118.0519,108.5101,109.0519" style="stroke:#181818;stroke-width:1;"/><polygon fill="#181818" points="324.0801,252.9019,315.0801,248.9019,319.0801,252.9019,315.0801,256.9019,324.0801,252.9019" style="stroke:#181818;stroke-width:1;"/></g><!--link PushGateway to MobileDevice--><!--reverse link Fachdienst to MobileDevice--><g id="link_Fachdienst_MobileDevice"><path d="M664.5101,115.0519 C664.5101,161.2219 664.5101,252.9019 664.5101,252.9019 C664.5101,252.9019 539.8401,252.9019 458.9901,252.9019 " fill="none" id="Fachdienst-backto-MobileDevice" style="stroke:#181818;stroke-width:1;"/><polygon fill="#181818" points="664.5101,109.0519,660.5101,118.0519,664.5101,114.0519,668.5101,118.0519,664.5101,109.0519" style="stroke:#181818;stroke-width:1;"/><text fill="#000000" font-family="sans-serif" font-size="13" lengthAdjust="spacing" textLength="51.3779" x="581.6701" y="249.4702">Register</text></g><!--link Fachdienst to PushGateway--><g id="link_Fachdienst_PushGateway"><path d="M607.6101,85.4119 C564.1701,85.4119 510.1901,85.4119 464.4401,85.4119 " fill="none" id="Fachdienst-to-PushGateway" style="stroke:#181818;stroke-width:1;"/><polygon fill="#181818" points="458.4401,85.4119,467.4401,89.4119,463.4401,85.4119,467.4401,81.4119,458.4401,85.4119" style="stroke:#181818;stroke-width:1;"/><text fill="#000000" font-family="sans-serif" font-size="13" lengthAdjust="spacing" textLength="64.5557" x="542.1863" y="98.9802">Send Push</text></g><!--SRC=[RP3DJiCm48JlVeh5TwTmu58X92H4nG6f0cx0mTZJn8h_53j52F7kr6a3IQblEvhzPjPdkO43rN0ocvOsNN1KLOlOEyjOQesFifEEVD18Y7HnUSwOig7Nn6zYj5YiGgWjE7qnsZqLN0mUFXDVzwcXTHUsHgFZ91CLPHJODsDHgbRM64XqYoriYCLw6hMI6H_oyvTqc8-z3-7TM1ISKHZCUsKlbDZ9CWcBJHRNysfika5Nee_LiMF6U6cCrl1lGiopnezwllz_qvrKZJRmAPTAVzCkRawX9JsYDYcZewdlK7eiiIJ-cf_WzQ1ozWC0]--></g></svg>