<svg xmlns="http://www.w3.org/2000/svg" xmlns:xlink="http://www.w3.org/1999/xlink" contentStyleType="text/css" height="313px" preserveAspectRatio="none" style="width:641px;height:313px;background:#FFFFFF;" version="1.1" viewBox="0 0 641 313" width="641px" zoomAndPan="magnify"><defs/><g><!--cluster Apple/Google--><g id="cluster_Apple/Google"><path d="M35.7109,36.319 C38.2436,30.5122 43.6024,28.7424 47.7361,34.6797 C51.4915,28.5992 56.163,28.6939 59.7992,34.7977 C62.9494,28.5915 68.4386,28.6164 71.8442,34.5442 C75.3638,27.632 79.5593,26.8902 84.7479,32.8742 C88.9754,26.0277 93.6088,27.7885 97.5835,33.1404 C100.6266,27.497 106.0047,28.841 108.7727,33.441 C112.5469,27.5169 116.6981,26.9008 121.4047,32.4109 C125.4818,26.4996 130.3714,26 134.4288,32.4316 C138.2234,27.5908 143.458,27.6029 146.6102,33.1826 C151.3425,28.0156 156.0069,28.106 159.4764,34.5785 C163.1577,30.4835 168.2165,30.0748 170.3127,36.2508 C174.9085,30.4537 179.7072,29.3736 183.6415,36.9119 C188.4232,40.7913 188.3221,45.1647 183.4567,48.8954 C189.843,53.3228 189.4851,57.7592 183.8958,62.5711 C190.2169,65.9216 191.189,72.1518 185.359,76.7557 C191.8761,80.232 192.0628,86.7524 185.5297,90.392 C192.2776,94.9025 191.7822,100.0393 184.5112,103.4568 C191.2052,108.7352 191.045,114.6296 182.7525,118.1093 C179.8316,123.2214 176.1755,123.9367 172.2502,119.1779 C169.1745,124.1262 163.2436,125.5394 160.0272,119.3321 C155.6535,124.982 150.7355,125.2498 146.6578,118.9996 C143.2541,126.6515 138.969,127.2059 133.2578,121.2763 C130.5935,126.1994 126.3896,126.8132 122.661,122.497 C118.2335,127.869 113.499,128.5409 109.3689,122.1608 C105.9502,126.9529 101.623,128.4926 97.8361,122.5565 C93.0637,128.3487 87.9093,127.9866 85.3213,120.498 C80.3195,127.1081 75.9104,125.5908 71.8939,119.4597 C68.4577,124.6173 65.0636,125.569 61.0908,120.0002 C56.0452,124.7735 51.1237,124.0994 47.7815,117.9286 C43.7058,124.4622 38.7198,124.4676 34.897,117.6839 C29.1425,112.9511 29.1435,108.0439 35.4238,103.7666 C29.4982,99.6649 29.1531,93.801 35.5615,89.8211 C29.34,85.3939 27.2271,81.0554 34.3118,75.4696 C28.8769,72.0819 27.798,67.1257 34.1645,63.5916 C27.1297,58.624 26,53.8363 34.0825,48.7849 C29.2472,44.1787 29.1269,39.4335 35.7109,36.319 " fill="none" style="stroke:#181818;stroke-width:1;"/><text fill="#000000" font-family="sans-serif" font-size="14" font-weight="bold" lengthAdjust="spacing" textLength="99.8457" x="58.5872" y="53.2486">Apple/Google</text></g><!--cluster App Developer--><g id="cluster_App Developer"><path d="M261.0101,26.7134 L368.637,26.7134 A3.75,3.75 0 0 1 371.137,29.2134 L378.137,49.2017 L422.0101,49.2017 A2.5,2.5 0 0 1 424.5101,51.7017 L424.5101,289.1934 A2.5,2.5 0 0 1 422.0101,291.6934 L261.0101,291.6934 A2.5,2.5 0 0 1 258.5101,289.1934 L258.5101,29.2134 A2.5,2.5 0 0 1 261.0101,26.7134 " fill="none" style="stroke:#000000;stroke-width:1.5;"/><line style="stroke:#000000;stroke-width:1.5;" x1="258.5101" x2="378.137" y1="49.2017" y2="49.2017"/><text fill="#000000" font-family="sans-serif" font-size="14" font-weight="bold" lengthAdjust="spacing" textLength="106.627" x="262.5101" y="42.2486">App Developer</text></g><!--entity PushProvider--><g id="elem_PushProvider"><rect fill="#F1F1F1" height="46.4883" rx="2.5" ry="2.5" style="stroke:#181818;stroke-width:0.5;" width="132.3809" x="42.3201" y="61.7134"/><rect fill="#F1F1F1" height="10" style="stroke:#181818;stroke-width:0.5;" width="15" x="154.7009" y="66.7134"/><rect fill="#F1F1F1" height="2" style="stroke:#181818;stroke-width:0.5;" width="4" x="152.7009" y="68.7134"/><rect fill="#F1F1F1" height="2" style="stroke:#181818;stroke-width:0.5;" width="4" x="152.7009" y="72.7134"/><text fill="#000000" font-family="sans-serif" font-size="14" lengthAdjust="spacing" textLength="92.3809" x="57.3201" y="95.2486">Push Provider</text></g><!--entity PushGateway--><g id="elem_PushGateway"><rect fill="#F1F1F1" height="46.4883" rx="2.5" ry="2.5" style="stroke:#181818;stroke-width:0.5;" width="133.3994" x="274.8101" y="61.7134"/><rect fill="#F1F1F1" height="10" style="stroke:#181818;stroke-width:0.5;" width="15" x="388.2095" y="66.7134"/><rect fill="#F1F1F1" height="2" style="stroke:#181818;stroke-width:0.5;" width="4" x="386.2095" y="68.7134"/><rect fill="#F1F1F1" height="2" style="stroke:#181818;stroke-width:0.5;" width="4" x="386.2095" y="72.7134"/><text fill="#000000" font-family="sans-serif" font-size="14" lengthAdjust="spacing" textLength="93.3994" x="289.8101" y="95.2486">Push Gateway</text></g><!--entity MobileDevice--><g id="elem_MobileDevice"><rect fill="#F1F1F1" height="46.4883" rx="2.5" ry="2.5" style="stroke:#181818;stroke-width:0.5;" width="129.9131" x="276.5501" y="229.2034"/><rect fill="#F1F1F1" height="10" style="stroke:#181818;stroke-width:0.5;" width="15" x="386.4632" y="234.2034"/><rect fill="#F1F1F1" height="2" style="stroke:#181818;stroke-width:0.5;" width="4" x="384.4632" y="236.2034"/><rect fill="#F1F1F1" height="2" style="stroke:#181818;stroke-width:0.5;" width="4" x="384.4632" y="240.2034"/><text fill="#000000" font-family="sans-serif" font-size="14" lengthAdjust="spacing" textLength="89.9131" x="291.5501" y="262.7386">MobileDevice</text></g><!--entity Fachdienst--><g id="elem_Fachdienst"><rect fill="#F1F1F1" height="46.4883" rx="2.5" ry="2.5" style="stroke:#181818;stroke-width:0.5;" width="112.8164" x="508.1001" y="61.7134"/><rect fill="#F1F1F1" height="10" style="stroke:#181818;stroke-width:0.5;" width="15" x="600.9165" y="66.7134"/><rect fill="#F1F1F1" height="2" style="stroke:#181818;stroke-width:0.5;" width="4" x="598.9165" y="68.7134"/><rect fill="#F1F1F1" height="2" style="stroke:#181818;stroke-width:0.5;" width="4" x="598.9165" y="72.7134"/><text fill="#000000" font-family="sans-serif" font-size="14" lengthAdjust="spacing" textLength="72.8164" x="523.1001" y="95.2486">Fachdienst</text></g><!--reverse link PushProvider to PushGateway--><g id="link_PushProvider_PushGateway"><path d="M180.9701,84.9634 C212.1701,84.9634 243.2901,84.9634 274.5601,84.9634 " fill="none" id="PushProvider-backto-PushGateway" style="stroke:#181818;stroke-width:1;"/><polygon fill="#181818" points="174.9701,84.9634,183.9701,88.9634,179.9701,84.9634,183.9701,80.9634,174.9701,84.9634" style="stroke:#181818;stroke-width:1;"/><text fill="#000000" font-family="sans-serif" font-size="13" lengthAdjust="spacing" textLength="51.7207" x="215.2261" y="98.5318">Provider</text><text fill="#000000" font-family="sans-serif" font-size="13" lengthAdjust="spacing" textLength="63.1528" x="209.5101" y="113.8423">spezifisch</text></g><!--link PushProvider to MobileDevice--><g id="link_PushProvider_MobileDevice"><path d="M108.5101,114.6034 C108.5101,160.7734 108.5101,252.4534 108.5101,252.4534 C108.5101,252.4534 201.3701,252.4534 270.3001,252.4534 " fill="none" id="PushProvider-MobileDevice" style="stroke:#181818;stroke-width:1;stroke-dasharray:7.0,7.0;"/><polygon fill="#181818" points="108.5101,108.6034,104.5101,117.6034,108.5101,113.6034,112.5101,117.6034,108.5101,108.6034" style="stroke:#181818;stroke-width:1;"/><polygon fill="#181818" points="276.3001,252.4534,267.3001,248.4534,271.3001,252.4534,267.3001,256.4534,276.3001,252.4534" style="stroke:#181818;stroke-width:1;"/></g><!--link PushGateway to MobileDevice--><!--link Fachdienst to MobileDevice--><g id="link_Fachdienst_MobileDevice"><path d="M564.5101,114.6034 C564.5101,160.7734 564.5101,252.4534 564.5101,252.4534 C564.5101,252.4534 478.7101,252.4534 412.9101,252.4534 " fill="none" id="Fachdienst-MobileDevice" style="stroke:#181818;stroke-width:1;"/><polygon fill="#181818" points="564.5101,108.6034,560.5101,117.6034,564.5101,113.6034,568.5101,117.6034,564.5101,108.6034" style="stroke:#181818;stroke-width:1;"/><polygon fill="#181818" points="406.9101,252.4534,415.9101,256.4534,411.9101,252.4534,415.9101,248.4534,406.9101,252.4534" style="stroke:#181818;stroke-width:1;"/><text fill="#000000" font-family="sans-serif" font-size="13" lengthAdjust="spacing" textLength="67.6152" x="472.3657" y="219.0218">Fachdienst</text><text fill="#000000" font-family="sans-serif" font-size="13" lengthAdjust="spacing" textLength="70.3955" x="470.9755" y="234.3323">spezifische</text><text fill="#000000" font-family="sans-serif" font-size="13" lengthAdjust="spacing" textLength="101.0864" x="455.6301" y="249.6429">Authentisierung</text></g><!--link Fachdienst to PushGateway--><g id="link_Fachdienst_PushGateway"><path d="M501.6601,84.9634 C471.4601,84.9634 446.1601,84.9634 414.5601,84.9634 " fill="none" id="Fachdienst-PushGateway" style="stroke:#181818;stroke-width:1;"/><polygon fill="#181818" points="507.6601,84.9634,498.6601,80.9634,502.6601,84.9634,498.6601,88.9634,507.6601,84.9634" style="stroke:#181818;stroke-width:1;"/><polygon fill="#181818" points="408.5601,84.9634,417.5601,88.9634,413.5601,84.9634,417.5601,80.9634,408.5601,84.9634" style="stroke:#181818;stroke-width:1;"/><text fill="#000000" font-family="sans-serif" font-size="13" lengthAdjust="spacing" textLength="34.29" x="457.5163" y="98.5318">mTLS</text></g><!--SRC=[TP4zJyCm48Rt-nM7bqvfIqU4AbL2T06fejqeWuclYHL_ANQA0F7VSKeXTbioEUVNpprdNuMQD655cWVPuAwr6iVZYUkq0l2DD8wtNAEnWZmvl9vE0KfbEu5iuPoYoTBQIX73Jy3ubLOxQyW4PAlErxXgxLuAQXboZttbjm1V08wN3Q_eGC8xsfEohezUHYrve3V-_aSw_fza7-shL1HXigI-HvB4Gj4k5FFC0syY_hZU6k_eG-waBsi6aABmjkZSE3yAewpRZ-R6DcHOZEVHtEEvbaAGUIcAt1U6EUvvMGj9nWU0OHsvqJ_h6ls7_NG2sff55r_N1EabjPsfM4wQfzVOSxP1RnxMSV8HNXAPnNe2IAVuBpJhXKzzdwYIFXpkBqsU-Qp9Y4C9lW40]--></g></svg>