<svg xmlns="http://www.w3.org/2000/svg" xmlns:xlink="http://www.w3.org/1999/xlink" contentStyleType="text/css" data-diagram-type="DESCRIPTION" height="364px" preserveAspectRatio="none" style="width:761px;height:364px;background:#FFFFFF;" version="1.1" viewBox="0 0 761 364" width="761px" zoomAndPan="magnify"><defs/><g><!--cluster Apple/Google--><g id="cluster_Apple/Google"><path d="M35.7099,70.2347 C38.2427,64.4279 43.6015,62.658 47.7352,68.5953 C51.4906,62.5148 56.1621,62.6096 59.7983,68.7133 C62.9484,62.5071 68.4377,62.532 71.8433,68.4598 C75.3629,61.5477 79.5584,60.8059 84.7469,66.7899 C88.9745,59.9433 93.6079,61.7042 97.5826,67.056 C100.6257,61.4126 106.0038,62.7567 108.7717,67.3566 C112.5459,61.4325 116.6972,60.8165 121.4038,66.3265 C125.4809,60.4152 130.3705,59.9156 134.4279,66.3472 C138.2225,61.5064 143.4571,61.5185 146.6093,67.0982 C151.3416,61.9312 156.006,62.0217 159.4755,68.4941 C163.1568,64.3991 168.2156,63.9904 170.3118,70.1664 C174.9076,64.3694 179.7062,63.2892 183.6406,70.8275 C188.4217,74.7064 188.3205,79.0792 183.4558,82.8094 C189.8414,87.2362 189.4835,91.6721 183.8949,96.4834 C190.2153,99.8335 191.1873,106.0629 185.3581,110.6664 C191.8744,114.1422 192.0611,120.6618 185.5288,124.301 C192.2758,128.811 191.7804,133.9471 184.5102,137.3642 C191.2035,142.642 191.0432,148.5357 182.7516,152.0149 C179.8307,157.127 176.1746,157.8423 172.2493,153.0835 C169.1735,158.0318 163.2427,159.4451 160.0263,153.2377 C155.6526,158.8876 150.7346,159.1554 146.6569,152.9052 C143.2532,160.5572 138.9681,161.1116 133.2568,155.1819 C130.5926,160.1051 126.3887,160.7188 122.6601,156.4027 C118.2326,161.7747 113.4981,162.4465 109.368,156.0664 C105.9493,160.8586 101.6221,162.3983 97.8352,156.4621 C93.0628,162.2544 87.9084,161.8923 85.3204,154.4037 C80.3186,161.0137 75.9094,159.4964 71.893,153.3653 C68.4568,158.523 65.0627,159.4746 61.0899,153.9058 C56.0442,158.6792 51.1228,158.0051 47.7806,151.8342 C43.7048,158.3679 38.7189,158.3732 34.8961,151.5895 C29.1423,146.8573 29.1433,141.9506 35.4229,137.6739 C29.498,133.5727 29.153,127.7095 35.5606,123.73 C29.3397,119.3035 27.2271,114.9655 34.3109,109.3802 C28.8767,105.993 27.798,101.0375 34.1636,97.5039 C27.1296,92.5369 26,87.7497 34.0815,82.6989 C29.247,78.0932 29.1268,73.3486 35.7099,70.2347 " fill="transparent" style="stroke:#181818;stroke-width:1;"/><text fill="#000000" font-family="sans-serif" font-size="14" font-weight="bold" lengthAdjust="spacing" textLength="99.8457" x="58.5863" y="87.1642">Apple/Google</text></g><!--cluster App Developer--><g id="cluster_App Developer"><path d="M306.0092,60.6291 L413.6361,60.6291 A3.75,3.75 0 0 1 416.1361,63.1291 L423.1361,83.1173 L477.0092,83.1173 A2.5,2.5 0 0 1 479.5092,85.6173 L479.5092,339.5891 A2.5,2.5 0 0 1 477.0092,342.0891 L306.0092,342.0891 A2.5,2.5 0 0 1 303.5092,339.5891 L303.5092,63.1291 A2.5,2.5 0 0 1 306.0092,60.6291 " fill="transparent" style="stroke:#000000;stroke-width:1.5;"/><line style="stroke:#000000;stroke-width:1.5;" x1="303.5092" x2="423.1361" y1="83.1173" y2="83.1173"/><text fill="#000000" font-family="sans-serif" font-size="14" font-weight="bold" lengthAdjust="spacing" textLength="106.627" x="307.5092" y="76.1642">App Developer</text></g><!--cluster innerhalb o.\nau?erhalb\nTI--><g id="cluster_innerhalb o.\nau&#223;erhalb\nTI"><path d="M607.8596,37.0145 C611.1273,29.66 615.2585,30.0027 620.3262,35.2312 C623.8902,29.4243 628.5649,28.8476 632.3114,35.049 C634.5926,29.0483 637.9759,28.4552 642.6398,32.6307 C646.1488,26.789 650.0704,27.0603 653.9898,32.2067 C657.1259,27.4848 661.4402,26.7862 665.1877,31.4796 C669.2145,26 673.3209,26.4958 677.3963,31.4226 C681.3192,26.6717 685.8391,26.6554 688.4759,32.7379 C693.767,27.3651 697.6208,27.836 700.6049,34.9745 C704.9909,30.176 708.8992,31.1409 712.1178,36.3214 C719.4547,31.253 726.7352,33.241 728.5092,42.6291 C729.7629,42.7887 730.302,43.6793 729.5786,44.8089 C735.472,46.7064 735.9872,52.2451 731.6628,56.0389 C737.0965,60.9568 737.8251,65.3877 730.6816,69.3806 C736.7407,72.7098 736.484,77.6706 731.4816,81.7171 C737.7016,84.1493 738.7495,90.0249 734.1383,94.6773 C739.0549,98.9499 739.9425,104.1747 732.9378,107.3148 C737.804,110.6675 736.9799,115.8265 731.8432,118.1707 C738.4007,123.4927 736.3467,128.5062 729.8361,131.9206 C735.8679,140.7643 733.1097,149.3377 721.5092,150.1091 C721.9093,149.8354 722.1577,150.015 722.1991,150.4555 C720.0859,157.1237 714.682,156.7471 710.8458,152.1996 C707.8457,157.1323 703.4291,157.8296 700.08,152.5683 C697.4921,158.7752 694.0325,159.9033 688.9632,155.066 C685.6812,161.2829 681.1144,160.2642 677.2049,155.7537 C675.449,162.5354 669.6422,163.2996 665.6831,157.8249 C660.7738,161.9545 656.5839,160.8278 653.8577,155.1835 C650.1363,160.8382 645.501,160.01 642.1704,154.7645 C638.5351,160.1294 632.8724,159.1995 630.3562,153.5626 C626.949,158.2381 622.3738,157.3541 620.7997,151.8429 C611.2717,157.9328 602.085,155.4935 600.5092,143.1091 C601.4469,142.283 602.451,142.8103 602.6726,143.9125 C595.0563,141.872 594.4474,137.0967 599.0141,131.4732 C592.4695,128.1448 592.3451,123.919 597.3555,119.0481 C589.4953,115.4456 589.3685,110.358 596.1419,105.4495 C589.9206,101.9749 590.5662,97.1693 595.5109,93.1231 C589.8694,88.8229 589.8803,84.8623 595.5778,80.6229 C590.8127,76.0094 592.9314,69.9166 598.8583,68.1051 C594.1556,64.1925 593.7056,60.7821 598.8964,56.9032 C590.155,46.6978 595.4026,37.3942 607.5092,35.6291 C608.2161,35.8512 608.3354,36.4932 607.8596,37.0145 " fill="transparent" style="stroke:#181818;stroke-width:1;"/><text fill="#000000" font-family="sans-serif" font-size="14" font-weight="bold" lengthAdjust="spacing" textLength="85.7773" x="621.6205" y="54.1642">innerhalb o.</text><text fill="#000000" font-family="sans-serif" font-size="14" font-weight="bold" lengthAdjust="spacing" textLength="72.502" x="628.2582" y="70.6525">au&#223;erhalb</text><text fill="#000000" font-family="sans-serif" font-size="14" font-weight="bold" lengthAdjust="spacing" textLength="14.3008" x="657.3588" y="87.1408">TI</text></g><!--entity PushProvider--><g id="elem_PushProvider"><rect fill="#F1F1F1" height="46.4883" rx="2.5" ry="2.5" style="stroke:#181818;stroke-width:0.5;" width="132.3809" x="42.3192" y="95.6291"/><rect fill="#F1F1F1" height="10" style="stroke:#181818;stroke-width:0.5;" width="15" x="154.7" y="100.6291"/><rect fill="#F1F1F1" height="2" style="stroke:#181818;stroke-width:0.5;" width="4" x="152.7" y="102.6291"/><rect fill="#F1F1F1" height="2" style="stroke:#181818;stroke-width:0.5;" width="4" x="152.7" y="106.6291"/><text fill="#000000" font-family="sans-serif" font-size="14" lengthAdjust="spacing" textLength="92.3809" x="57.3192" y="129.1642">Push Provider</text></g><!--entity PushGateway--><g id="elem_PushGateway"><rect fill="#F1F1F1" height="46.4883" rx="2.5" ry="2.5" style="stroke:#181818;stroke-width:0.5;" width="133.3994" x="324.8092" y="95.6291"/><rect fill="#F1F1F1" height="10" style="stroke:#181818;stroke-width:0.5;" width="15" x="438.2086" y="100.6291"/><rect fill="#F1F1F1" height="2" style="stroke:#181818;stroke-width:0.5;" width="4" x="436.2086" y="102.6291"/><rect fill="#F1F1F1" height="2" style="stroke:#181818;stroke-width:0.5;" width="4" x="436.2086" y="106.6291"/><text fill="#000000" font-family="sans-serif" font-size="14" lengthAdjust="spacing" textLength="93.3994" x="339.8092" y="129.1642">Push Gateway</text></g><!--entity MobileDevice--><g id="elem_MobileDevice"><rect fill="#F1F1F1" height="62.9766" rx="2.5" ry="2.5" style="stroke:#181818;stroke-width:0.5;" width="143.4482" x="319.7892" y="263.1091"/><rect fill="#F1F1F1" height="10" style="stroke:#181818;stroke-width:0.5;" width="15" x="443.2374" y="268.1091"/><rect fill="#F1F1F1" height="2" style="stroke:#181818;stroke-width:0.5;" width="4" x="441.2374" y="270.1091"/><rect fill="#F1F1F1" height="2" style="stroke:#181818;stroke-width:0.5;" width="4" x="441.2374" y="274.1091"/><text fill="#000000" font-family="sans-serif" font-size="14" lengthAdjust="spacing" textLength="25.4707" x="334.7892" y="296.6442">FdV</text><text fill="#000000" font-family="sans-serif" font-size="14" lengthAdjust="spacing" textLength="103.4482" x="334.7892" y="313.1325">(Mobile Device)</text></g><!--entity Fachdienst--><g id="elem_Fachdienst"><rect fill="#F1F1F1" height="46.4883" rx="2.5" ry="2.5" style="stroke:#181818;stroke-width:0.5;" width="112.8164" x="608.0992" y="95.6291"/><rect fill="#F1F1F1" height="10" style="stroke:#181818;stroke-width:0.5;" width="15" x="700.9156" y="100.6291"/><rect fill="#F1F1F1" height="2" style="stroke:#181818;stroke-width:0.5;" width="4" x="698.9156" y="102.6291"/><rect fill="#F1F1F1" height="2" style="stroke:#181818;stroke-width:0.5;" width="4" x="698.9156" y="106.6291"/><text fill="#000000" font-family="sans-serif" font-size="14" lengthAdjust="spacing" textLength="72.8164" x="623.0992" y="129.1642">Fachdienst</text></g><!--reverse link PushProvider to PushGateway--><g id="link_PushProvider_PushGateway"><path d="M180.8592,119.0891 C225.9492,119.0891 279.3792,119.0891 324.5892,119.0891 " fill="transparent" id="PushProvider-backto-PushGateway" style="stroke:#181818;stroke-width:1;"/><polygon fill="#181818" points="174.8592,119.0891,183.8592,123.0891,179.8592,119.0891,183.8592,115.0891,174.8592,119.0891" style="stroke:#181818;stroke-width:1;"/></g><!--link PushProvider to MobileDevice--><g id="link_PushProvider_MobileDevice"><path d="M108.5092,148.2691 C108.5092,196.2091 108.5092,295.0891 108.5092,295.0891 C108.5092,295.0891 229.5192,295.0891 313.3592,295.0891 " fill="transparent" id="PushProvider-MobileDevice" style="stroke:#181818;stroke-width:1;stroke-dasharray:7.0,7.0;"/><polygon fill="#181818" points="108.5092,142.2691,104.5092,151.2691,108.5092,147.2691,112.5092,151.2691,108.5092,142.2691" style="stroke:#181818;stroke-width:1;"/><polygon fill="#181818" points="319.3592,295.0891,310.3592,291.0891,314.3592,295.0891,310.3592,299.0891,319.3592,295.0891" style="stroke:#181818;stroke-width:1;"/></g><!--link PushGateway to MobileDevice--><!--reverse link Fachdienst to MobileDevice--><g id="link_Fachdienst_MobileDevice"><path d="M664.5092,148.2691 C664.5092,196.2091 664.5092,295.0891 664.5092,295.0891 C664.5092,295.0891 544.4792,295.0891 463.5892,295.0891 " fill="transparent" id="Fachdienst-backto-MobileDevice" style="stroke:#181818;stroke-width:1;"/><polygon fill="#181818" points="664.5092,142.2691,660.5092,151.2691,664.5092,147.2691,668.5092,151.2691,664.5092,142.2691" style="stroke:#181818;stroke-width:1;"/><text fill="#000000" font-family="sans-serif" font-size="13" lengthAdjust="spacing" textLength="51.3779" x="588.4592" y="291.6574">Register</text></g><!--link Fachdienst to PushGateway--><g id="link_Fachdienst_PushGateway"><path d="M607.6092,119.0891 C564.1692,119.0891 510.1892,119.0891 464.4392,119.0891 " fill="transparent" id="Fachdienst-to-PushGateway" style="stroke:#181818;stroke-width:1;"/><polygon fill="#181818" points="458.4392,119.0891,467.4392,123.0891,463.4392,119.0891,467.4392,115.0891,458.4392,119.0891" style="stroke:#181818;stroke-width:1;"/><text fill="#000000" font-family="sans-serif" font-size="13" lengthAdjust="spacing" textLength="64.5557" x="542.1854" y="132.6574">Send Push</text></g><!--SRC=[XP3FIiGm4CRlUOen5_NGhWfU5X44sSM3iAXuiHwopMmRcan2cgw8-2m-Z2zc_sorhOlcDjzyyvjlSX1oD0WP6X5K0Hjl3SJnp5L6CrOMYfpmmW1PYIKwE3q_OIpLjfB0hvpJE5jQcsdayCQWVgarpX9I0BwgoXnMtcwLHCz1bD0elS3U6NCYBKI6BGckSOlQkiQw7xKK0L_4wpTfLq-z2_cOqD6jNIkD3LIbUDpET5AdDDi738WqRa9qEKx8XXDm4LKkdZf6ZATSIOdq74NZNVr_AIBqkT1hi752elhywCg47cv-7xqGQIuLKXdgi8Tx6sUiRWpAEkDuDSpX3ZDL1lGmiUwExSFFWIVX7acsAcVin_itTU3x1_a5]--></g></svg>