<svg xmlns="http://www.w3.org/2000/svg" xmlns:xlink="http://www.w3.org/1999/xlink" contentStyleType="text/css" data-diagram-type="DESCRIPTION" height="327px" preserveAspectRatio="none" style="width:599px;height:327px;background:#FFFFFF;" version="1.1" viewBox="0 0 599 327" width="599px" zoomAndPan="magnify"><defs/><g><!--cluster e.g. Apple/Google--><g id="cluster_e.g. Apple/Google"><path d="M35.7099,87.7662 C38.2427,81.9594 43.6015,80.1896 47.7352,86.1269 C51.4906,80.0464 56.1621,80.1411 59.7983,86.2449 C62.9484,80.0387 68.4377,80.0636 71.8433,85.9914 C75.3629,79.0792 79.5584,78.3374 84.7469,84.3215 C88.9745,77.4749 93.6079,79.2357 97.5826,84.5876 C100.6257,78.9442 106.0038,80.2882 108.7717,84.8882 C112.5459,78.9641 116.6972,78.348 121.4038,83.8581 C125.4809,77.9468 130.3705,77.4472 134.4279,83.8788 C138.2225,79.038 143.4571,79.0501 146.6093,84.6298 C151.3416,79.4628 156.006,79.5532 159.4755,86.0257 C163.1568,81.9307 168.2156,81.522 170.3118,87.698 C174.9076,81.9009 179.7062,80.8208 183.6406,88.3591 C188.4217,92.238 188.3205,96.6108 183.4558,100.3409 C189.8414,104.7678 189.4835,109.2037 183.8949,114.015 C190.2153,117.365 191.1873,123.5945 185.3581,128.1979 C191.8744,131.6738 192.0611,138.1934 185.5288,141.8325 C192.2758,146.3425 191.7804,151.4786 184.5102,154.8957 C191.2035,160.1736 191.0432,166.0673 182.7516,169.5465 C179.8307,174.6586 176.1746,175.3739 172.2493,170.6151 C169.1735,175.5634 163.2427,176.9766 160.0263,170.7693 C155.6526,176.4192 150.7346,176.687 146.6569,170.4368 C143.2532,178.0887 138.9681,178.6431 133.2568,172.7135 C130.5926,177.6366 126.3887,178.2504 122.6601,173.9342 C118.2326,179.3062 113.4981,179.9781 109.368,173.598 C105.9493,178.3901 101.6221,179.9298 97.8352,173.9937 C93.0628,179.7859 87.9084,179.4238 85.3204,171.9352 C80.3186,178.5453 75.9094,177.028 71.893,170.8969 C68.4568,176.0545 65.0627,177.0062 61.0899,171.4374 C56.0442,176.2107 51.1228,175.5366 47.7806,169.3658 C43.7048,175.8994 38.7189,175.9048 34.8961,169.1211 C29.1423,164.3888 29.1433,159.4822 35.4229,155.2055 C29.498,151.1042 29.153,145.2411 35.5606,141.2616 C29.3397,136.835 27.2271,132.497 34.3109,126.9118 C28.8767,123.5245 27.798,118.5691 34.1636,115.0355 C27.1296,110.0684 26,105.2813 34.0815,100.2304 C29.247,95.6248 29.1268,90.8802 35.7099,87.7662 " fill="#FFFFFF" fill-opacity="0.00000" style="stroke:#181818;stroke-width:1;"/><text fill="#000000" font-family="sans-serif" font-size="14" font-weight="bold" lengthAdjust="spacing" textLength="128.8164" x="44.101" y="104.6958">e.g. Apple/Google</text></g><!--cluster TI--><g id="cluster_TI"><path d="M233.8032,43.763 C239.3497,34.4773 249.7934,33.4286 255.9131,43.0942 C260.7614,34.2184 269.43,34.7882 275.0056,42.2441 C281.2436,29.2946 292.8628,29.5674 300.7431,40.4721 C307.5966,31.8951 315.6111,30.8475 322.1295,40.8577 C328.5503,31.7837 337.7818,30.5093 343.3875,41.7122 C350.1326,30.8414 359.6966,29.9406 367.3464,40.7106 C372.0839,30.1359 381.2034,27.0472 388.7347,37.9252 C397.569,27.6432 404.9573,26 412.3201,39.3912 C419.6995,28.4001 426.4116,28.6287 434.4764,38.6691 C441.7422,27.891 451.8192,29.0248 457.6306,40.203 C467.2463,30.3802 476.2056,32.8886 482.5241,44.1043 C488.7949,33.9456 496.7557,32.8777 505.128,41.5867 C513.039,32.0712 520.1182,35.8466 524.8755,44.9343 C536.7526,32.5077 546.5352,35.7236 553.5092,50.1606 C554.8081,50.3952 555.5121,51.5285 554.4102,52.6368 C566.9954,59.049 567.1982,66.5362 558.1362,76.3498 C568.0086,81.6403 571.2259,89.3962 561.459,97.7379 C573.9577,102.6513 573.8259,112.1566 564.0463,119.6952 C575.5099,125.2854 576.1543,135.5996 566.0694,143.0559 C577.3229,150.0638 577.3648,160.9818 566.9768,168.7538 C576.8565,175.2772 575.6634,183.7641 566.9903,190.2991 C575.8392,199.8802 573.0921,210.4787 560.9255,214.8733 C569.6997,221.1271 572.8454,229.2847 561.4076,235.9997 C571.3406,242.6039 570.2012,252.1485 559.8739,257.2934 C571.2683,274.6612 565.2796,282.9992 546.5092,286.6206 C547.0676,286.4128 547.5548,286.6923 547.3936,287.3532 C542.0369,296.4927 535.1259,298.0562 527.2533,290.3635 C520.3863,302.1374 511.308,302.6868 502.9172,292.0155 C494.6944,303.2866 485.6535,301.2713 480.0838,289.3982 C474.7357,302.4829 464.2086,303.6866 456.6627,291.4294 C449.7478,302.8516 442.8348,302.6721 434.6526,292.7353 C427.1367,303.4059 419.0625,304.4229 411.6292,292.6505 C405.6367,301.1016 398.9658,301.7694 392.3319,293.3856 C384.6514,305.6426 372.6,302.8308 366.3802,291.7606 C360.8145,301.106 350.3114,300.3891 345.2046,291.2353 C338.6532,301.0172 328.1416,300.2423 322.6523,290.037 C317.5867,300.2975 306.2877,302.1122 299.3127,292.2519 C290.8828,302.2972 283.6993,303.058 276.4718,291.0089 C267.7223,302.425 259.831,300.5039 253.085,288.9674 C240.2444,298.4998 226.9301,297.631 222.5092,279.6206 C224.8276,280.3389 225.0861,282.4655 223.2234,283.8842 C211.3536,277.1871 212.63,264.7872 223.5212,258.3556 C212.3014,250.7754 213.048,241.7232 224.1795,234.7668 C214.9816,229.2078 211.759,221.1554 222.2829,213.8114 C212.2607,206.8921 211.7557,197.8564 222.1735,190.8398 C211.1722,183.2097 208.8876,175.5894 220.2977,166.2497 C210.8858,162.0909 208.0902,152.1677 218.2157,146.0001 C206.5302,136.8265 207.4651,127.3139 221.459,121.5461 C210.9786,113.9737 209.5997,106.351 220.8678,98.2271 C211.3101,91.0665 213.701,82.2284 223.4148,77.4277 C209.2804,64.7125 212.5738,50.3501 229.5092,43.1606 C231.2643,41.5126 232.5737,41.6637 233.8032,43.763 " fill="#FFFFFF" fill-opacity="0.00000" style="stroke:#181818;stroke-width:1;"/><text fill="#000000" font-family="sans-serif" font-size="14" font-weight="bold" lengthAdjust="spacing" textLength="14.3008" x="380.8588" y="61.6958">TI</text></g><!--cluster App Developer--><g id="cluster_App Developer"><path d="M241.0092,78.1606 L348.6361,78.1606 A3.75,3.75 0 0 1 351.1361,80.6606 L358.1361,100.6489 L412.0092,100.6489 A2.5,2.5 0 0 1 414.5092,103.1489 L414.5092,268.1206 A2.5,2.5 0 0 1 412.0092,270.6206 L241.0092,270.6206 A2.5,2.5 0 0 1 238.5092,268.1206 L238.5092,80.6606 A2.5,2.5 0 0 1 241.0092,78.1606 " fill="#FFFFFF" fill-opacity="0.00000" style="stroke:#000000;stroke-width:1.5;"/><line style="stroke:#000000;stroke-width:1.5;" x1="238.5092" x2="358.1361" y1="100.6489" y2="100.6489"/><text fill="#000000" font-family="sans-serif" font-size="14" font-weight="bold" lengthAdjust="spacing" textLength="106.627" x="242.5092" y="93.6958">App Developer</text></g><!--entity PushProvider--><g id="elem_PushProvider"><rect fill="#F1F1F1" height="46.4883" rx="2.5" ry="2.5" style="stroke:#181818;stroke-width:0.5;" width="132.3809" x="42.3192" y="113.1606"/><rect fill="#F1F1F1" height="10" style="stroke:#181818;stroke-width:0.5;" width="15" x="154.7" y="118.1606"/><rect fill="#F1F1F1" height="2" style="stroke:#181818;stroke-width:0.5;" width="4" x="152.7" y="120.1606"/><rect fill="#F1F1F1" height="2" style="stroke:#181818;stroke-width:0.5;" width="4" x="152.7" y="124.1606"/><text fill="#000000" font-family="sans-serif" font-size="14" lengthAdjust="spacing" textLength="92.3809" x="57.3192" y="146.6958">Push Provider</text></g><!--entity Fachdienst--><g id="elem_Fachdienst"><rect fill="#F1F1F1" height="46.4883" rx="2.5" ry="2.5" style="stroke:#181818;stroke-width:0.5;" width="112.8164" x="433.0992" y="199.8906"/><rect fill="#F1F1F1" height="10" style="stroke:#181818;stroke-width:0.5;" width="15" x="525.9156" y="204.8906"/><rect fill="#F1F1F1" height="2" style="stroke:#181818;stroke-width:0.5;" width="4" x="523.9156" y="206.8906"/><rect fill="#F1F1F1" height="2" style="stroke:#181818;stroke-width:0.5;" width="4" x="523.9156" y="210.8906"/><text fill="#000000" font-family="sans-serif" font-size="14" lengthAdjust="spacing" textLength="72.8164" x="448.0992" y="233.4258">Fachdienst</text></g><!--entity PushGateway--><g id="elem_PushGateway"><rect fill="#F1F1F1" height="46.4883" rx="2.5" ry="2.5" style="stroke:#181818;stroke-width:0.5;" width="133.3994" x="259.8092" y="113.1606"/><rect fill="#F1F1F1" height="10" style="stroke:#181818;stroke-width:0.5;" width="15" x="373.2086" y="118.1606"/><rect fill="#F1F1F1" height="2" style="stroke:#181818;stroke-width:0.5;" width="4" x="371.2086" y="120.1606"/><rect fill="#F1F1F1" height="2" style="stroke:#181818;stroke-width:0.5;" width="4" x="371.2086" y="124.1606"/><text fill="#000000" font-family="sans-serif" font-size="14" lengthAdjust="spacing" textLength="93.3994" x="274.8092" y="146.6958">Push Gateway</text></g><!--entity MobileDevice--><g id="elem_MobileDevice"><rect fill="#F1F1F1" height="62.9766" rx="2.5" ry="2.5" style="stroke:#181818;stroke-width:0.5;" width="143.4482" x="254.7892" y="191.6406"/><rect fill="#F1F1F1" height="10" style="stroke:#181818;stroke-width:0.5;" width="15" x="378.2374" y="196.6406"/><rect fill="#F1F1F1" height="2" style="stroke:#181818;stroke-width:0.5;" width="4" x="376.2374" y="198.6406"/><rect fill="#F1F1F1" height="2" style="stroke:#181818;stroke-width:0.5;" width="4" x="376.2374" y="202.6406"/><text fill="#000000" font-family="sans-serif" font-size="14" lengthAdjust="spacing" textLength="25.4707" x="269.7892" y="225.1758">FdV</text><text fill="#000000" font-family="sans-serif" font-size="14" lengthAdjust="spacing" textLength="103.4482" x="269.7892" y="241.664">(Mobile Device)</text></g><!--reverse link PushProvider to PushGateway--><g id="link_PushProvider_PushGateway"><path d="M181.0992,136.6206 C207.8992,136.6206 232.7392,136.6206 259.5692,136.6206 " fill="#FFFFFF" fill-opacity="0.00000" id="PushProvider-backto-PushGateway" style="stroke:#181818;stroke-width:1;"/><polygon fill="#181818" points="175.0992,136.6206,184.0992,140.6206,180.0992,136.6206,184.0992,132.6206,175.0992,136.6206" style="stroke:#181818;stroke-width:1;"/></g><!--link PushProvider to MobileDevice--><g id="link_PushProvider_MobileDevice"><path d="M108.5092,165.7706 C108.5092,191.6106 108.5092,223.6206 108.5092,223.6206 C108.5092,223.6206 185.0292,223.6206 248.5192,223.6206 " fill="#FFFFFF" fill-opacity="0.00000" id="PushProvider-MobileDevice" style="stroke:#181818;stroke-width:1;stroke-dasharray:7.0,7.0;"/><polygon fill="#181818" points="108.5092,159.7706,104.5092,168.7706,108.5092,164.7706,112.5092,168.7706,108.5092,159.7706" style="stroke:#181818;stroke-width:1;"/><polygon fill="#181818" points="254.5192,223.6206,245.5192,219.6206,249.5192,223.6206,245.5192,227.6206,254.5192,223.6206" style="stroke:#181818;stroke-width:1;"/></g><!--link PushGateway to MobileDevice--><!--link MobileDevice to Fachdienst--><g id="link_MobileDevice_Fachdienst"><path d="M398.4792,223.6206 C409.9092,223.6206 415.5892,223.6206 426.6092,223.6206 " fill="#FFFFFF" fill-opacity="0.00000" id="MobileDevice-to-Fachdienst" style="stroke:#181818;stroke-width:1;"/><polygon fill="#181818" points="432.6092,223.6206,423.6092,219.6206,427.6092,223.6206,423.6092,227.6206,432.6092,223.6206" style="stroke:#181818;stroke-width:1;"/><text fill="#000000" font-family="sans-serif" font-size="13" lengthAdjust="spacing" textLength="51.3779" x="390.0392" y="237.189">Register</text></g><!--reverse link PushGateway to Fachdienst--><g id="link_PushGateway_Fachdienst"><path d="M399.2792,136.6206 C444.2892,136.6206 489.5092,136.6206 489.5092,136.6206 C489.5092,136.6206 489.5092,173.8806 489.5092,199.4906 " fill="#FFFFFF" fill-opacity="0.00000" id="PushGateway-backto-Fachdienst" style="stroke:#181818;stroke-width:1;"/><polygon fill="#181818" points="393.2792,136.6206,402.2792,140.6206,398.2792,136.6206,402.2792,132.6206,393.2792,136.6206" style="stroke:#181818;stroke-width:1;"/><text fill="#000000" font-family="sans-serif" font-size="13" lengthAdjust="spacing" textLength="64.5557" x="407.8292" y="133.189">Send Push</text></g><!--SRC=[RP3DJiCm48JlVeh59pWaXIkga91GAmv85I0km66njuuL_ybsYX3gkvCufMsWldayyyrwpt93ba2HnQnRM4TleQvdeRE6iTHg5p2YXOYkJHJWwf8nONmdWLEjQhWDmT1iwRqonE6RGN-4jy4xSXdugaiDhABVQ4cH0oOOb5-1RVUmv_l_wGMAHcfoARFo4b2qg0XuNmftj27Zmq0TSwUQbvZf4x_snRlxAVz2lhovymV_eGqDS2teekH6QLHAS3kCVKI3oj0wLpVJhnt7O5uizH_B5FBQQ2d9lLVJHdROmWupDS0ry4TIEkL-5HFYl8fQDRtzGEYzJ-Ha6OEp7m00]--></g></svg>