<svg xmlns="http://www.w3.org/2000/svg" xmlns:xlink="http://www.w3.org/1999/xlink" contentStyleType="text/css" height="851px" preserveAspectRatio="none" style="width:778px;height:851px;background:#FFFFFF;" version="1.1" viewBox="0 0 778 851" width="778px" zoomAndPan="magnify"><defs/><g><rect fill="#FFFFFF" height="639.9004" style="stroke:#181818;stroke-width:1;" width="10" x="50.7354" y="106.4883"/><rect fill="#FFFFFF" height="99.6211" style="stroke:#181818;stroke-width:1;" width="10" x="55.7354" y="645.7676"/><rect fill="#FFFFFF" height="71.6211" style="stroke:#181818;stroke-width:1;" width="10" x="220.1968" y="311.6621"/><rect fill="#FFFFFF" height="105.9316" style="stroke:#181818;stroke-width:1;" width="10" x="220.1968" y="451.9043"/><rect fill="#FFFFFF" height="58.6211" style="stroke:#181818;stroke-width:1;" width="10" x="384.1543" y="528.5254"/><rect fill="#FFFFFF" height="29.3105" style="stroke:#181818;stroke-width:1;" width="10" x="513.501" y="152.1094"/><rect fill="#FFFFFF" height="29.3105" style="stroke:#181818;stroke-width:1;" width="10" x="513.501" y="616.457"/><rect fill="#FFFFFF" height="29.3105" style="stroke:#181818;stroke-width:1;" width="10" x="667.8262" y="210.7305"/><rect fill="#FFFFFF" height="29.3105" style="stroke:#181818;stroke-width:1;" width="10" x="667.8262" y="587.1465"/><rect fill="none" height="277.7949" style="stroke:#000000;stroke-width:1.5;" width="727.5044" x="30" y="113.4883"/><rect fill="none" height="333.1055" style="stroke:#000000;stroke-width:1.5;" width="727.5044" x="30" y="405.2832"/><line style="stroke:#181818;stroke-width:0.5;stroke-dasharray:5.0,5.0;" x1="55" x2="55" y1="96.4883" y2="755.3887"/><line style="stroke:#181818;stroke-width:0.5;stroke-dasharray:5.0,5.0;" x1="224.7886" x2="224.7886" y1="96.4883" y2="755.3887"/><line style="stroke:#181818;stroke-width:0.5;stroke-dasharray:5.0,5.0;" x1="388.4546" x2="388.4546" y1="96.4883" y2="755.3887"/><line style="stroke:#181818;stroke-width:0.5;stroke-dasharray:5.0,5.0;" x1="517.854" x2="517.854" y1="96.4883" y2="755.3887"/><line style="stroke:#181818;stroke-width:0.5;stroke-dasharray:5.0,5.0;" x1="672.1479" x2="672.1479" y1="96.4883" y2="755.3887"/><text fill="#000000" font-family="sans-serif" font-size="14" lengthAdjust="spacing" textLength="25.4707" x="40" y="93.5352">FdV</text><ellipse cx="55.7354" cy="28.5" fill="#E2E2F0" rx="8" ry="8" style="stroke:#181818;stroke-width:0.5;"/><path d="M55.7354,36.5 L55.7354,63.5 M42.7354,44.5 L68.7354,44.5 M55.7354,63.5 L42.7354,78.5 M55.7354,63.5 L68.7354,78.5 " fill="none" style="stroke:#181818;stroke-width:0.5;"/><text fill="#000000" font-family="sans-serif" font-size="14" lengthAdjust="spacing" textLength="25.4707" x="40" y="767.9238">FdV</text><ellipse cx="55.7354" cy="779.377" fill="#E2E2F0" rx="8" ry="8" style="stroke:#181818;stroke-width:0.5;"/><path d="M55.7354,787.377 L55.7354,814.377 M42.7354,795.377 L68.7354,795.377 M55.7354,814.377 L42.7354,829.377 M55.7354,814.377 L68.7354,829.377 " fill="none" style="stroke:#181818;stroke-width:0.5;"/><text fill="#000000" font-family="sans-serif" font-size="14" lengthAdjust="spacing" textLength="72.8164" x="185.7886" y="93.5352">Fachdienst</text><ellipse cx="225.1968" cy="64" fill="#E2E2F0" rx="12" ry="12" style="stroke:#181818;stroke-width:0.5;"/><line style="stroke:#181818;stroke-width:0.5;" x1="213.1968" x2="237.1968" y1="78" y2="78"/><text fill="#000000" font-family="sans-serif" font-size="14" lengthAdjust="spacing" textLength="72.8164" x="185.7886" y="767.9238">Fachdienst</text><ellipse cx="225.1968" cy="786.877" fill="#E2E2F0" rx="12" ry="12" style="stroke:#181818;stroke-width:0.5;"/><line style="stroke:#181818;stroke-width:0.5;" x1="213.1968" x2="237.1968" y1="800.877" y2="800.877"/><text fill="#000000" font-family="sans-serif" font-size="14" lengthAdjust="spacing" textLength="93.3994" x="339.4546" y="93.5352">Push Gateway</text><ellipse cx="389.1543" cy="64" fill="#E2E2F0" rx="12" ry="12" style="stroke:#181818;stroke-width:0.5;"/><line style="stroke:#181818;stroke-width:0.5;" x1="377.1543" x2="401.1543" y1="78" y2="78"/><text fill="#000000" font-family="sans-serif" font-size="14" lengthAdjust="spacing" textLength="93.3994" x="339.4546" y="767.9238">Push Gateway</text><ellipse cx="389.1543" cy="786.877" fill="#E2E2F0" rx="12" ry="12" style="stroke:#181818;stroke-width:0.5;"/><line style="stroke:#181818;stroke-width:0.5;" x1="377.1543" x2="401.1543" y1="800.877" y2="800.877"/><text fill="#000000" font-family="sans-serif" font-size="14" lengthAdjust="spacing" textLength="133.2939" x="448.854" y="77.0469">Notification Provide</text><text fill="#000000" font-family="sans-serif" font-size="14" lengthAdjust="spacing" textLength="133.2871" x="448.8574" y="93.5352">(e.g. Apple/Google)</text><ellipse cx="518.501" cy="47.5117" fill="#E2E2F0" rx="12" ry="12" style="stroke:#181818;stroke-width:0.5;"/><line style="stroke:#181818;stroke-width:0.5;" x1="506.501" x2="530.501" y1="61.5117" y2="61.5117"/><text fill="#000000" font-family="sans-serif" font-size="14" lengthAdjust="spacing" textLength="133.2939" x="448.854" y="767.9238">Notification Provide</text><text fill="#000000" font-family="sans-serif" font-size="14" lengthAdjust="spacing" textLength="133.2871" x="448.8574" y="784.4121">(e.g. Apple/Google)</text><ellipse cx="518.501" cy="803.3652" fill="#E2E2F0" rx="12" ry="12" style="stroke:#181818;stroke-width:0.5;"/><line style="stroke:#181818;stroke-width:0.5;" x1="506.501" x2="530.501" y1="817.3652" y2="817.3652"/><text fill="#000000" font-family="sans-serif" font-size="14" lengthAdjust="spacing" textLength="143.3564" x="598.1479" y="93.5352">Private Push Gateway</text><ellipse cx="672.8262" cy="64" fill="#E2E2F0" rx="12" ry="12" style="stroke:#181818;stroke-width:0.5;"/><line style="stroke:#181818;stroke-width:0.5;" x1="660.8262" x2="684.8262" y1="78" y2="78"/><text fill="#000000" font-family="sans-serif" font-size="14" lengthAdjust="spacing" textLength="143.3564" x="598.1479" y="767.9238">Private Push Gateway</text><ellipse cx="672.8262" cy="786.877" fill="#E2E2F0" rx="12" ry="12" style="stroke:#181818;stroke-width:0.5;"/><line style="stroke:#181818;stroke-width:0.5;" x1="660.8262" x2="684.8262" y1="800.877" y2="800.877"/><rect fill="#FFFFFF" height="639.9004" style="stroke:#181818;stroke-width:1;" width="10" x="50.7354" y="106.4883"/><rect fill="#FFFFFF" height="99.6211" style="stroke:#181818;stroke-width:1;" width="10" x="55.7354" y="645.7676"/><rect fill="#FFFFFF" height="71.6211" style="stroke:#181818;stroke-width:1;" width="10" x="220.1968" y="311.6621"/><rect fill="#FFFFFF" height="105.9316" style="stroke:#181818;stroke-width:1;" width="10" x="220.1968" y="451.9043"/><rect fill="#FFFFFF" height="58.6211" style="stroke:#181818;stroke-width:1;" width="10" x="384.1543" y="528.5254"/><rect fill="#FFFFFF" height="29.3105" style="stroke:#181818;stroke-width:1;" width="10" x="513.501" y="152.1094"/><rect fill="#FFFFFF" height="29.3105" style="stroke:#181818;stroke-width:1;" width="10" x="513.501" y="616.457"/><rect fill="#FFFFFF" height="29.3105" style="stroke:#181818;stroke-width:1;" width="10" x="667.8262" y="210.7305"/><rect fill="#FFFFFF" height="29.3105" style="stroke:#181818;stroke-width:1;" width="10" x="667.8262" y="587.1465"/><path d="M30,113.4883 L156.8975,113.4883 L156.8975,120.7988 L146.8975,130.7988 L30,130.7988 L30,113.4883 " fill="#EEEEEE" style="stroke:#000000;stroke-width:1.5;"/><rect fill="none" height="277.7949" style="stroke:#000000;stroke-width:1.5;" width="727.5044" x="30" y="113.4883"/><text fill="#000000" font-family="sans-serif" font-size="13" font-weight="bold" lengthAdjust="spacing" textLength="81.8975" x="45" y="127.0566">Registration</text><polygon fill="#181818" points="501.501,148.1094,511.501,152.1094,501.501,156.1094,505.501,152.1094" style="stroke:#181818;stroke-width:1;"/><line style="stroke:#181818;stroke-width:1;" x1="60.7354" x2="507.501" y1="152.1094" y2="152.1094"/><text fill="#000000" font-family="sans-serif" font-size="13" lengthAdjust="spacing" textLength="146.2246" x="67.7354" y="147.3672">get_device_push_token</text><line style="stroke:#181818;stroke-width:1;" x1="61.7354" x2="71.7354" y1="181.4199" y2="177.4199"/><line style="stroke:#181818;stroke-width:1;" x1="61.7354" x2="71.7354" y1="181.4199" y2="185.4199"/><line style="stroke:#181818;stroke-width:1;stroke-dasharray:2.0,2.0;" x1="60.7354" x2="517.501" y1="181.4199" y2="181.4199"/><text fill="#000000" font-family="sans-serif" font-size="13" lengthAdjust="spacing" textLength="119.5137" x="77.7354" y="176.6777">device_push_token</text><polygon fill="#181818" points="655.8262,206.7305,665.8262,210.7305,655.8262,214.7305,659.8262,210.7305" style="stroke:#181818;stroke-width:1;"/><line style="stroke:#181818;stroke-width:1;" x1="60.7354" x2="661.8262" y1="210.7305" y2="210.7305"/><text fill="#000000" font-family="sans-serif" font-size="13" lengthAdjust="spacing" textLength="207.2573" x="67.7354" y="205.9883">get_pushkey(device_push_token)</text><line style="stroke:#181818;stroke-width:1;" x1="61.7354" x2="71.7354" y1="240.041" y2="236.041"/><line style="stroke:#181818;stroke-width:1;" x1="61.7354" x2="71.7354" y1="240.041" y2="244.041"/><line style="stroke:#181818;stroke-width:1;stroke-dasharray:2.0,2.0;" x1="60.7354" x2="671.8262" y1="240.041" y2="240.041"/><text fill="#000000" font-family="sans-serif" font-size="13" lengthAdjust="spacing" textLength="52.5776" x="77.7354" y="235.2988">pushkey</text><line style="stroke:#181818;stroke-width:1;" x1="60.7354" x2="102.7354" y1="269.3516" y2="269.3516"/><line style="stroke:#181818;stroke-width:1;" x1="102.7354" x2="102.7354" y1="269.3516" y2="282.3516"/><line style="stroke:#181818;stroke-width:1;" x1="61.7354" x2="102.7354" y1="282.3516" y2="282.3516"/><polygon fill="#181818" points="71.7354,278.3516,61.7354,282.3516,71.7354,286.3516,67.7354,282.3516" style="stroke:#181818;stroke-width:1;"/><text fill="#000000" font-family="sans-serif" font-size="13" lengthAdjust="spacing" textLength="59.6299" x="67.7354" y="264.6094">create iss</text><polygon fill="#181818" points="208.1968,307.6621,218.1968,311.6621,208.1968,315.6621,212.1968,311.6621" style="stroke:#181818;stroke-width:1;"/><line style="stroke:#181818;stroke-width:1;" x1="60.7354" x2="214.1968" y1="311.6621" y2="311.6621"/><text fill="#000000" font-family="sans-serif" font-size="13" font-weight="bold" lengthAdjust="spacing" textLength="35.0708" x="67.7354" y="306.9199">POST</text><text fill="#000000" font-family="sans-serif" font-size="13" lengthAdjust="spacing" textLength="4.1133" x="102.8062" y="306.9199">&#160;</text><text fill="#000000" font-family="sans-serif" font-size="13" font-style="italic" lengthAdjust="spacing" textLength="97.4492" x="106.9194" y="306.9199">pushers/v1/set</text><line style="stroke:#181818;stroke-width:1;" x1="230.1968" x2="272.1968" y1="340.9727" y2="340.9727"/><line style="stroke:#181818;stroke-width:1;" x1="272.1968" x2="272.1968" y1="340.9727" y2="353.9727"/><line style="stroke:#181818;stroke-width:1;" x1="231.1968" x2="272.1968" y1="353.9727" y2="353.9727"/><polygon fill="#181818" points="241.1968,349.9727,231.1968,353.9727,241.1968,357.9727,237.1968,353.9727" style="stroke:#181818;stroke-width:1;"/><text fill="#000000" font-family="sans-serif" font-size="13" lengthAdjust="spacing" textLength="110.0493" x="237.1968" y="336.2305">store information</text><line style="stroke:#181818;stroke-width:1;" x1="61.7354" x2="71.7354" y1="383.2832" y2="379.2832"/><line style="stroke:#181818;stroke-width:1;" x1="61.7354" x2="71.7354" y1="383.2832" y2="387.2832"/><line style="stroke:#181818;stroke-width:1;stroke-dasharray:2.0,2.0;" x1="60.7354" x2="224.1968" y1="383.2832" y2="383.2832"/><text fill="#000000" font-family="sans-serif" font-size="13" lengthAdjust="spacing" textLength="38.2256" x="77.7354" y="378.541">status</text><path d="M30,405.2832 L139.5938,405.2832 L139.5938,412.5938 L129.5938,422.5938 L30,422.5938 L30,405.2832 " fill="#EEEEEE" style="stroke:#000000;stroke-width:1.5;"/><rect fill="none" height="333.1055" style="stroke:#000000;stroke-width:1.5;" width="727.5044" x="30" y="405.2832"/><text fill="#000000" font-family="sans-serif" font-size="13" font-weight="bold" lengthAdjust="spacing" textLength="64.5938" x="45" y="418.8516">SendPush</text><line style="stroke:#181818;stroke-width:1;" x1="225.1968" x2="272.1968" y1="438.9043" y2="438.9043"/><line style="stroke:#181818;stroke-width:1;" x1="272.1968" x2="272.1968" y1="438.9043" y2="451.9043"/><line style="stroke:#181818;stroke-width:1;" x1="231.1968" x2="272.1968" y1="451.9043" y2="451.9043"/><polygon fill="#181818" points="241.1968,447.9043,231.1968,451.9043,241.1968,455.9043,237.1968,451.9043" style="stroke:#181818;stroke-width:1;"/><text fill="#000000" font-family="sans-serif" font-size="13" lengthAdjust="spacing" textLength="83.3574" x="237.1968" y="434.1621">event_trigger</text><line style="stroke:#181818;stroke-width:1;" x1="230.1968" x2="272.1968" y1="486.2148" y2="486.2148"/><line style="stroke:#181818;stroke-width:1;" x1="272.1968" x2="272.1968" y1="486.2148" y2="499.2148"/><line style="stroke:#181818;stroke-width:1;" x1="231.1968" x2="272.1968" y1="499.2148" y2="499.2148"/><polygon fill="#181818" points="241.1968,495.2148,231.1968,499.2148,241.1968,503.2148,237.1968,499.2148" style="stroke:#181818;stroke-width:1;"/><text fill="#000000" font-family="sans-serif" font-size="13" lengthAdjust="spacing" textLength="108.7861" x="237.1968" y="481.4727">encrypt_message</text><polygon fill="#181818" points="372.1543,524.5254,382.1543,528.5254,372.1543,532.5254,376.1543,528.5254" style="stroke:#181818;stroke-width:1;"/><line style="stroke:#181818;stroke-width:1;" x1="230.1968" x2="378.1543" y1="528.5254" y2="528.5254"/><text fill="#000000" font-family="sans-serif" font-size="13" font-weight="bold" lengthAdjust="spacing" textLength="35.0708" x="237.1968" y="523.7832">POST</text><text fill="#000000" font-family="sans-serif" font-size="13" lengthAdjust="spacing" textLength="4.1133" x="272.2676" y="523.7832">&#160;</text><text fill="#000000" font-family="sans-serif" font-size="13" font-style="italic" lengthAdjust="spacing" textLength="95.7734" x="276.3809" y="523.7832">push/v1/notify</text><line style="stroke:#181818;stroke-width:1;" x1="226.1968" x2="236.1968" y1="557.8359" y2="553.8359"/><line style="stroke:#181818;stroke-width:1;" x1="226.1968" x2="236.1968" y1="557.8359" y2="561.8359"/><line style="stroke:#181818;stroke-width:1;stroke-dasharray:2.0,2.0;" x1="225.1968" x2="383.1543" y1="557.8359" y2="557.8359"/><text fill="#000000" font-family="sans-serif" font-size="13" lengthAdjust="spacing" textLength="38.2256" x="242.1968" y="553.0938">status</text><polygon fill="#181818" points="655.8262,583.1465,665.8262,587.1465,655.8262,591.1465,659.8262,587.1465" style="stroke:#181818;stroke-width:1;"/><line style="stroke:#181818;stroke-width:1;" x1="389.1543" x2="661.8262" y1="587.1465" y2="587.1465"/><text fill="#000000" font-family="sans-serif" font-size="13" lengthAdjust="spacing" textLength="67.5645" x="396.1543" y="582.4043">send_push</text><polygon fill="#181818" points="534.501,612.457,524.501,616.457,534.501,620.457,530.501,616.457" style="stroke:#181818;stroke-width:1;"/><line style="stroke:#181818;stroke-width:1;" x1="528.501" x2="671.8262" y1="616.457" y2="616.457"/><text fill="#000000" font-family="sans-serif" font-size="13" lengthAdjust="spacing" textLength="67.5645" x="540.501" y="611.7148">send_push</text><polygon fill="#181818" points="76.7354,641.7676,66.7354,645.7676,76.7354,649.7676,72.7354,645.7676" style="stroke:#181818;stroke-width:1;"/><line style="stroke:#181818;stroke-width:1;" x1="70.7354" x2="517.501" y1="645.7676" y2="645.7676"/><text fill="#000000" font-family="sans-serif" font-size="13" lengthAdjust="spacing" textLength="30.9448" x="82.7354" y="641.0254">push</text><line style="stroke:#181818;stroke-width:1;" x1="65.7354" x2="107.7354" y1="675.0781" y2="675.0781"/><line style="stroke:#181818;stroke-width:1;" x1="107.7354" x2="107.7354" y1="675.0781" y2="688.0781"/><line style="stroke:#181818;stroke-width:1;" x1="66.7354" x2="107.7354" y1="688.0781" y2="688.0781"/><polygon fill="#181818" points="76.7354,684.0781,66.7354,688.0781,76.7354,692.0781,72.7354,688.0781" style="stroke:#181818;stroke-width:1;"/><text fill="#000000" font-family="sans-serif" font-size="13" lengthAdjust="spacing" textLength="125.4614" x="72.7354" y="670.3359">decrypt_notification</text><line style="stroke:#181818;stroke-width:1;" x1="65.7354" x2="107.7354" y1="717.3887" y2="717.3887"/><line style="stroke:#181818;stroke-width:1;" x1="107.7354" x2="107.7354" y1="717.3887" y2="730.3887"/><line style="stroke:#181818;stroke-width:1;" x1="66.7354" x2="107.7354" y1="730.3887" y2="730.3887"/><polygon fill="#181818" points="76.7354,726.3887,66.7354,730.3887,76.7354,734.3887,72.7354,730.3887" style="stroke:#181818;stroke-width:1;"/><text fill="#000000" font-family="sans-serif" font-size="13" lengthAdjust="spacing" textLength="110.9189" x="72.7354" y="712.6465">show_notification</text><!--SRC=[hLGzRuCm4Dtv5Mwc12bONJD4wj9iRTHKdIeX11TZ9TZ8FeZuzxK92UOpLTKi1D_pUtV7ktl2538W3B88-OaSbSn84D2yoCwU5yKe5Lcy9byB4cdoakSU2EHOcRCeJXCEGcCTQb_lY7sXKxAB42vHLMFU9F8ZZusE50TG9O_X3dPZPAzaoHFu5ai8M61bpq1tKh8ph0PC3LXvhR3YfP4bWmIQm5WU7bEooCa7CAvHrI6Fc9_fm9NCrcuFp9EijwCPa8rf8uO9MCOmD-eXoXFqY4PpjuXHolLwkwqrDsISDu5vPZVfwVgRr2tt2QhbG6hLhM6caHOte-FKquZrgvZxI4ujLuvOWRt3jNPZhHaDnFVtxuTFtoUKMaLGcfRFL0DIsYtAiR0zTqZwbDfCXH4LHwcorYhkXRPAZH4MkbzaProIc_iEvhyrxIDzA8tLGrISiSOxVoW2HAog7CCCj8uOZC37VTBhfssciC2gtyyfTqpQejVZ1tsRvdfWT6swN5jxRdxSXF_3zfCROpARHtFmruNYZj_lDyZK7hojfgkNX7D_YDAfl7GXjVSTVKl-0m00]--></g></svg>