<svg xmlns="http://www.w3.org/2000/svg" xmlns:xlink="http://www.w3.org/1999/xlink" contentStyleType="text/css" data-diagram-type="SEQUENCE" height="445px" preserveAspectRatio="none" style="width:556px;height:445px;background:#FFFFFF;" version="1.1" viewBox="0 0 556 445" width="556px" zoomAndPan="magnify"><defs/><g><g><title>FdV</title><rect fill="#FFFFFF" height="233.1738" style="stroke:#181818;stroke-width:1;" width="10" x="50.7354" y="106.4883"/></g><g><title>Fachdienst</title><rect fill="#FFFFFF" height="71.6211" style="stroke:#181818;stroke-width:1;" width="10" x="216.3687" y="253.041"/></g><g><title>Apple/Google</title><rect fill="#FFFFFF" height="29.3105" style="stroke:#181818;stroke-width:1;" width="10" x="470.2993" y="152.1094"/></g><rect fill="none" height="219.1738" style="stroke:#000000;stroke-width:1.5;" width="505.481" x="30" y="113.4883"/><g><title>FdV</title><rect fill="#000000" fill-opacity="0.00000" height="253.1738" width="8" x="51.7354" y="96.4883"/><line style="stroke:#181818;stroke-width:0.5;stroke-dasharray:5.0,5.0;" x1="55" x2="55" y1="96.4883" y2="349.6621"/></g><g><title>Fachdienst</title><rect fill="#000000" fill-opacity="0.00000" height="253.1738" width="8" x="217.3687" y="96.4883"/><line style="stroke:#181818;stroke-width:0.5;stroke-dasharray:5.0,5.0;" x1="220.9604" x2="220.9604" y1="96.4883" y2="349.6621"/></g><g><title>Push Gateway</title><rect fill="#000000" fill-opacity="0.00000" height="253.1738" width="8" x="361.418" y="96.4883"/><line style="stroke:#181818;stroke-width:0.5;stroke-dasharray:5.0,5.0;" x1="364.7183" x2="364.7183" y1="96.4883" y2="349.6621"/></g><g><title>Apple/Google</title><rect fill="#000000" fill-opacity="0.00000" height="253.1738" width="8" x="471.2993" y="96.4883"/><line style="stroke:#181818;stroke-width:0.5;stroke-dasharray:5.0,5.0;" x1="475.1177" x2="475.1177" y1="96.4883" y2="349.6621"/></g><g class="participant participant-head" data-participant="App"><text fill="#000000" font-family="sans-serif" font-size="14" lengthAdjust="spacing" textLength="25.4707" x="40" y="93.5352">FdV</text><ellipse cx="55.7354" cy="28.5" fill="#E2E2F0" rx="8" ry="8" style="stroke:#181818;stroke-width:0.5;"/><path d="M55.7354,36.5 L55.7354,63.5 M42.7354,44.5 L68.7354,44.5 M55.7354,63.5 L42.7354,78.5 M55.7354,63.5 L68.7354,78.5" fill="none" style="stroke:#181818;stroke-width:0.5;"/></g><g class="participant participant-tail" data-participant="App"><text fill="#000000" font-family="sans-serif" font-size="14" lengthAdjust="spacing" textLength="25.4707" x="40" y="362.1973">FdV</text><ellipse cx="55.7354" cy="373.6504" fill="#E2E2F0" rx="8" ry="8" style="stroke:#181818;stroke-width:0.5;"/><path d="M55.7354,381.6504 L55.7354,408.6504 M42.7354,389.6504 L68.7354,389.6504 M55.7354,408.6504 L42.7354,423.6504 M55.7354,408.6504 L68.7354,423.6504" fill="none" style="stroke:#181818;stroke-width:0.5;"/></g><g class="participant participant-head" data-participant="Fachdienst"><text fill="#000000" font-family="sans-serif" font-size="14" lengthAdjust="spacing" textLength="72.8164" x="181.9604" y="93.5352">Fachdienst</text><ellipse cx="221.3687" cy="64" fill="#E2E2F0" rx="12" ry="12" style="stroke:#181818;stroke-width:0.5;"/><line style="stroke:#181818;stroke-width:0.5;" x1="209.3687" x2="233.3687" y1="78" y2="78"/></g><g class="participant participant-tail" data-participant="Fachdienst"><text fill="#000000" font-family="sans-serif" font-size="14" lengthAdjust="spacing" textLength="72.8164" x="181.9604" y="362.1973">Fachdienst</text><ellipse cx="221.3687" cy="381.1504" fill="#E2E2F0" rx="12" ry="12" style="stroke:#181818;stroke-width:0.5;"/><line style="stroke:#181818;stroke-width:0.5;" x1="209.3687" x2="233.3687" y1="395.1504" y2="395.1504"/></g><g class="participant participant-head" data-participant="NotificationService"><text fill="#000000" font-family="sans-serif" font-size="14" lengthAdjust="spacing" textLength="93.3994" x="315.7183" y="93.5352">Push Gateway</text><ellipse cx="365.418" cy="64" fill="#E2E2F0" rx="12" ry="12" style="stroke:#181818;stroke-width:0.5;"/><line style="stroke:#181818;stroke-width:0.5;" x1="353.418" x2="377.418" y1="78" y2="78"/></g><g class="participant participant-tail" data-participant="NotificationService"><text fill="#000000" font-family="sans-serif" font-size="14" lengthAdjust="spacing" textLength="93.3994" x="315.7183" y="362.1973">Push Gateway</text><ellipse cx="365.418" cy="381.1504" fill="#E2E2F0" rx="12" ry="12" style="stroke:#181818;stroke-width:0.5;"/><line style="stroke:#181818;stroke-width:0.5;" x1="353.418" x2="377.418" y1="395.1504" y2="395.1504"/></g><g class="participant participant-head" data-participant="NotificationProvider"><text fill="#000000" font-family="sans-serif" font-size="14" lengthAdjust="spacing" textLength="94.3633" x="425.1177" y="93.5352">Apple/Google</text><ellipse cx="475.2993" cy="64" fill="#E2E2F0" rx="12" ry="12" style="stroke:#181818;stroke-width:0.5;"/><line style="stroke:#181818;stroke-width:0.5;" x1="463.2993" x2="487.2993" y1="78" y2="78"/></g><g class="participant participant-tail" data-participant="NotificationProvider"><text fill="#000000" font-family="sans-serif" font-size="14" lengthAdjust="spacing" textLength="94.3633" x="425.1177" y="362.1973">Apple/Google</text><ellipse cx="475.2993" cy="381.1504" fill="#E2E2F0" rx="12" ry="12" style="stroke:#181818;stroke-width:0.5;"/><line style="stroke:#181818;stroke-width:0.5;" x1="463.2993" x2="487.2993" y1="395.1504" y2="395.1504"/></g><g><title>FdV</title><rect fill="#FFFFFF" height="233.1738" style="stroke:#181818;stroke-width:1;" width="10" x="50.7354" y="106.4883"/></g><g><title>Fachdienst</title><rect fill="#FFFFFF" height="71.6211" style="stroke:#181818;stroke-width:1;" width="10" x="216.3687" y="253.041"/></g><g><title>Apple/Google</title><rect fill="#FFFFFF" height="29.3105" style="stroke:#181818;stroke-width:1;" width="10" x="470.2993" y="152.1094"/></g><path d="M30,113.4883 L156.8975,113.4883 L156.8975,120.7988 L146.8975,130.7988 L30,130.7988 L30,113.4883" fill="#EEEEEE" style="stroke:#000000;stroke-width:1.5;"/><rect fill="none" height="219.1738" style="stroke:#000000;stroke-width:1.5;" width="505.481" x="30" y="113.4883"/><text fill="#000000" font-family="sans-serif" font-size="13" font-weight="bold" lengthAdjust="spacing" textLength="81.8975" x="45" y="127.0566">Registration</text><g class="message" data-participant-1="App" data-participant-2="NotificationProvider"><polygon fill="#181818" points="458.2993,148.1094,468.2993,152.1094,458.2993,156.1094,462.2993,152.1094" style="stroke:#181818;stroke-width:1;"/><line style="stroke:#181818;stroke-width:1;" x1="60.7354" x2="464.2993" y1="152.1094" y2="152.1094"/><text fill="#000000" font-family="sans-serif" font-size="13" lengthAdjust="spacing" textLength="79.2886" x="67.7354" y="147.3672">get_pushkey</text></g><g class="message" data-participant-1="NotificationProvider" data-participant-2="App"><line style="stroke:#181818;stroke-width:1;" x1="61.7354" x2="71.7354" y1="181.4199" y2="177.4199"/><line style="stroke:#181818;stroke-width:1;" x1="61.7354" x2="71.7354" y1="181.4199" y2="185.4199"/><line style="stroke:#181818;stroke-width:1;stroke-dasharray:2.0,2.0;" x1="60.7354" x2="474.2993" y1="181.4199" y2="181.4199"/><text fill="#000000" font-family="sans-serif" font-size="13" lengthAdjust="spacing" textLength="52.5776" x="77.7354" y="176.6777">pushkey</text></g><g class="message" data-participant-1="App" data-participant-2="App"><line style="stroke:#181818;stroke-width:1;" x1="60.7354" x2="102.7354" y1="210.7305" y2="210.7305"/><line style="stroke:#181818;stroke-width:1;" x1="102.7354" x2="102.7354" y1="210.7305" y2="223.7305"/><line style="stroke:#181818;stroke-width:1;" x1="61.7354" x2="102.7354" y1="223.7305" y2="223.7305"/><polygon fill="#181818" points="71.7354,219.7305,61.7354,223.7305,71.7354,227.7305,67.7354,223.7305" style="stroke:#181818;stroke-width:1;"/><text fill="#000000" font-family="sans-serif" font-size="13" lengthAdjust="spacing" textLength="59.6299" x="67.7354" y="205.9883">create iss</text></g><g class="message" data-participant-1="App" data-participant-2="Fachdienst"><polygon fill="#181818" points="204.3687,249.041,214.3687,253.041,204.3687,257.041,208.3687,253.041" style="stroke:#181818;stroke-width:1;"/><line style="stroke:#181818;stroke-width:1;" x1="60.7354" x2="210.3687" y1="253.041" y2="253.041"/><text fill="#000000" font-family="sans-serif" font-size="13" font-weight="bold" lengthAdjust="spacing" textLength="35.0708" x="67.7354" y="248.2988">POST</text><text fill="#000000" font-family="sans-serif" font-size="13" lengthAdjust="spacing" textLength="4.1133" x="102.8062" y="248.2988">&#160;</text><text fill="#000000" font-family="sans-serif" font-size="13" font-style="italic" lengthAdjust="spacing" textLength="97.4492" x="106.9194" y="248.2988">pushers/v1/set</text></g><g class="message" data-participant-1="Fachdienst" data-participant-2="Fachdienst"><line style="stroke:#181818;stroke-width:1;" x1="226.3687" x2="268.3687" y1="282.3516" y2="282.3516"/><line style="stroke:#181818;stroke-width:1;" x1="268.3687" x2="268.3687" y1="282.3516" y2="295.3516"/><line style="stroke:#181818;stroke-width:1;" x1="227.3687" x2="268.3687" y1="295.3516" y2="295.3516"/><polygon fill="#181818" points="237.3687,291.3516,227.3687,295.3516,237.3687,299.3516,233.3687,295.3516" style="stroke:#181818;stroke-width:1;"/><text fill="#000000" font-family="sans-serif" font-size="13" lengthAdjust="spacing" textLength="110.0493" x="233.3687" y="277.6094">store information</text></g><g class="message" data-participant-1="Fachdienst" data-participant-2="App"><line style="stroke:#181818;stroke-width:1;" x1="61.7354" x2="71.7354" y1="324.6621" y2="320.6621"/><line style="stroke:#181818;stroke-width:1;" x1="61.7354" x2="71.7354" y1="324.6621" y2="328.6621"/><line style="stroke:#181818;stroke-width:1;stroke-dasharray:2.0,2.0;" x1="60.7354" x2="220.3687" y1="324.6621" y2="324.6621"/><text fill="#000000" font-family="sans-serif" font-size="13" lengthAdjust="spacing" textLength="38.2256" x="77.7354" y="319.9199">status</text></g><!--SRC=[XL6nReGm3Dtp5UwDI5pKzGQaBhsjHRsgQnM1WUY0eDXGyVTrQ7M4ArApHF5xVkyvVk06EuGQEyFs2fLt7HoFUXYxLYbJiFDmU2u_3c08deP1OS-MPwcPeYajziGBj3vlZ7oa1iw6ySlC2-V5iQri8Jwklw2VR84tiaYtgC_ErIt-8UVUJRP4hrJjtJZ06zQMs2-O0ZcIqqxYj2GC1RaXpNP5u2J3ykSWwQuuRzjtJGDZLoXDisnnEa6iLkB_Uh_vVfeBZu5iYM9i_L6X94d-UdbF4j0wMA4dFJrgGjPwEq6qXr2FHEubILOhfdtbVBV-PDomZaTiUAJxwJOxBrM4X3Ly0m00]--></g></svg>