<svg xmlns="http://www.w3.org/2000/svg" xmlns:xlink="http://www.w3.org/1999/xlink" contentStyleType="text/css" data-diagram-type="SEQUENCE" height="880px" preserveAspectRatio="none" style="width:695px;height:880px;background:#FFFFFF;" version="1.1" viewBox="0 0 695 880" width="695px" zoomAndPan="magnify"><defs/><g><g><title>FdV</title><rect fill="#FFFFFF" height="669.2109" style="stroke:#181818;stroke-width:1;" width="10" x="50.7354" y="106.4883"/></g><g><title>FdV</title><rect fill="#FFFFFF" height="99.6211" style="stroke:#181818;stroke-width:1;" width="10" x="55.7354" y="675.0781"/></g><g><title>Fachdienst</title><rect fill="#FFFFFF" height="71.6211" style="stroke:#181818;stroke-width:1;" width="10" x="220.1968" y="311.6621"/></g><g><title>Fachdienst</title><rect fill="#FFFFFF" height="105.9316" style="stroke:#181818;stroke-width:1;" width="10" x="220.1968" y="451.9043"/></g><g><title>Push Gateway</title><rect fill="#FFFFFF" height="117.2422" style="stroke:#181818;stroke-width:1;" width="10" x="384.1543" y="528.5254"/></g><g><title>Notification Provider</title><rect fill="#FFFFFF" height="29.3105" style="stroke:#181818;stroke-width:1;" width="10" x="516.3652" y="152.1094"/></g><g><title>Notification Provider</title><rect fill="#FFFFFF" height="29.3105" style="stroke:#181818;stroke-width:1;" width="10" x="516.3652" y="645.7676"/></g><g><title>Internal</title><rect fill="#FFFFFF" height="29.3105" style="stroke:#181818;stroke-width:1;" width="10" x="629.1108" y="210.7305"/></g><g><title>Internal</title><rect fill="#FFFFFF" height="29.3105" style="stroke:#181818;stroke-width:1;" width="10" x="629.1108" y="587.1465"/></g><rect fill="#FFFFFF" fill-opacity="0.00000" height="277.7949" style="stroke:#000000;stroke-width:1.5;" width="644.3452" x="30" y="113.4883"/><rect fill="#FFFFFF" fill-opacity="0.00000" height="362.416" style="stroke:#000000;stroke-width:1.5;" width="644.3452" x="30" y="405.2832"/><g><title>FdV</title><rect fill="#FFFFFF" fill-opacity="0.00000" height="688.2109" width="8" x="51.7354" y="96.4883"/><line style="stroke:#181818;stroke-width:0.5;stroke-dasharray:5.0,5.0;" x1="55" x2="55" y1="96.4883" y2="784.6992"/></g><g><title>Fachdienst</title><rect fill="#FFFFFF" fill-opacity="0.00000" height="688.2109" width="8" x="221.1968" y="96.4883"/><line style="stroke:#181818;stroke-width:0.5;stroke-dasharray:5.0,5.0;" x1="224.7886" x2="224.7886" y1="96.4883" y2="784.6992"/></g><g><title>Push Gateway</title><rect fill="#FFFFFF" fill-opacity="0.00000" height="688.2109" width="8" x="385.1543" y="96.4883"/><line style="stroke:#181818;stroke-width:0.5;stroke-dasharray:5.0,5.0;" x1="388.4546" x2="388.4546" y1="96.4883" y2="784.6992"/></g><g><title>Notification Provider</title><rect fill="#FFFFFF" fill-opacity="0.00000" height="688.2109" width="8" x="517.3652" y="96.4883"/><line style="stroke:#181818;stroke-width:0.5;stroke-dasharray:5.0,5.0;" x1="520.854" x2="520.854" y1="96.4883" y2="784.6992"/></g><g><title>Internal</title><rect fill="#FFFFFF" fill-opacity="0.00000" height="688.2109" width="8" x="630.1108" y="96.4883"/><line style="stroke:#181818;stroke-width:0.5;stroke-dasharray:5.0,5.0;" x1="633.8765" x2="633.8765" y1="96.4883" y2="784.6992"/></g><g><text fill="#000000" font-family="sans-serif" font-size="14" lengthAdjust="spacing" textLength="25.4707" x="40" y="93.5352">FdV</text><ellipse cx="55.7354" cy="28.5" fill="#E2E2F0" rx="8" ry="8" style="stroke:#181818;stroke-width:0.5;"/><path d="M55.7354,36.5 L55.7354,63.5 M42.7354,44.5 L68.7354,44.5 M55.7354,63.5 L42.7354,78.5 M55.7354,63.5 L68.7354,78.5 " fill="#FFFFFF" fill-opacity="0.00000" style="stroke:#181818;stroke-width:0.5;"/></g><g><text fill="#000000" font-family="sans-serif" font-size="14" lengthAdjust="spacing" textLength="25.4707" x="40" y="797.2344">FdV</text><ellipse cx="55.7354" cy="808.6875" fill="#E2E2F0" rx="8" ry="8" style="stroke:#181818;stroke-width:0.5;"/><path d="M55.7354,816.6875 L55.7354,843.6875 M42.7354,824.6875 L68.7354,824.6875 M55.7354,843.6875 L42.7354,858.6875 M55.7354,843.6875 L68.7354,858.6875 " fill="#FFFFFF" fill-opacity="0.00000" style="stroke:#181818;stroke-width:0.5;"/></g><g><text fill="#000000" font-family="sans-serif" font-size="14" lengthAdjust="spacing" textLength="72.8164" x="185.7886" y="77.0469">Fachdienst</text><text fill="#000000" font-family="sans-serif" font-size="14" lengthAdjust="spacing" textLength="4.4297" x="219.9819" y="93.5352">&#160;</text><ellipse cx="225.1968" cy="47.5117" fill="#E2E2F0" rx="12" ry="12" style="stroke:#181818;stroke-width:0.5;"/><line style="stroke:#181818;stroke-width:0.5;" x1="213.1968" x2="237.1968" y1="61.5117" y2="61.5117"/></g><g><text fill="#000000" font-family="sans-serif" font-size="14" lengthAdjust="spacing" textLength="72.8164" x="185.7886" y="797.2344">Fachdienst</text><text fill="#000000" font-family="sans-serif" font-size="14" lengthAdjust="spacing" textLength="4.4297" x="219.9819" y="813.7227">&#160;</text><ellipse cx="225.1968" cy="832.6758" fill="#E2E2F0" rx="12" ry="12" style="stroke:#181818;stroke-width:0.5;"/><line style="stroke:#181818;stroke-width:0.5;" x1="213.1968" x2="237.1968" y1="846.6758" y2="846.6758"/></g><g><text fill="#000000" font-family="sans-serif" font-size="14" lengthAdjust="spacing" textLength="93.3994" x="339.4546" y="77.0469">Push Gateway</text><text fill="#000000" font-family="sans-serif" font-size="14" lengthAdjust="spacing" textLength="4.4297" x="383.9395" y="93.5352">&#160;</text><ellipse cx="389.1543" cy="47.5117" fill="#E2E2F0" rx="12" ry="12" style="stroke:#181818;stroke-width:0.5;"/><line style="stroke:#181818;stroke-width:0.5;" x1="377.1543" x2="401.1543" y1="61.5117" y2="61.5117"/></g><g><text fill="#000000" font-family="sans-serif" font-size="14" lengthAdjust="spacing" textLength="93.3994" x="339.4546" y="797.2344">Push Gateway</text><text fill="#000000" font-family="sans-serif" font-size="14" lengthAdjust="spacing" textLength="4.4297" x="383.9395" y="813.7227">&#160;</text><ellipse cx="389.1543" cy="832.6758" fill="#E2E2F0" rx="12" ry="12" style="stroke:#181818;stroke-width:0.5;"/><line style="stroke:#181818;stroke-width:0.5;" x1="377.1543" x2="401.1543" y1="846.6758" y2="846.6758"/></g><g><text fill="#000000" font-family="sans-serif" font-size="14" lengthAdjust="spacing" textLength="139.0225" x="448.854" y="77.0469">Notification Provider</text><text fill="#000000" font-family="sans-serif" font-size="14" lengthAdjust="spacing" textLength="133.2871" x="451.7217" y="93.5352">(e.g. Apple/Google)</text><ellipse cx="521.3652" cy="47.5117" fill="#E2E2F0" rx="12" ry="12" style="stroke:#181818;stroke-width:0.5;"/><line style="stroke:#181818;stroke-width:0.5;" x1="509.3652" x2="533.3652" y1="61.5117" y2="61.5117"/></g><g><text fill="#000000" font-family="sans-serif" font-size="14" lengthAdjust="spacing" textLength="139.0225" x="448.854" y="797.2344">Notification Provider</text><text fill="#000000" font-family="sans-serif" font-size="14" lengthAdjust="spacing" textLength="133.2871" x="451.7217" y="813.7227">(e.g. Apple/Google)</text><ellipse cx="521.3652" cy="832.6758" fill="#E2E2F0" rx="12" ry="12" style="stroke:#181818;stroke-width:0.5;"/><line style="stroke:#181818;stroke-width:0.5;" x1="509.3652" x2="533.3652" y1="846.6758" y2="846.6758"/></g><g><text fill="#000000" font-family="sans-serif" font-size="14" lengthAdjust="spacing" textLength="51.9531" x="605.1343" y="77.0469">Internal</text><text fill="#000000" font-family="sans-serif" font-size="14" lengthAdjust="spacing" textLength="54.4688" x="603.8765" y="93.5352">Services</text><ellipse cx="634.1108" cy="47.5117" fill="#E2E2F0" rx="12" ry="12" style="stroke:#181818;stroke-width:0.5;"/><line style="stroke:#181818;stroke-width:0.5;" x1="622.1108" x2="646.1108" y1="61.5117" y2="61.5117"/></g><g><text fill="#000000" font-family="sans-serif" font-size="14" lengthAdjust="spacing" textLength="51.9531" x="605.1343" y="797.2344">Internal</text><text fill="#000000" font-family="sans-serif" font-size="14" lengthAdjust="spacing" textLength="54.4688" x="603.8765" y="813.7227">Services</text><ellipse cx="634.1108" cy="832.6758" fill="#E2E2F0" rx="12" ry="12" style="stroke:#181818;stroke-width:0.5;"/><line style="stroke:#181818;stroke-width:0.5;" x1="622.1108" x2="646.1108" y1="846.6758" y2="846.6758"/></g><g><title>FdV</title><rect fill="#FFFFFF" height="669.2109" style="stroke:#181818;stroke-width:1;" width="10" x="50.7354" y="106.4883"/></g><g><title>FdV</title><rect fill="#FFFFFF" height="99.6211" style="stroke:#181818;stroke-width:1;" width="10" x="55.7354" y="675.0781"/></g><g><title>Fachdienst</title><rect fill="#FFFFFF" height="71.6211" style="stroke:#181818;stroke-width:1;" width="10" x="220.1968" y="311.6621"/></g><g><title>Fachdienst</title><rect fill="#FFFFFF" height="105.9316" style="stroke:#181818;stroke-width:1;" width="10" x="220.1968" y="451.9043"/></g><g><title>Push Gateway</title><rect fill="#FFFFFF" height="117.2422" style="stroke:#181818;stroke-width:1;" width="10" x="384.1543" y="528.5254"/></g><g><title>Notification Provider</title><rect fill="#FFFFFF" height="29.3105" style="stroke:#181818;stroke-width:1;" width="10" x="516.3652" y="152.1094"/></g><g><title>Notification Provider</title><rect fill="#FFFFFF" height="29.3105" style="stroke:#181818;stroke-width:1;" width="10" x="516.3652" y="645.7676"/></g><g><title>Internal</title><rect fill="#FFFFFF" height="29.3105" style="stroke:#181818;stroke-width:1;" width="10" x="629.1108" y="210.7305"/></g><g><title>Internal</title><rect fill="#FFFFFF" height="29.3105" style="stroke:#181818;stroke-width:1;" width="10" x="629.1108" y="587.1465"/></g><path d="M30,113.4883 L156.8975,113.4883 L156.8975,120.7988 L146.8975,130.7988 L30,130.7988 L30,113.4883 " fill="#EEEEEE" style="stroke:#000000;stroke-width:1.5;"/><rect fill="#FFFFFF" fill-opacity="0.00000" height="277.7949" style="stroke:#000000;stroke-width:1.5;" width="644.3452" x="30" y="113.4883"/><text fill="#000000" font-family="sans-serif" font-size="13" font-weight="bold" lengthAdjust="spacing" textLength="81.8975" x="45" y="127.0566">Registration</text><g><polygon fill="#181818" points="504.3652,148.1094,514.3652,152.1094,504.3652,156.1094,508.3652,152.1094" style="stroke:#181818;stroke-width:1;"/><line style="stroke:#181818;stroke-width:1;" x1="60.7354" x2="510.3652" y1="152.1094" y2="152.1094"/><text fill="#000000" font-family="sans-serif" font-size="13" lengthAdjust="spacing" textLength="146.2246" x="67.7354" y="147.3672">get_device_push_token</text></g><g><line style="stroke:#181818;stroke-width:1;" x1="61.7354" x2="71.7354" y1="181.4199" y2="177.4199"/><line style="stroke:#181818;stroke-width:1;" x1="61.7354" x2="71.7354" y1="181.4199" y2="185.4199"/><line style="stroke:#181818;stroke-width:1;stroke-dasharray:2.0,2.0;" x1="60.7354" x2="520.3652" y1="181.4199" y2="181.4199"/><text fill="#000000" font-family="sans-serif" font-size="13" lengthAdjust="spacing" textLength="119.5137" x="77.7354" y="176.6777">device_push_token</text></g><g><polygon fill="#181818" points="617.1108,206.7305,627.1108,210.7305,617.1108,214.7305,621.1108,210.7305" style="stroke:#181818;stroke-width:1;"/><line style="stroke:#181818;stroke-width:1;" x1="60.7354" x2="623.1108" y1="210.7305" y2="210.7305"/><text fill="#000000" font-family="sans-serif" font-size="13" lengthAdjust="spacing" textLength="207.2573" x="67.7354" y="205.9883">get_pushkey(device_push_token)</text></g><g><line style="stroke:#181818;stroke-width:1;" x1="61.7354" x2="71.7354" y1="240.041" y2="236.041"/><line style="stroke:#181818;stroke-width:1;" x1="61.7354" x2="71.7354" y1="240.041" y2="244.041"/><line style="stroke:#181818;stroke-width:1;stroke-dasharray:2.0,2.0;" x1="60.7354" x2="633.1108" y1="240.041" y2="240.041"/><text fill="#000000" font-family="sans-serif" font-size="13" lengthAdjust="spacing" textLength="52.5776" x="77.7354" y="235.2988">pushkey</text></g><g><line style="stroke:#181818;stroke-width:1;" x1="60.7354" x2="102.7354" y1="269.3516" y2="269.3516"/><line style="stroke:#181818;stroke-width:1;" x1="102.7354" x2="102.7354" y1="269.3516" y2="282.3516"/><line style="stroke:#181818;stroke-width:1;" x1="61.7354" x2="102.7354" y1="282.3516" y2="282.3516"/><polygon fill="#181818" points="71.7354,278.3516,61.7354,282.3516,71.7354,286.3516,67.7354,282.3516" style="stroke:#181818;stroke-width:1;"/><text fill="#000000" font-family="sans-serif" font-size="13" lengthAdjust="spacing" textLength="59.6299" x="67.7354" y="264.6094">create iss</text></g><g><polygon fill="#181818" points="208.1968,307.6621,218.1968,311.6621,208.1968,315.6621,212.1968,311.6621" style="stroke:#181818;stroke-width:1;"/><line style="stroke:#181818;stroke-width:1;" x1="60.7354" x2="214.1968" y1="311.6621" y2="311.6621"/><text fill="#000000" font-family="sans-serif" font-size="13" font-weight="bold" lengthAdjust="spacing" textLength="35.0708" x="67.7354" y="306.9199">POST</text><text fill="#000000" font-family="sans-serif" font-size="13" lengthAdjust="spacing" textLength="4.1133" x="102.8062" y="306.9199">&#160;</text><text fill="#000000" font-family="sans-serif" font-size="13" font-style="italic" lengthAdjust="spacing" textLength="97.4492" x="106.9194" y="306.9199">pushers/v1/set</text></g><g><line style="stroke:#181818;stroke-width:1;" x1="230.1968" x2="272.1968" y1="340.9727" y2="340.9727"/><line style="stroke:#181818;stroke-width:1;" x1="272.1968" x2="272.1968" y1="340.9727" y2="353.9727"/><line style="stroke:#181818;stroke-width:1;" x1="231.1968" x2="272.1968" y1="353.9727" y2="353.9727"/><polygon fill="#181818" points="241.1968,349.9727,231.1968,353.9727,241.1968,357.9727,237.1968,353.9727" style="stroke:#181818;stroke-width:1;"/><text fill="#000000" font-family="sans-serif" font-size="13" lengthAdjust="spacing" textLength="110.0493" x="237.1968" y="336.2305">store information</text></g><g><line style="stroke:#181818;stroke-width:1;" x1="61.7354" x2="71.7354" y1="383.2832" y2="379.2832"/><line style="stroke:#181818;stroke-width:1;" x1="61.7354" x2="71.7354" y1="383.2832" y2="387.2832"/><line style="stroke:#181818;stroke-width:1;stroke-dasharray:2.0,2.0;" x1="60.7354" x2="224.1968" y1="383.2832" y2="383.2832"/><text fill="#000000" font-family="sans-serif" font-size="13" lengthAdjust="spacing" textLength="38.2256" x="77.7354" y="378.541">status</text></g><path d="M30,405.2832 L139.5938,405.2832 L139.5938,412.5938 L129.5938,422.5938 L30,422.5938 L30,405.2832 " fill="#EEEEEE" style="stroke:#000000;stroke-width:1.5;"/><rect fill="#FFFFFF" fill-opacity="0.00000" height="362.416" style="stroke:#000000;stroke-width:1.5;" width="644.3452" x="30" y="405.2832"/><text fill="#000000" font-family="sans-serif" font-size="13" font-weight="bold" lengthAdjust="spacing" textLength="64.5938" x="45" y="418.8516">SendPush</text><g><line style="stroke:#181818;stroke-width:1;" x1="225.1968" x2="272.1968" y1="438.9043" y2="438.9043"/><line style="stroke:#181818;stroke-width:1;" x1="272.1968" x2="272.1968" y1="438.9043" y2="451.9043"/><line style="stroke:#181818;stroke-width:1;" x1="231.1968" x2="272.1968" y1="451.9043" y2="451.9043"/><polygon fill="#181818" points="241.1968,447.9043,231.1968,451.9043,241.1968,455.9043,237.1968,451.9043" style="stroke:#181818;stroke-width:1;"/><text fill="#000000" font-family="sans-serif" font-size="13" lengthAdjust="spacing" textLength="83.3574" x="237.1968" y="434.1621">event_trigger</text></g><g><line style="stroke:#181818;stroke-width:1;" x1="230.1968" x2="272.1968" y1="486.2148" y2="486.2148"/><line style="stroke:#181818;stroke-width:1;" x1="272.1968" x2="272.1968" y1="486.2148" y2="499.2148"/><line style="stroke:#181818;stroke-width:1;" x1="231.1968" x2="272.1968" y1="499.2148" y2="499.2148"/><polygon fill="#181818" points="241.1968,495.2148,231.1968,499.2148,241.1968,503.2148,237.1968,499.2148" style="stroke:#181818;stroke-width:1;"/><text fill="#000000" font-family="sans-serif" font-size="13" lengthAdjust="spacing" textLength="108.7861" x="237.1968" y="481.4727">encrypt_message</text></g><g><polygon fill="#181818" points="372.1543,524.5254,382.1543,528.5254,372.1543,532.5254,376.1543,528.5254" style="stroke:#181818;stroke-width:1;"/><line style="stroke:#181818;stroke-width:1;" x1="230.1968" x2="378.1543" y1="528.5254" y2="528.5254"/><text fill="#000000" font-family="sans-serif" font-size="13" font-weight="bold" lengthAdjust="spacing" textLength="35.0708" x="237.1968" y="523.7832">POST</text><text fill="#000000" font-family="sans-serif" font-size="13" lengthAdjust="spacing" textLength="4.1133" x="272.2676" y="523.7832">&#160;</text><text fill="#000000" font-family="sans-serif" font-size="13" font-style="italic" lengthAdjust="spacing" textLength="95.7734" x="276.3809" y="523.7832">push/v1/notify</text></g><g><line style="stroke:#181818;stroke-width:1;" x1="226.1968" x2="236.1968" y1="557.8359" y2="553.8359"/><line style="stroke:#181818;stroke-width:1;" x1="226.1968" x2="236.1968" y1="557.8359" y2="561.8359"/><line style="stroke:#181818;stroke-width:1;stroke-dasharray:2.0,2.0;" x1="225.1968" x2="383.1543" y1="557.8359" y2="557.8359"/><text fill="#000000" font-family="sans-serif" font-size="13" lengthAdjust="spacing" textLength="38.2256" x="242.1968" y="553.0938">status</text></g><g><polygon fill="#181818" points="617.1108,583.1465,627.1108,587.1465,617.1108,591.1465,621.1108,587.1465" style="stroke:#181818;stroke-width:1;"/><line style="stroke:#181818;stroke-width:1;" x1="394.1543" x2="623.1108" y1="587.1465" y2="587.1465"/><text fill="#000000" font-family="sans-serif" font-size="13" lengthAdjust="spacing" textLength="187.2559" x="401.1543" y="582.4043">get_push_token(for: pushkey)</text></g><g><polygon fill="#181818" points="405.1543,612.457,395.1543,616.457,405.1543,620.457,401.1543,616.457" style="stroke:#181818;stroke-width:1;"/><line style="stroke:#181818;stroke-width:1;" x1="399.1543" x2="633.1108" y1="616.457" y2="616.457"/><text fill="#000000" font-family="sans-serif" font-size="13" lengthAdjust="spacing" textLength="73.2012" x="411.1543" y="611.7148">push_token</text></g><g><polygon fill="#181818" points="504.3652,641.7676,514.3652,645.7676,504.3652,649.7676,508.3652,645.7676" style="stroke:#181818;stroke-width:1;"/><line style="stroke:#181818;stroke-width:1;" x1="389.1543" x2="510.3652" y1="645.7676" y2="645.7676"/><text fill="#000000" font-family="sans-serif" font-size="13" lengthAdjust="spacing" textLength="67.5645" x="396.1543" y="641.0254">send_push</text></g><g><polygon fill="#181818" points="76.7354,671.0781,66.7354,675.0781,76.7354,679.0781,72.7354,675.0781" style="stroke:#181818;stroke-width:1;"/><line style="stroke:#181818;stroke-width:1;" x1="70.7354" x2="520.3652" y1="675.0781" y2="675.0781"/><text fill="#000000" font-family="sans-serif" font-size="13" lengthAdjust="spacing" textLength="30.9448" x="82.7354" y="670.3359">push</text></g><g><line style="stroke:#181818;stroke-width:1;" x1="65.7354" x2="107.7354" y1="704.3887" y2="704.3887"/><line style="stroke:#181818;stroke-width:1;" x1="107.7354" x2="107.7354" y1="704.3887" y2="717.3887"/><line style="stroke:#181818;stroke-width:1;" x1="66.7354" x2="107.7354" y1="717.3887" y2="717.3887"/><polygon fill="#181818" points="76.7354,713.3887,66.7354,717.3887,76.7354,721.3887,72.7354,717.3887" style="stroke:#181818;stroke-width:1;"/><text fill="#000000" font-family="sans-serif" font-size="13" lengthAdjust="spacing" textLength="125.4614" x="72.7354" y="699.6465">decrypt_notification</text></g><g><line style="stroke:#181818;stroke-width:1;" x1="65.7354" x2="107.7354" y1="746.6992" y2="746.6992"/><line style="stroke:#181818;stroke-width:1;" x1="107.7354" x2="107.7354" y1="746.6992" y2="759.6992"/><line style="stroke:#181818;stroke-width:1;" x1="66.7354" x2="107.7354" y1="759.6992" y2="759.6992"/><polygon fill="#181818" points="76.7354,755.6992,66.7354,759.6992,76.7354,763.6992,72.7354,759.6992" style="stroke:#181818;stroke-width:1;"/><text fill="#000000" font-family="sans-serif" font-size="13" lengthAdjust="spacing" textLength="110.9189" x="72.7354" y="741.957">show_notification</text></g><!--SRC=[hLInReCm5Dpv2ZTJ4YcWhXaYTMdKfKLDrIaIik25M04RsGyY_hus0M88a2Wg2yW-t_aUzzuB7Y454aDAaPt8GOgKkAwNvMdYE3H48SdiFVgT4Qh8MvOvm95XgTTeU8mOS8LxNcrU5rgCdwiZsLA4CorhrAT0Tc2XrX9y1x9W8RHmUu_uKXGi0hddSt1ZrsWdu6s5Y1DOt50rQASb- -08ajDatyYewf0lMQ4lD7GD9vOYpyWtn4oXhBOSeXzTXEfCPTyiw3TPRGRroLfN4eC836EGQVy1YXFqY0PlRX23bAlLPbDfhiamRmJJpFQbn_tNLpVS9oZdDrABheU9GXhSX8xbfnRhkvZwIPQN2qSemPnXIjbxrpHgo7BfV-r-balYUKOHfFAALqy1UbxNb9LXiswHz2cLRWmjoWz2fjUes0UkBXLIp5NVPATVeYPzE_rjskQUFXGww05A5iTrTfum0JoKPOP12ahH60RWmpdfrTCKanjWsQ_dM3f6Oz6hyPswZNCz6FHBikVw9xPP_B-OZrLll7llY3sWOiqXfPDKcPoQ4PssUdO-sTty-40Q6wlDfBj4arldRr7gACvTIDLAbhuX_mC0]--></g></svg>