<?plantuml 1.2026.1?><svg xmlns="http://www.w3.org/2000/svg" xmlns:xlink="http://www.w3.org/1999/xlink" contentStyleType="text/css" data-diagram-type="SEQUENCE" height="620px" preserveAspectRatio="none" style="width:871px;height:620px;background:#FFFFFF;" version="1.1" viewBox="0 0 871 620" width="871px" zoomAndPan="magnify"><defs/><g><g><title>FdV HKK</title><rect fill="#FFFFFF" height="407.7949" style="stroke:#181818;stroke-width:1;" width="10" x="116.1265" y="106.4883"/></g><g><title>Fachdienst TK</title><rect fill="#FFFFFF" height="29.3105" style="stroke:#181818;stroke-width:1;" width="10" x="239.916" y="152.1094"/></g><g><title>Fachdienst TK</title><rect fill="#FFFFFF" height="78.3105" style="stroke:#181818;stroke-width:1;" width="10" x="239.916" y="218.7305"/></g><g><title>Fachdienst HKK</title><rect fill="#FFFFFF" height="29.3105" style="stroke:#181818;stroke-width:1;" width="10" x="488.2632" y="340.3516"/></g><g><title>Fachdienst HKK</title><rect fill="#FFFFFF" height="78.3105" style="stroke:#181818;stroke-width:1;" width="10" x="488.2632" y="406.9727"/></g><g><title>Push Gateway HKK</title><rect fill="#FFFFFF" height="44" style="stroke:#181818;stroke-width:1;" width="10" x="658.4858" y="253.041"/></g><g><title>Push Gateway HKK</title><rect fill="#FFFFFF" height="44" style="stroke:#181818;stroke-width:1;" width="10" x="658.4858" y="441.2832"/></g><g><title>Apple.Google</title><rect fill="#FFFFFF" height="44" style="stroke:#181818;stroke-width:1;" width="10" x="784.8657" y="267.041"/></g><g><title>Apple.Google</title><rect fill="#FFFFFF" height="44" style="stroke:#181818;stroke-width:1;" width="10" x="784.8657" y="455.2832"/></g><rect fill="none" height="393.7949" style="stroke:#000000;stroke-width:1.5;" width="771.1548" x="78.8926" y="113.4883"/><g class="participant-lifeline" data-entity-uid="part1" data-qualified-name="App" id="part1-lifeline"><g><title>FdV TK</title><rect fill="#000000" fill-opacity="0.00000" height="427.7949" width="8" x="47.9463" y="96.4883"/><line style="stroke:#181818;stroke-width:0.5;stroke-dasharray:5,5;" x1="51" x2="51" y1="96.4883" y2="524.2832"/></g></g><g class="participant-lifeline" data-entity-uid="part2" data-qualified-name="App2" id="part2-lifeline"><g><title>FdV HKK</title><rect fill="#000000" fill-opacity="0.00000" height="427.7949" width="8" x="117.1265" y="96.4883"/><line style="stroke:#181818;stroke-width:0.5;stroke-dasharray:5,5;" x1="120.8926" x2="120.8926" y1="96.4883" y2="524.2832"/></g></g><g class="participant-lifeline" data-entity-uid="part3" data-qualified-name="Fachdienst" id="part3-lifeline"><g><title>Fachdienst TK</title><rect fill="#000000" fill-opacity="0.00000" height="427.7949" width="8" x="240.916" y="96.4883"/><line style="stroke:#181818;stroke-width:0.5;stroke-dasharray:5,5;" x1="244.2969" x2="244.2969" y1="96.4883" y2="524.2832"/></g></g><g class="participant-lifeline" data-entity-uid="part4" data-qualified-name="NotificationService" id="part4-lifeline"><g><title>Push Gateway TK</title><rect fill="#000000" fill-opacity="0.00000" height="427.7949" width="8" x="362.4458" y="96.4883"/><line style="stroke:#181818;stroke-width:0.5;stroke-dasharray:5,5;" x1="365.5352" x2="365.5352" y1="96.4883" y2="524.2832"/></g></g><g class="participant-lifeline" data-entity-uid="part5" data-qualified-name="Fachdienst2" id="part5-lifeline"><g><title>Fachdienst HKK</title><rect fill="#000000" fill-opacity="0.00000" height="427.7949" width="8" x="489.2632" y="96.4883"/><line style="stroke:#181818;stroke-width:0.5;stroke-dasharray:5,5;" x1="492.3564" x2="492.3564" y1="96.4883" y2="524.2832"/></g></g><g class="participant-lifeline" data-entity-uid="part6" data-qualified-name="NotificationService2" id="part6-lifeline"><g><title>Push Gateway HKK</title><rect fill="#000000" fill-opacity="0.00000" height="427.7949" width="8" x="659.4858" y="96.4883"/><line style="stroke:#181818;stroke-width:0.5;stroke-dasharray:5,5;" x1="663.2876" x2="663.2876" y1="96.4883" y2="524.2832"/></g></g><g class="participant-lifeline" data-entity-uid="part7" data-qualified-name="NotificationProvider" id="part7-lifeline"><g><title>Apple.Google</title><rect fill="#000000" fill-opacity="0.00000" height="427.7949" width="8" x="785.8657" y="96.4883"/><line style="stroke:#181818;stroke-width:0.5;stroke-dasharray:5,5;" x1="789.6841" x2="789.6841" y1="96.4883" y2="524.2832"/></g></g><g class="participant participant-head" data-entity-uid="part1" data-qualified-name="App" id="part1-head"><text fill="#000000" font-family="sans-serif" font-size="14" lengthAdjust="spacing" textLength="47.8926" x="25" y="93.5352">FdV TK</text><ellipse cx="51.9463" cy="28.5" fill="#E2E2F0" rx="8" ry="8" style="stroke:#181818;stroke-width:0.5;"/><path d="M51.9463,36.5 L51.9463,63.5 M38.9463,44.5 L64.9463,44.5 M51.9463,63.5 L38.9463,78.5 M51.9463,63.5 L64.9463,78.5" fill="none" style="stroke:#181818;stroke-width:0.5;"/></g><g class="participant participant-tail" data-entity-uid="part1" data-qualified-name="App" id="part1-tail"><text fill="#000000" font-family="sans-serif" font-size="14" lengthAdjust="spacing" textLength="47.8926" x="25" y="536.8184">FdV TK</text><ellipse cx="51.9463" cy="548.2715" fill="#E2E2F0" rx="8" ry="8" style="stroke:#181818;stroke-width:0.5;"/><path d="M51.9463,556.2715 L51.9463,583.2715 M38.9463,564.2715 L64.9463,564.2715 M51.9463,583.2715 L38.9463,598.2715 M51.9463,583.2715 L64.9463,598.2715" fill="none" style="stroke:#181818;stroke-width:0.5;"/></g><g class="participant participant-head" data-entity-uid="part2" data-qualified-name="App2" id="part2-head"><text fill="#000000" font-family="sans-serif" font-size="14" lengthAdjust="spacing" textLength="58.4678" x="88.8926" y="93.5352">FdV HKK</text><ellipse cx="121.1265" cy="28.5" fill="#E2E2F0" rx="8" ry="8" style="stroke:#181818;stroke-width:0.5;"/><path d="M121.1265,36.5 L121.1265,63.5 M108.1265,44.5 L134.1265,44.5 M121.1265,63.5 L108.1265,78.5 M121.1265,63.5 L134.1265,78.5" fill="none" style="stroke:#181818;stroke-width:0.5;"/></g><g class="participant participant-tail" data-entity-uid="part2" data-qualified-name="App2" id="part2-tail"><text fill="#000000" font-family="sans-serif" font-size="14" lengthAdjust="spacing" textLength="58.4678" x="88.8926" y="536.8184">FdV HKK</text><ellipse cx="121.1265" cy="548.2715" fill="#E2E2F0" rx="8" ry="8" style="stroke:#181818;stroke-width:0.5;"/><path d="M121.1265,556.2715 L121.1265,583.2715 M108.1265,564.2715 L134.1265,564.2715 M121.1265,583.2715 L108.1265,598.2715 M121.1265,583.2715 L134.1265,598.2715" fill="none" style="stroke:#181818;stroke-width:0.5;"/></g><g class="participant participant-head" data-entity-uid="part3" data-qualified-name="Fachdienst" id="part3-head"><text fill="#000000" font-family="sans-serif" font-size="14" lengthAdjust="spacing" textLength="95.2383" x="194.2969" y="93.5352">Fachdienst TK</text><ellipse cx="244.916" cy="64" fill="#E2E2F0" rx="12" ry="12" style="stroke:#181818;stroke-width:0.5;"/><line style="stroke:#181818;stroke-width:0.5;" x1="232.916" x2="256.916" y1="78" y2="78"/></g><g class="participant participant-tail" data-entity-uid="part3" data-qualified-name="Fachdienst" id="part3-tail"><text fill="#000000" font-family="sans-serif" font-size="14" lengthAdjust="spacing" textLength="95.2383" x="194.2969" y="536.8184">Fachdienst TK</text><ellipse cx="244.916" cy="555.7715" fill="#E2E2F0" rx="12" ry="12" style="stroke:#181818;stroke-width:0.5;"/><line style="stroke:#181818;stroke-width:0.5;" x1="232.916" x2="256.916" y1="569.7715" y2="569.7715"/></g><g class="participant participant-head" data-entity-uid="part4" data-qualified-name="NotificationService" id="part4-head"><text fill="#000000" font-family="sans-serif" font-size="14" lengthAdjust="spacing" textLength="115.8213" x="305.5352" y="93.5352">Push Gateway TK</text><ellipse cx="366.4458" cy="64" fill="#E2E2F0" rx="12" ry="12" style="stroke:#181818;stroke-width:0.5;"/><line style="stroke:#181818;stroke-width:0.5;" x1="354.4458" x2="378.4458" y1="78" y2="78"/></g><g class="participant participant-tail" data-entity-uid="part4" data-qualified-name="NotificationService" id="part4-tail"><text fill="#000000" font-family="sans-serif" font-size="14" lengthAdjust="spacing" textLength="115.8213" x="305.5352" y="536.8184">Push Gateway TK</text><ellipse cx="366.4458" cy="555.7715" fill="#E2E2F0" rx="12" ry="12" style="stroke:#181818;stroke-width:0.5;"/><line style="stroke:#181818;stroke-width:0.5;" x1="354.4458" x2="378.4458" y1="569.7715" y2="569.7715"/></g><g class="participant participant-head" data-entity-uid="part5" data-qualified-name="Fachdienst2" id="part5-head"><text fill="#000000" font-family="sans-serif" font-size="14" lengthAdjust="spacing" textLength="105.8135" x="437.3564" y="93.5352">Fachdienst HKK</text><ellipse cx="493.2632" cy="64" fill="#E2E2F0" rx="12" ry="12" style="stroke:#181818;stroke-width:0.5;"/><line style="stroke:#181818;stroke-width:0.5;" x1="481.2632" x2="505.2632" y1="78" y2="78"/></g><g class="participant participant-tail" data-entity-uid="part5" data-qualified-name="Fachdienst2" id="part5-tail"><text fill="#000000" font-family="sans-serif" font-size="14" lengthAdjust="spacing" textLength="105.8135" x="437.3564" y="536.8184">Fachdienst HKK</text><ellipse cx="493.2632" cy="555.7715" fill="#E2E2F0" rx="12" ry="12" style="stroke:#181818;stroke-width:0.5;"/><line style="stroke:#181818;stroke-width:0.5;" x1="481.2632" x2="505.2632" y1="569.7715" y2="569.7715"/></g><g class="participant participant-head" data-entity-uid="part6" data-qualified-name="NotificationService2" id="part6-head"><text fill="#000000" font-family="sans-serif" font-size="14" lengthAdjust="spacing" textLength="126.3965" x="597.2876" y="93.5352">Push Gateway HKK</text><ellipse cx="663.4858" cy="64" fill="#E2E2F0" rx="12" ry="12" style="stroke:#181818;stroke-width:0.5;"/><line style="stroke:#181818;stroke-width:0.5;" x1="651.4858" x2="675.4858" y1="78" y2="78"/></g><g class="participant participant-tail" data-entity-uid="part6" data-qualified-name="NotificationService2" id="part6-tail"><text fill="#000000" font-family="sans-serif" font-size="14" lengthAdjust="spacing" textLength="126.3965" x="597.2876" y="536.8184">Push Gateway HKK</text><ellipse cx="663.4858" cy="555.7715" fill="#E2E2F0" rx="12" ry="12" style="stroke:#181818;stroke-width:0.5;"/><line style="stroke:#181818;stroke-width:0.5;" x1="651.4858" x2="675.4858" y1="569.7715" y2="569.7715"/></g><g class="participant participant-head" data-entity-uid="part7" data-qualified-name="NotificationProvider" id="part7-head"><text fill="#000000" font-family="sans-serif" font-size="14" lengthAdjust="spacing" textLength="94.3633" x="739.6841" y="93.5352">Apple/Google</text><ellipse cx="789.8657" cy="64" fill="#E2E2F0" rx="12" ry="12" style="stroke:#181818;stroke-width:0.5;"/><line style="stroke:#181818;stroke-width:0.5;" x1="777.8657" x2="801.8657" y1="78" y2="78"/></g><g class="participant participant-tail" data-entity-uid="part7" data-qualified-name="NotificationProvider" id="part7-tail"><text fill="#000000" font-family="sans-serif" font-size="14" lengthAdjust="spacing" textLength="94.3633" x="739.6841" y="536.8184">Apple/Google</text><ellipse cx="789.8657" cy="555.7715" fill="#E2E2F0" rx="12" ry="12" style="stroke:#181818;stroke-width:0.5;"/><line style="stroke:#181818;stroke-width:0.5;" x1="777.8657" x2="801.8657" y1="569.7715" y2="569.7715"/></g><g><title>FdV HKK</title><rect fill="#FFFFFF" height="407.7949" style="stroke:#181818;stroke-width:1;" width="10" x="116.1265" y="106.4883"/></g><g><title>Fachdienst TK</title><rect fill="#FFFFFF" height="29.3105" style="stroke:#181818;stroke-width:1;" width="10" x="239.916" y="152.1094"/></g><g><title>Fachdienst TK</title><rect fill="#FFFFFF" height="78.3105" style="stroke:#181818;stroke-width:1;" width="10" x="239.916" y="218.7305"/></g><g><title>Fachdienst HKK</title><rect fill="#FFFFFF" height="29.3105" style="stroke:#181818;stroke-width:1;" width="10" x="488.2632" y="340.3516"/></g><g><title>Fachdienst HKK</title><rect fill="#FFFFFF" height="78.3105" style="stroke:#181818;stroke-width:1;" width="10" x="488.2632" y="406.9727"/></g><g><title>Push Gateway HKK</title><rect fill="#FFFFFF" height="44" style="stroke:#181818;stroke-width:1;" width="10" x="658.4858" y="253.041"/></g><g><title>Push Gateway HKK</title><rect fill="#FFFFFF" height="44" style="stroke:#181818;stroke-width:1;" width="10" x="658.4858" y="441.2832"/></g><g><title>Apple.Google</title><rect fill="#FFFFFF" height="44" style="stroke:#181818;stroke-width:1;" width="10" x="784.8657" y="267.041"/></g><g><title>Apple.Google</title><rect fill="#FFFFFF" height="44" style="stroke:#181818;stroke-width:1;" width="10" x="784.8657" y="455.2832"/></g><path d="M78.8926,113.4883 L188.4863,113.4883 L188.4863,120.7988 L178.4863,130.7988 L78.8926,130.7988 L78.8926,113.4883" fill="#EEEEEE" style="stroke:#000000;stroke-width:1.5;"/><rect fill="none" height="393.7949" style="stroke:#000000;stroke-width:1.5;" width="771.1548" x="78.8926" y="113.4883"/><text fill="#000000" font-family="sans-serif" font-size="13" font-weight="bold" lengthAdjust="spacing" textLength="64.5938" x="93.8926" y="127.0566">SendPush</text><g class="message" data-entity-1="part2" data-entity-2="part3" id="msg1"><polygon fill="#181818" points="227.916,148.1094,237.916,152.1094,227.916,156.1094,231.916,152.1094" style="stroke:#181818;stroke-width:1;"/><line style="stroke:#181818;stroke-width:1;" x1="126.1265" x2="233.916" y1="152.1094" y2="152.1094"/><text fill="#000000" font-family="sans-serif" font-size="13" lengthAdjust="spacing" textLength="94.7896" x="133.1265" y="147.3672">register_device</text></g><g class="message" data-entity-1="part3" data-entity-2="part2" id="msg2"><polygon fill="#181818" points="137.1265,177.4199,127.1265,181.4199,137.1265,185.4199,133.1265,181.4199" style="stroke:#181818;stroke-width:1;"/><line style="stroke:#181818;stroke-width:1;" x1="131.1265" x2="243.916" y1="181.4199" y2="181.4199"/><text fill="#000000" font-family="sans-serif" font-size="13" lengthAdjust="spacing" textLength="38.8794" x="143.1265" y="176.6777">return</text></g><g class="message" data-entity-1="part3" data-entity-2="part3" id="msg3"><line style="stroke:#181818;stroke-width:1;" x1="244.916" x2="291.916" y1="205.7305" y2="205.7305"/><line style="stroke:#181818;stroke-width:1;" x1="291.916" x2="291.916" y1="205.7305" y2="218.7305"/><line style="stroke:#181818;stroke-width:1;" x1="250.916" x2="291.916" y1="218.7305" y2="218.7305"/><polygon fill="#181818" points="260.916,214.7305,250.916,218.7305,260.916,222.7305,256.916,218.7305" style="stroke:#181818;stroke-width:1;"/><text fill="#000000" font-family="sans-serif" font-size="13" lengthAdjust="spacing" textLength="83.3574" x="256.916" y="200.9883">event_trigger</text></g><g class="message" data-entity-1="part3" data-entity-2="part6" id="msg4"><polygon fill="#181818" points="646.4858,249.041,656.4858,253.041,646.4858,257.041,650.4858,253.041" style="stroke:#181818;stroke-width:1;"/><line style="stroke:#181818;stroke-width:1;" x1="249.916" x2="652.4858" y1="253.041" y2="253.041"/><text fill="#000000" font-family="sans-serif" font-size="13" font-weight="bold" lengthAdjust="spacing" textLength="35.0708" x="256.916" y="248.2988">POST</text><text fill="#000000" font-family="sans-serif" font-size="13" lengthAdjust="spacing" textLength="4.1133" x="291.9868" y="248.2988">&#160;</text><text fill="#000000" font-family="sans-serif" font-size="13" font-style="italic" lengthAdjust="spacing" textLength="102.0386" x="296.1001" y="248.2988">push/v1/notify*</text></g><g class="message" data-entity-1="part6" data-entity-2="part7" id="msg5"><line style="stroke:#181818;stroke-width:1;" x1="782.8657" x2="772.8657" y1="267.041" y2="263.041"/><line style="stroke:#181818;stroke-width:1;" x1="782.8657" x2="772.8657" y1="267.041" y2="271.041"/><line style="stroke:#181818;stroke-width:1;stroke-dasharray:2,2;" x1="668.4858" x2="783.8657" y1="267.041" y2="267.041"/></g><g class="message" data-entity-1="part7" data-entity-2="part2" id="msg6"><polygon fill="#181818" points="137.1265,307.041,127.1265,311.041,137.1265,315.041,133.1265,311.041" style="stroke:#181818;stroke-width:1;"/><line style="stroke:#181818;stroke-width:1;" x1="131.1265" x2="788.8657" y1="311.041" y2="311.041"/></g><g class="message" data-entity-1="part2" data-entity-2="part5" id="msg7"><polygon fill="#181818" points="476.2632,336.3516,486.2632,340.3516,476.2632,344.3516,480.2632,340.3516" style="stroke:#181818;stroke-width:1;"/><line style="stroke:#181818;stroke-width:1;" x1="126.1265" x2="482.2632" y1="340.3516" y2="340.3516"/><text fill="#000000" font-family="sans-serif" font-size="13" lengthAdjust="spacing" textLength="94.7896" x="133.1265" y="335.6094">register_device</text></g><g class="message" data-entity-1="part5" data-entity-2="part2" id="msg8"><polygon fill="#181818" points="137.1265,365.6621,127.1265,369.6621,137.1265,373.6621,133.1265,369.6621" style="stroke:#181818;stroke-width:1;"/><line style="stroke:#181818;stroke-width:1;" x1="131.1265" x2="492.2632" y1="369.6621" y2="369.6621"/><text fill="#000000" font-family="sans-serif" font-size="13" lengthAdjust="spacing" textLength="38.8794" x="143.1265" y="364.9199">return</text></g><g class="message" data-entity-1="part5" data-entity-2="part5" id="msg9"><line style="stroke:#181818;stroke-width:1;" x1="493.2632" x2="540.2632" y1="393.9727" y2="393.9727"/><line style="stroke:#181818;stroke-width:1;" x1="540.2632" x2="540.2632" y1="393.9727" y2="406.9727"/><line style="stroke:#181818;stroke-width:1;" x1="499.2632" x2="540.2632" y1="406.9727" y2="406.9727"/><polygon fill="#181818" points="509.2632,402.9727,499.2632,406.9727,509.2632,410.9727,505.2632,406.9727" style="stroke:#181818;stroke-width:1;"/><text fill="#000000" font-family="sans-serif" font-size="13" lengthAdjust="spacing" textLength="83.3574" x="505.2632" y="389.2305">event_trigger</text></g><g class="message" data-entity-1="part5" data-entity-2="part6" id="msg10"><polygon fill="#181818" points="646.4858,437.2832,656.4858,441.2832,646.4858,445.2832,650.4858,441.2832" style="stroke:#181818;stroke-width:1;"/><line style="stroke:#181818;stroke-width:1;" x1="498.2632" x2="652.4858" y1="441.2832" y2="441.2832"/><text fill="#000000" font-family="sans-serif" font-size="13" font-weight="bold" lengthAdjust="spacing" textLength="35.0708" x="505.2632" y="436.541">POST</text><text fill="#000000" font-family="sans-serif" font-size="13" lengthAdjust="spacing" textLength="4.1133" x="540.334" y="436.541">&#160;</text><text fill="#000000" font-family="sans-serif" font-size="13" font-style="italic" lengthAdjust="spacing" textLength="102.0386" x="544.4473" y="436.541">push/v1/notify*</text></g><g class="message" data-entity-1="part6" data-entity-2="part7" id="msg11"><line style="stroke:#181818;stroke-width:1;" x1="782.8657" x2="772.8657" y1="455.2832" y2="451.2832"/><line style="stroke:#181818;stroke-width:1;" x1="782.8657" x2="772.8657" y1="455.2832" y2="459.2832"/><line style="stroke:#181818;stroke-width:1;stroke-dasharray:2,2;" x1="668.4858" x2="783.8657" y1="455.2832" y2="455.2832"/></g><g class="message" data-entity-1="part7" data-entity-2="part2" id="msg12"><polygon fill="#181818" points="137.1265,495.2832,127.1265,499.2832,137.1265,503.2832,133.1265,499.2832" style="stroke:#181818;stroke-width:1;"/><line style="stroke:#181818;stroke-width:1;" x1="131.1265" x2="788.8657" y1="499.2832" y2="499.2832"/></g><?plantuml-src vLJ1QeGm4BtdAz8z2ZOqnnw4Nhg5XLPmwNKHCtL3DP4OBLxwxKqiMNKxMopqjfx2vBqtRru6RwGggau0RRgwYkqHQeXBg7ChtszzYP2yiDhGpQDufVlTXkOjVMYQUVLfTofp0ifAExYBl3WA2QgrWJLLJg2qQuzqcrluo8S0UzPMlid26T0g0zFB0Z3Hq7GgSLms017TYU6iLy2sMfSL_42dHlTIW26aDBfhQ0PA-1Q4ki_b87lNwdlwiUHFD4vcrkWzDL3Are8v21X7Md1dqVZwZEXaHZalO3kZndi161EXBXn0xwOzM2FBqisolZyMd9EBelGbsqSHPQnnOR3-ZYcF73uZnfRoQFGUWKh7SPBW-LyKNI1cwLniZ2TuRYd8XbVuJNvQ4dm5-FeTu6UFmF-m1PnWvAMDLOk0chYQLU3_j0lk1oF833Kolm00?></g></svg>