<svg xmlns="http://www.w3.org/2000/svg" xmlns:xlink="http://www.w3.org/1999/xlink" contentStyleType="text/css" data-diagram-type="SEQUENCE" height="530px" preserveAspectRatio="none" style="width:570px;height:530px;background:#FFFFFF;" version="1.1" viewBox="0 0 570 530" width="570px" zoomAndPan="magnify"><defs/><g><g><title>FdV</title><rect fill="#FFFFFF" height="99.6211" style="stroke:#181818;stroke-width:1;" width="10" x="50.7354" y="324.6621"/></g><g><title>Fachdienst</title><rect fill="#FFFFFF" height="105.9316" style="stroke:#181818;stroke-width:1;" width="10" x="210.1968" y="160.1094"/></g><g><title>Push Gateway</title><rect fill="#FFFFFF" height="58.6211" style="stroke:#181818;stroke-width:1;" width="10" x="374.1543" y="236.7305"/></g><g><title>Apple/Google</title><rect fill="#FFFFFF" height="29.3105" style="stroke:#181818;stroke-width:1;" width="10" x="484.0356" y="295.3516"/></g><rect fill="transparent" height="303.7949" style="stroke:#000000;stroke-width:1.5;" width="519.2173" x="30" y="113.4883"/><g><title>FdV</title><rect fill="transparent" height="337.7949" width="8" x="51.7354" y="96.4883"/><line style="stroke:#181818;stroke-width:0.5;stroke-dasharray:5.0,5.0;" x1="55" x2="55" y1="96.4883" y2="434.2832"/></g><g><title>Fachdienst</title><rect fill="transparent" height="337.7949" width="8" x="211.1968" y="96.4883"/><line style="stroke:#181818;stroke-width:0.5;stroke-dasharray:5.0,5.0;" x1="214.7886" x2="214.7886" y1="96.4883" y2="434.2832"/></g><g><title>Push Gateway</title><rect fill="transparent" height="337.7949" width="8" x="375.1543" y="96.4883"/><line style="stroke:#181818;stroke-width:0.5;stroke-dasharray:5.0,5.0;" x1="378.4546" x2="378.4546" y1="96.4883" y2="434.2832"/></g><g><title>Apple/Google</title><rect fill="transparent" height="337.7949" width="8" x="485.0356" y="96.4883"/><line style="stroke:#181818;stroke-width:0.5;stroke-dasharray:5.0,5.0;" x1="488.854" x2="488.854" y1="96.4883" y2="434.2832"/></g><text fill="#000000" font-family="sans-serif" font-size="14" lengthAdjust="spacing" textLength="25.4707" x="40" y="93.5352">FdV</text><ellipse cx="55.7354" cy="28.5" fill="#E2E2F0" rx="8" ry="8" style="stroke:#181818;stroke-width:0.5;"/><path d="M55.7354,36.5 L55.7354,63.5 M42.7354,44.5 L68.7354,44.5 M55.7354,63.5 L42.7354,78.5 M55.7354,63.5 L68.7354,78.5 " fill="transparent" style="stroke:#181818;stroke-width:0.5;"/><text fill="#000000" font-family="sans-serif" font-size="14" lengthAdjust="spacing" textLength="25.4707" x="40" y="446.8184">FdV</text><ellipse cx="55.7354" cy="458.2715" fill="#E2E2F0" rx="8" ry="8" style="stroke:#181818;stroke-width:0.5;"/><path d="M55.7354,466.2715 L55.7354,493.2715 M42.7354,474.2715 L68.7354,474.2715 M55.7354,493.2715 L42.7354,508.2715 M55.7354,493.2715 L68.7354,508.2715 " fill="transparent" style="stroke:#181818;stroke-width:0.5;"/><text fill="#000000" font-family="sans-serif" font-size="14" lengthAdjust="spacing" textLength="72.8164" x="175.7886" y="93.5352">Fachdienst</text><ellipse cx="215.1968" cy="64" fill="#E2E2F0" rx="12" ry="12" style="stroke:#181818;stroke-width:0.5;"/><line style="stroke:#181818;stroke-width:0.5;" x1="203.1968" x2="227.1968" y1="78" y2="78"/><text fill="#000000" font-family="sans-serif" font-size="14" lengthAdjust="spacing" textLength="72.8164" x="175.7886" y="446.8184">Fachdienst</text><ellipse cx="215.1968" cy="465.7715" fill="#E2E2F0" rx="12" ry="12" style="stroke:#181818;stroke-width:0.5;"/><line style="stroke:#181818;stroke-width:0.5;" x1="203.1968" x2="227.1968" y1="479.7715" y2="479.7715"/><text fill="#000000" font-family="sans-serif" font-size="14" lengthAdjust="spacing" textLength="93.3994" x="329.4546" y="93.5352">Push Gateway</text><ellipse cx="379.1543" cy="64" fill="#E2E2F0" rx="12" ry="12" style="stroke:#181818;stroke-width:0.5;"/><line style="stroke:#181818;stroke-width:0.5;" x1="367.1543" x2="391.1543" y1="78" y2="78"/><text fill="#000000" font-family="sans-serif" font-size="14" lengthAdjust="spacing" textLength="93.3994" x="329.4546" y="446.8184">Push Gateway</text><ellipse cx="379.1543" cy="465.7715" fill="#E2E2F0" rx="12" ry="12" style="stroke:#181818;stroke-width:0.5;"/><line style="stroke:#181818;stroke-width:0.5;" x1="367.1543" x2="391.1543" y1="479.7715" y2="479.7715"/><text fill="#000000" font-family="sans-serif" font-size="14" lengthAdjust="spacing" textLength="94.3633" x="438.854" y="93.5352">Apple/Google</text><ellipse cx="489.0356" cy="64" fill="#E2E2F0" rx="12" ry="12" style="stroke:#181818;stroke-width:0.5;"/><line style="stroke:#181818;stroke-width:0.5;" x1="477.0356" x2="501.0356" y1="78" y2="78"/><text fill="#000000" font-family="sans-serif" font-size="14" lengthAdjust="spacing" textLength="94.3633" x="438.854" y="446.8184">Apple/Google</text><ellipse cx="489.0356" cy="465.7715" fill="#E2E2F0" rx="12" ry="12" style="stroke:#181818;stroke-width:0.5;"/><line style="stroke:#181818;stroke-width:0.5;" x1="477.0356" x2="501.0356" y1="479.7715" y2="479.7715"/><g><title>FdV</title><rect fill="#FFFFFF" height="99.6211" style="stroke:#181818;stroke-width:1;" width="10" x="50.7354" y="324.6621"/></g><g><title>Fachdienst</title><rect fill="#FFFFFF" height="105.9316" style="stroke:#181818;stroke-width:1;" width="10" x="210.1968" y="160.1094"/></g><g><title>Push Gateway</title><rect fill="#FFFFFF" height="58.6211" style="stroke:#181818;stroke-width:1;" width="10" x="374.1543" y="236.7305"/></g><g><title>Apple/Google</title><rect fill="#FFFFFF" height="29.3105" style="stroke:#181818;stroke-width:1;" width="10" x="484.0356" y="295.3516"/></g><path d="M30,113.4883 L139.5938,113.4883 L139.5938,120.7988 L129.5938,130.7988 L30,130.7988 L30,113.4883 " fill="#EEEEEE" style="stroke:#000000;stroke-width:1.5;"/><rect fill="transparent" height="303.7949" style="stroke:#000000;stroke-width:1.5;" width="519.2173" x="30" y="113.4883"/><text fill="#000000" font-family="sans-serif" font-size="13" font-weight="bold" lengthAdjust="spacing" textLength="64.5938" x="45" y="127.0566">SendPush</text><line style="stroke:#181818;stroke-width:1;" x1="215.1968" x2="262.1968" y1="147.1094" y2="147.1094"/><line style="stroke:#181818;stroke-width:1;" x1="262.1968" x2="262.1968" y1="147.1094" y2="160.1094"/><line style="stroke:#181818;stroke-width:1;" x1="221.1968" x2="262.1968" y1="160.1094" y2="160.1094"/><polygon fill="#181818" points="231.1968,156.1094,221.1968,160.1094,231.1968,164.1094,227.1968,160.1094" style="stroke:#181818;stroke-width:1;"/><text fill="#000000" font-family="sans-serif" font-size="13" lengthAdjust="spacing" textLength="83.3574" x="227.1968" y="142.3672">event_trigger</text><line style="stroke:#181818;stroke-width:1;" x1="220.1968" x2="262.1968" y1="194.4199" y2="194.4199"/><line style="stroke:#181818;stroke-width:1;" x1="262.1968" x2="262.1968" y1="194.4199" y2="207.4199"/><line style="stroke:#181818;stroke-width:1;" x1="221.1968" x2="262.1968" y1="207.4199" y2="207.4199"/><polygon fill="#181818" points="231.1968,203.4199,221.1968,207.4199,231.1968,211.4199,227.1968,207.4199" style="stroke:#181818;stroke-width:1;"/><text fill="#000000" font-family="sans-serif" font-size="13" lengthAdjust="spacing" textLength="108.7861" x="227.1968" y="189.6777">encrypt_message</text><polygon fill="#181818" points="362.1543,232.7305,372.1543,236.7305,362.1543,240.7305,366.1543,236.7305" style="stroke:#181818;stroke-width:1;"/><line style="stroke:#181818;stroke-width:1;" x1="220.1968" x2="368.1543" y1="236.7305" y2="236.7305"/><text fill="#000000" font-family="sans-serif" font-size="13" font-weight="bold" lengthAdjust="spacing" textLength="35.0708" x="227.1968" y="231.9883">POST</text><text fill="#000000" font-family="sans-serif" font-size="13" lengthAdjust="spacing" textLength="4.1133" x="262.2676" y="231.9883">&#160;</text><text fill="#000000" font-family="sans-serif" font-size="13" font-style="italic" lengthAdjust="spacing" textLength="95.7734" x="266.3809" y="231.9883">push/v1/notify</text><line style="stroke:#181818;stroke-width:1;" x1="216.1968" x2="226.1968" y1="266.041" y2="262.041"/><line style="stroke:#181818;stroke-width:1;" x1="216.1968" x2="226.1968" y1="266.041" y2="270.041"/><line style="stroke:#181818;stroke-width:1;stroke-dasharray:2.0,2.0;" x1="215.1968" x2="373.1543" y1="266.041" y2="266.041"/><text fill="#000000" font-family="sans-serif" font-size="13" lengthAdjust="spacing" textLength="38.2256" x="232.1968" y="261.2988">status</text><polygon fill="#181818" points="472.0356,291.3516,482.0356,295.3516,472.0356,299.3516,476.0356,295.3516" style="stroke:#181818;stroke-width:1;"/><line style="stroke:#181818;stroke-width:1;" x1="379.1543" x2="478.0356" y1="295.3516" y2="295.3516"/><text fill="#000000" font-family="sans-serif" font-size="13" lengthAdjust="spacing" textLength="67.5645" x="386.1543" y="290.6094">send_push</text><polygon fill="#181818" points="71.7354,320.6621,61.7354,324.6621,71.7354,328.6621,67.7354,324.6621" style="stroke:#181818;stroke-width:1;"/><line style="stroke:#181818;stroke-width:1;" x1="65.7354" x2="488.0356" y1="324.6621" y2="324.6621"/><text fill="#000000" font-family="sans-serif" font-size="13" lengthAdjust="spacing" textLength="30.9448" x="77.7354" y="319.9199">push</text><line style="stroke:#181818;stroke-width:1;" x1="60.7354" x2="102.7354" y1="353.9727" y2="353.9727"/><line style="stroke:#181818;stroke-width:1;" x1="102.7354" x2="102.7354" y1="353.9727" y2="366.9727"/><line style="stroke:#181818;stroke-width:1;" x1="61.7354" x2="102.7354" y1="366.9727" y2="366.9727"/><polygon fill="#181818" points="71.7354,362.9727,61.7354,366.9727,71.7354,370.9727,67.7354,366.9727" style="stroke:#181818;stroke-width:1;"/><text fill="#000000" font-family="sans-serif" font-size="13" lengthAdjust="spacing" textLength="125.4614" x="67.7354" y="349.2305">decrypt_notification</text><line style="stroke:#181818;stroke-width:1;" x1="60.7354" x2="102.7354" y1="396.2832" y2="396.2832"/><line style="stroke:#181818;stroke-width:1;" x1="102.7354" x2="102.7354" y1="396.2832" y2="409.2832"/><line style="stroke:#181818;stroke-width:1;" x1="61.7354" x2="102.7354" y1="409.2832" y2="409.2832"/><polygon fill="#181818" points="71.7354,405.2832,61.7354,409.2832,71.7354,413.2832,67.7354,409.2832" style="stroke:#181818;stroke-width:1;"/><text fill="#000000" font-family="sans-serif" font-size="13" lengthAdjust="spacing" textLength="110.9189" x="67.7354" y="391.541">show_notification</text><!--SRC=[XP8_RyCW4CLtFWNDQCb1NJjOwj9iZILNNIraBXZL1WJOaRzz3rVrduGeti3lVk_T7I-XXHweX9u7zKClplJqU6Hsw3j2U1ECeuSFyNsWtDDtQmdeeCA4TxnfXGBjm_nhFIwASl0jFV40LpxDcayJr4Krw6Dq1MvK3InYH7V0JiR83kx4fJEZ4k08aSuCbbQWHQGJYj_gJFDYUtgZC2A-3av9YSLHZ0sf4IDjypw3wCPDDjGzUCyb9EI9lh0koyfpzPLbbE4mVSl6LwQZS69i7oKrbYX8OVEyk8dd0m-3dmi4F6elYIgICuv876zj_-UxeQQIFkvbsTfjWiKA8-3UqV6PsVe0TcxnFSQB25bO0lxsfJVrzohVckjUWasJZNra_m80]--></g></svg>