<svg xmlns="http://www.w3.org/2000/svg" xmlns:xlink="http://www.w3.org/1999/xlink" contentStyleType="text/css" data-diagram-type="SEQUENCE" height="620px" preserveAspectRatio="none" style="width:864px;height:620px;background:#FFFFFF;" version="1.1" viewBox="0 0 864 620" width="864px" zoomAndPan="magnify"><defs/><g><g><title>FdV HKK</title><rect fill="#FFFFFF" height="407.7949" style="stroke:#181818;stroke-width:1;" width="10" x="116.1265" y="106.4883"/></g><g><title>Fachdienst TK</title><rect fill="#FFFFFF" height="29.3105" style="stroke:#181818;stroke-width:1;" width="10" x="239.916" y="152.1094"/></g><g><title>Fachdienst TK</title><rect fill="#FFFFFF" height="78.3105" style="stroke:#181818;stroke-width:1;" width="10" x="239.916" y="218.7305"/></g><g><title>Fachdienst HKK</title><rect fill="#FFFFFF" height="29.3105" style="stroke:#181818;stroke-width:1;" width="10" x="488.2632" y="340.3516"/></g><g><title>Fachdienst HKK</title><rect fill="#FFFFFF" height="78.3105" style="stroke:#181818;stroke-width:1;" width="10" x="488.2632" y="406.9727"/></g><g><title>Push Gateway HKK</title><rect fill="#FFFFFF" height="44" style="stroke:#181818;stroke-width:1;" width="10" x="652.2207" y="253.041"/></g><g><title>Push Gateway HKK</title><rect fill="#FFFFFF" height="44" style="stroke:#181818;stroke-width:1;" width="10" x="652.2207" y="441.2832"/></g><g><title>Apple/Google</title><rect fill="#FFFFFF" height="44" style="stroke:#181818;stroke-width:1;" width="10" x="778.6006" y="267.041"/></g><g><title>Apple/Google</title><rect fill="#FFFFFF" height="44" style="stroke:#181818;stroke-width:1;" width="10" x="778.6006" y="455.2832"/></g><rect fill="#FFFFFF" fill-opacity="0.00000" height="393.7949" style="stroke:#000000;stroke-width:1.5;" width="764.8896" x="78.8926" y="113.4883"/><g><title>FdV TK</title><rect fill="#FFFFFF" fill-opacity="0.00000" height="427.7949" width="8" x="47.9463" y="96.4883"/><line style="stroke:#181818;stroke-width:0.5;stroke-dasharray:5.0,5.0;" x1="51" x2="51" y1="96.4883" y2="524.2832"/></g><g><title>FdV HKK</title><rect fill="#FFFFFF" fill-opacity="0.00000" height="427.7949" width="8" x="117.1265" y="96.4883"/><line style="stroke:#181818;stroke-width:0.5;stroke-dasharray:5.0,5.0;" x1="120.8926" x2="120.8926" y1="96.4883" y2="524.2832"/></g><g><title>Fachdienst TK</title><rect fill="#FFFFFF" fill-opacity="0.00000" height="427.7949" width="8" x="240.916" y="96.4883"/><line style="stroke:#181818;stroke-width:0.5;stroke-dasharray:5.0,5.0;" x1="244.2969" x2="244.2969" y1="96.4883" y2="524.2832"/></g><g><title>Push Gateway TK</title><rect fill="#FFFFFF" fill-opacity="0.00000" height="427.7949" width="8" x="362.4458" y="96.4883"/><line style="stroke:#181818;stroke-width:0.5;stroke-dasharray:5.0,5.0;" x1="365.5352" x2="365.5352" y1="96.4883" y2="524.2832"/></g><g><title>Fachdienst HKK</title><rect fill="#FFFFFF" fill-opacity="0.00000" height="427.7949" width="8" x="489.2632" y="96.4883"/><line style="stroke:#181818;stroke-width:0.5;stroke-dasharray:5.0,5.0;" x1="492.3564" x2="492.3564" y1="96.4883" y2="524.2832"/></g><g><title>Push Gateway HKK</title><rect fill="#FFFFFF" fill-opacity="0.00000" height="427.7949" width="8" x="653.2207" y="96.4883"/><line style="stroke:#181818;stroke-width:0.5;stroke-dasharray:5.0,5.0;" x1="657.0225" x2="657.0225" y1="96.4883" y2="524.2832"/></g><g><title>Apple/Google</title><rect fill="#FFFFFF" fill-opacity="0.00000" height="427.7949" width="8" x="779.6006" y="96.4883"/><line style="stroke:#181818;stroke-width:0.5;stroke-dasharray:5.0,5.0;" x1="783.4189" x2="783.4189" y1="96.4883" y2="524.2832"/></g><g><text fill="#000000" font-family="sans-serif" font-size="14" lengthAdjust="spacing" textLength="47.8926" x="25" y="93.5352">FdV TK</text><ellipse cx="51.9463" cy="28.5" fill="#E2E2F0" rx="8" ry="8" style="stroke:#181818;stroke-width:0.5;"/><path d="M51.9463,36.5 L51.9463,63.5 M38.9463,44.5 L64.9463,44.5 M51.9463,63.5 L38.9463,78.5 M51.9463,63.5 L64.9463,78.5 " fill="#FFFFFF" fill-opacity="0.00000" style="stroke:#181818;stroke-width:0.5;"/></g><g><text fill="#000000" font-family="sans-serif" font-size="14" lengthAdjust="spacing" textLength="47.8926" x="25" y="536.8184">FdV TK</text><ellipse cx="51.9463" cy="548.2715" fill="#E2E2F0" rx="8" ry="8" style="stroke:#181818;stroke-width:0.5;"/><path d="M51.9463,556.2715 L51.9463,583.2715 M38.9463,564.2715 L64.9463,564.2715 M51.9463,583.2715 L38.9463,598.2715 M51.9463,583.2715 L64.9463,598.2715 " fill="#FFFFFF" fill-opacity="0.00000" style="stroke:#181818;stroke-width:0.5;"/></g><g><text fill="#000000" font-family="sans-serif" font-size="14" lengthAdjust="spacing" textLength="58.4678" x="88.8926" y="93.5352">FdV HKK</text><ellipse cx="121.1265" cy="28.5" fill="#E2E2F0" rx="8" ry="8" style="stroke:#181818;stroke-width:0.5;"/><path d="M121.1265,36.5 L121.1265,63.5 M108.1265,44.5 L134.1265,44.5 M121.1265,63.5 L108.1265,78.5 M121.1265,63.5 L134.1265,78.5 " fill="#FFFFFF" fill-opacity="0.00000" style="stroke:#181818;stroke-width:0.5;"/></g><g><text fill="#000000" font-family="sans-serif" font-size="14" lengthAdjust="spacing" textLength="58.4678" x="88.8926" y="536.8184">FdV HKK</text><ellipse cx="121.1265" cy="548.2715" fill="#E2E2F0" rx="8" ry="8" style="stroke:#181818;stroke-width:0.5;"/><path d="M121.1265,556.2715 L121.1265,583.2715 M108.1265,564.2715 L134.1265,564.2715 M121.1265,583.2715 L108.1265,598.2715 M121.1265,583.2715 L134.1265,598.2715 " fill="#FFFFFF" fill-opacity="0.00000" style="stroke:#181818;stroke-width:0.5;"/></g><g><text fill="#000000" font-family="sans-serif" font-size="14" lengthAdjust="spacing" textLength="95.2383" x="194.2969" y="93.5352">Fachdienst TK</text><ellipse cx="244.916" cy="64" fill="#E2E2F0" rx="12" ry="12" style="stroke:#181818;stroke-width:0.5;"/><line style="stroke:#181818;stroke-width:0.5;" x1="232.916" x2="256.916" y1="78" y2="78"/></g><g><text fill="#000000" font-family="sans-serif" font-size="14" lengthAdjust="spacing" textLength="95.2383" x="194.2969" y="536.8184">Fachdienst TK</text><ellipse cx="244.916" cy="555.7715" fill="#E2E2F0" rx="12" ry="12" style="stroke:#181818;stroke-width:0.5;"/><line style="stroke:#181818;stroke-width:0.5;" x1="232.916" x2="256.916" y1="569.7715" y2="569.7715"/></g><g><text fill="#000000" font-family="sans-serif" font-size="14" lengthAdjust="spacing" textLength="115.8213" x="305.5352" y="93.5352">Push Gateway TK</text><ellipse cx="366.4458" cy="64" fill="#E2E2F0" rx="12" ry="12" style="stroke:#181818;stroke-width:0.5;"/><line style="stroke:#181818;stroke-width:0.5;" x1="354.4458" x2="378.4458" y1="78" y2="78"/></g><g><text fill="#000000" font-family="sans-serif" font-size="14" lengthAdjust="spacing" textLength="115.8213" x="305.5352" y="536.8184">Push Gateway TK</text><ellipse cx="366.4458" cy="555.7715" fill="#E2E2F0" rx="12" ry="12" style="stroke:#181818;stroke-width:0.5;"/><line style="stroke:#181818;stroke-width:0.5;" x1="354.4458" x2="378.4458" y1="569.7715" y2="569.7715"/></g><g><text fill="#000000" font-family="sans-serif" font-size="14" lengthAdjust="spacing" textLength="105.8135" x="437.3564" y="93.5352">Fachdienst HKK</text><ellipse cx="493.2632" cy="64" fill="#E2E2F0" rx="12" ry="12" style="stroke:#181818;stroke-width:0.5;"/><line style="stroke:#181818;stroke-width:0.5;" x1="481.2632" x2="505.2632" y1="78" y2="78"/></g><g><text fill="#000000" font-family="sans-serif" font-size="14" lengthAdjust="spacing" textLength="105.8135" x="437.3564" y="536.8184">Fachdienst HKK</text><ellipse cx="493.2632" cy="555.7715" fill="#E2E2F0" rx="12" ry="12" style="stroke:#181818;stroke-width:0.5;"/><line style="stroke:#181818;stroke-width:0.5;" x1="481.2632" x2="505.2632" y1="569.7715" y2="569.7715"/></g><g><text fill="#000000" font-family="sans-serif" font-size="14" lengthAdjust="spacing" textLength="126.3965" x="591.0225" y="93.5352">Push Gateway HKK</text><ellipse cx="657.2207" cy="64" fill="#E2E2F0" rx="12" ry="12" style="stroke:#181818;stroke-width:0.5;"/><line style="stroke:#181818;stroke-width:0.5;" x1="645.2207" x2="669.2207" y1="78" y2="78"/></g><g><text fill="#000000" font-family="sans-serif" font-size="14" lengthAdjust="spacing" textLength="126.3965" x="591.0225" y="536.8184">Push Gateway HKK</text><ellipse cx="657.2207" cy="555.7715" fill="#E2E2F0" rx="12" ry="12" style="stroke:#181818;stroke-width:0.5;"/><line style="stroke:#181818;stroke-width:0.5;" x1="645.2207" x2="669.2207" y1="569.7715" y2="569.7715"/></g><g><text fill="#000000" font-family="sans-serif" font-size="14" lengthAdjust="spacing" textLength="94.3633" x="733.4189" y="93.5352">Apple/Google</text><ellipse cx="783.6006" cy="64" fill="#E2E2F0" rx="12" ry="12" style="stroke:#181818;stroke-width:0.5;"/><line style="stroke:#181818;stroke-width:0.5;" x1="771.6006" x2="795.6006" y1="78" y2="78"/></g><g><text fill="#000000" font-family="sans-serif" font-size="14" lengthAdjust="spacing" textLength="94.3633" x="733.4189" y="536.8184">Apple/Google</text><ellipse cx="783.6006" cy="555.7715" fill="#E2E2F0" rx="12" ry="12" style="stroke:#181818;stroke-width:0.5;"/><line style="stroke:#181818;stroke-width:0.5;" x1="771.6006" x2="795.6006" y1="569.7715" y2="569.7715"/></g><g><title>FdV HKK</title><rect fill="#FFFFFF" height="407.7949" style="stroke:#181818;stroke-width:1;" width="10" x="116.1265" y="106.4883"/></g><g><title>Fachdienst TK</title><rect fill="#FFFFFF" height="29.3105" style="stroke:#181818;stroke-width:1;" width="10" x="239.916" y="152.1094"/></g><g><title>Fachdienst TK</title><rect fill="#FFFFFF" height="78.3105" style="stroke:#181818;stroke-width:1;" width="10" x="239.916" y="218.7305"/></g><g><title>Fachdienst HKK</title><rect fill="#FFFFFF" height="29.3105" style="stroke:#181818;stroke-width:1;" width="10" x="488.2632" y="340.3516"/></g><g><title>Fachdienst HKK</title><rect fill="#FFFFFF" height="78.3105" style="stroke:#181818;stroke-width:1;" width="10" x="488.2632" y="406.9727"/></g><g><title>Push Gateway HKK</title><rect fill="#FFFFFF" height="44" style="stroke:#181818;stroke-width:1;" width="10" x="652.2207" y="253.041"/></g><g><title>Push Gateway HKK</title><rect fill="#FFFFFF" height="44" style="stroke:#181818;stroke-width:1;" width="10" x="652.2207" y="441.2832"/></g><g><title>Apple/Google</title><rect fill="#FFFFFF" height="44" style="stroke:#181818;stroke-width:1;" width="10" x="778.6006" y="267.041"/></g><g><title>Apple/Google</title><rect fill="#FFFFFF" height="44" style="stroke:#181818;stroke-width:1;" width="10" x="778.6006" y="455.2832"/></g><path d="M78.8926,113.4883 L188.4863,113.4883 L188.4863,120.7988 L178.4863,130.7988 L78.8926,130.7988 L78.8926,113.4883 " fill="#EEEEEE" style="stroke:#000000;stroke-width:1.5;"/><rect fill="#FFFFFF" fill-opacity="0.00000" height="393.7949" style="stroke:#000000;stroke-width:1.5;" width="764.8896" x="78.8926" y="113.4883"/><text fill="#000000" font-family="sans-serif" font-size="13" font-weight="bold" lengthAdjust="spacing" textLength="64.5938" x="93.8926" y="127.0566">SendPush</text><g><polygon fill="#181818" points="227.916,148.1094,237.916,152.1094,227.916,156.1094,231.916,152.1094" style="stroke:#181818;stroke-width:1;"/><line style="stroke:#181818;stroke-width:1;" x1="126.1265" x2="233.916" y1="152.1094" y2="152.1094"/><text fill="#000000" font-family="sans-serif" font-size="13" lengthAdjust="spacing" textLength="94.7896" x="133.1265" y="147.3672">register_device</text></g><g><polygon fill="#181818" points="137.1265,177.4199,127.1265,181.4199,137.1265,185.4199,133.1265,181.4199" style="stroke:#181818;stroke-width:1;"/><line style="stroke:#181818;stroke-width:1;" x1="131.1265" x2="243.916" y1="181.4199" y2="181.4199"/><text fill="#000000" font-family="sans-serif" font-size="13" lengthAdjust="spacing" textLength="38.8794" x="143.1265" y="176.6777">return</text></g><g><line style="stroke:#181818;stroke-width:1;" x1="244.916" x2="291.916" y1="205.7305" y2="205.7305"/><line style="stroke:#181818;stroke-width:1;" x1="291.916" x2="291.916" y1="205.7305" y2="218.7305"/><line style="stroke:#181818;stroke-width:1;" x1="250.916" x2="291.916" y1="218.7305" y2="218.7305"/><polygon fill="#181818" points="260.916,214.7305,250.916,218.7305,260.916,222.7305,256.916,218.7305" style="stroke:#181818;stroke-width:1;"/><text fill="#000000" font-family="sans-serif" font-size="13" lengthAdjust="spacing" textLength="83.3574" x="256.916" y="200.9883">event_trigger</text></g><g><polygon fill="#181818" points="640.2207,249.041,650.2207,253.041,640.2207,257.041,644.2207,253.041" style="stroke:#181818;stroke-width:1;"/><line style="stroke:#181818;stroke-width:1;" x1="249.916" x2="646.2207" y1="253.041" y2="253.041"/><text fill="#000000" font-family="sans-serif" font-size="13" font-weight="bold" lengthAdjust="spacing" textLength="35.0708" x="256.916" y="248.2988">POST</text><text fill="#000000" font-family="sans-serif" font-size="13" lengthAdjust="spacing" textLength="4.1133" x="291.9868" y="248.2988">&#160;</text><text fill="#000000" font-family="sans-serif" font-size="13" font-style="italic" lengthAdjust="spacing" textLength="95.7734" x="296.1001" y="248.2988">push/v1/notify</text></g><g><line style="stroke:#181818;stroke-width:1;" x1="776.6006" x2="766.6006" y1="267.041" y2="263.041"/><line style="stroke:#181818;stroke-width:1;" x1="776.6006" x2="766.6006" y1="267.041" y2="271.041"/><line style="stroke:#181818;stroke-width:1;stroke-dasharray:2.0,2.0;" x1="662.2207" x2="777.6006" y1="267.041" y2="267.041"/></g><g><polygon fill="#181818" points="137.1265,307.041,127.1265,311.041,137.1265,315.041,133.1265,311.041" style="stroke:#181818;stroke-width:1;"/><line style="stroke:#181818;stroke-width:1;" x1="131.1265" x2="782.6006" y1="311.041" y2="311.041"/></g><g><polygon fill="#181818" points="476.2632,336.3516,486.2632,340.3516,476.2632,344.3516,480.2632,340.3516" style="stroke:#181818;stroke-width:1;"/><line style="stroke:#181818;stroke-width:1;" x1="126.1265" x2="482.2632" y1="340.3516" y2="340.3516"/><text fill="#000000" font-family="sans-serif" font-size="13" lengthAdjust="spacing" textLength="94.7896" x="133.1265" y="335.6094">register_device</text></g><g><polygon fill="#181818" points="137.1265,365.6621,127.1265,369.6621,137.1265,373.6621,133.1265,369.6621" style="stroke:#181818;stroke-width:1;"/><line style="stroke:#181818;stroke-width:1;" x1="131.1265" x2="492.2632" y1="369.6621" y2="369.6621"/><text fill="#000000" font-family="sans-serif" font-size="13" lengthAdjust="spacing" textLength="38.8794" x="143.1265" y="364.9199">return</text></g><g><line style="stroke:#181818;stroke-width:1;" x1="493.2632" x2="540.2632" y1="393.9727" y2="393.9727"/><line style="stroke:#181818;stroke-width:1;" x1="540.2632" x2="540.2632" y1="393.9727" y2="406.9727"/><line style="stroke:#181818;stroke-width:1;" x1="499.2632" x2="540.2632" y1="406.9727" y2="406.9727"/><polygon fill="#181818" points="509.2632,402.9727,499.2632,406.9727,509.2632,410.9727,505.2632,406.9727" style="stroke:#181818;stroke-width:1;"/><text fill="#000000" font-family="sans-serif" font-size="13" lengthAdjust="spacing" textLength="83.3574" x="505.2632" y="389.2305">event_trigger</text></g><g><polygon fill="#181818" points="640.2207,437.2832,650.2207,441.2832,640.2207,445.2832,644.2207,441.2832" style="stroke:#181818;stroke-width:1;"/><line style="stroke:#181818;stroke-width:1;" x1="498.2632" x2="646.2207" y1="441.2832" y2="441.2832"/><text fill="#000000" font-family="sans-serif" font-size="13" font-weight="bold" lengthAdjust="spacing" textLength="35.0708" x="505.2632" y="436.541">POST</text><text fill="#000000" font-family="sans-serif" font-size="13" lengthAdjust="spacing" textLength="4.1133" x="540.334" y="436.541">&#160;</text><text fill="#000000" font-family="sans-serif" font-size="13" font-style="italic" lengthAdjust="spacing" textLength="95.7734" x="544.4473" y="436.541">push/v1/notify</text></g><g><line style="stroke:#181818;stroke-width:1;" x1="776.6006" x2="766.6006" y1="455.2832" y2="451.2832"/><line style="stroke:#181818;stroke-width:1;" x1="776.6006" x2="766.6006" y1="455.2832" y2="459.2832"/><line style="stroke:#181818;stroke-width:1;stroke-dasharray:2.0,2.0;" x1="662.2207" x2="777.6006" y1="455.2832" y2="455.2832"/></g><g><polygon fill="#181818" points="137.1265,495.2832,127.1265,499.2832,137.1265,503.2832,133.1265,499.2832" style="stroke:#181818;stroke-width:1;"/><line style="stroke:#181818;stroke-width:1;" x1="131.1265" x2="782.6006" y1="499.2832" y2="499.2832"/></g><!--SRC=[vLJ1QeGm4BtdAwPx5DpG77iGUkaM5bh1fTT5pAo6QY8nMlpxHekhRcVB5dghfp1vxysRoSCxLs25a6ELElKE9sigs6vvtLObOsdcZ8NDato3mtu3QGEFTRsiFk_FPS5GE-LwVv5cXLIe6pUnvieP5BTD0RlKuKVQJx0NuzH9PTw8qGdQJcL8YKvDvvAWPISWeJiplFKI-SwOlCHlwDYQJacqZENMj3KagENGWe7__1vKvrjzJJ-MXXE4qS8QF835N3KExL7YEDAAkrZDK5yGlSmeDmYurkhnNYB59AWh1zZvQO_EgZptizpUdrgSbmk2-3Kv105mdvEcuDqzrmEovtmjJYv-G932OHX5zFQlYguGYzrSRKplxzBI93kzmK_oSqJe08ZR4o0kda3y8WE2KUIrZPjYG9hu9q4GVvG4_tEHR84QcPy0]--></g></svg>