<svg xmlns="http://www.w3.org/2000/svg" xmlns:xlink="http://www.w3.org/1999/xlink" contentStyleType="text/css" height="620px" preserveAspectRatio="none" style="width:907px;height:620px;background:#FFFFFF;" version="1.1" viewBox="0 0 907 620" width="907px" zoomAndPan="magnify"><defs/><g><rect fill="#FFFFFF" height="407.7949" style="stroke:#181818;stroke-width:1.0;" width="10" x="116.1265" y="106.4883"/><rect fill="#FFFFFF" height="29.3105" style="stroke:#181818;stroke-width:1.0;" width="10" x="239.916" y="152.1094"/><rect fill="#FFFFFF" height="78.3105" style="stroke:#181818;stroke-width:1.0;" width="10" x="239.916" y="218.7305"/><rect fill="#FFFFFF" height="44" style="stroke:#181818;stroke-width:1.0;" width="10" x="403.8735" y="253.041"/><rect fill="#FFFFFF" height="29.3105" style="stroke:#181818;stroke-width:1.0;" width="10" x="530.6909" y="340.3516"/><rect fill="#FFFFFF" height="78.3105" style="stroke:#181818;stroke-width:1.0;" width="10" x="530.6909" y="406.9727"/><rect fill="#FFFFFF" height="44" style="stroke:#181818;stroke-width:1.0;" width="10" x="694.6484" y="441.2832"/><rect fill="#FFFFFF" height="44" style="stroke:#181818;stroke-width:1.0;" width="10" x="821.0283" y="267.041"/><rect fill="#FFFFFF" height="44" style="stroke:#181818;stroke-width:1.0;" width="10" x="821.0283" y="455.2832"/><rect fill="none" height="393.7949" style="stroke:#000000;stroke-width:1.5;" width="807.3174" x="78.8926" y="113.4883"/><line style="stroke:#181818;stroke-width:0.5;stroke-dasharray:5.0,5.0;" x1="51" x2="51" y1="96.4883" y2="524.2832"/><line style="stroke:#181818;stroke-width:0.5;stroke-dasharray:5.0,5.0;" x1="120.8926" x2="120.8926" y1="96.4883" y2="524.2832"/><line style="stroke:#181818;stroke-width:0.5;stroke-dasharray:5.0,5.0;" x1="244.2969" x2="244.2969" y1="96.4883" y2="524.2832"/><line style="stroke:#181818;stroke-width:0.5;stroke-dasharray:5.0,5.0;" x1="407.9629" x2="407.9629" y1="96.4883" y2="524.2832"/><line style="stroke:#181818;stroke-width:0.5;stroke-dasharray:5.0,5.0;" x1="534.7842" x2="534.7842" y1="96.4883" y2="524.2832"/><line style="stroke:#181818;stroke-width:0.5;stroke-dasharray:5.0,5.0;" x1="699.4502" x2="699.4502" y1="96.4883" y2="524.2832"/><line style="stroke:#181818;stroke-width:0.5;stroke-dasharray:5.0,5.0;" x1="825.8467" x2="825.8467" y1="96.4883" y2="524.2832"/><text fill="#000000" font-family="sans-serif" font-size="14" lengthAdjust="spacing" textLength="47.8926" x="25" y="93.5352">FdV TK</text><ellipse cx="51.9463" cy="28.5" fill="#E2E2F0" rx="8" ry="8" style="stroke:#181818;stroke-width:0.5;"/><path d="M51.9463,36.5 L51.9463,63.5 M38.9463,44.5 L64.9463,44.5 M51.9463,63.5 L38.9463,78.5 M51.9463,63.5 L64.9463,78.5 " fill="none" style="stroke:#181818;stroke-width:0.5;"/><text fill="#000000" font-family="sans-serif" font-size="14" lengthAdjust="spacing" textLength="47.8926" x="25" y="536.8184">FdV TK</text><ellipse cx="51.9463" cy="548.2715" fill="#E2E2F0" rx="8" ry="8" style="stroke:#181818;stroke-width:0.5;"/><path d="M51.9463,556.2715 L51.9463,583.2715 M38.9463,564.2715 L64.9463,564.2715 M51.9463,583.2715 L38.9463,598.2715 M51.9463,583.2715 L64.9463,598.2715 " fill="none" style="stroke:#181818;stroke-width:0.5;"/><text fill="#000000" font-family="sans-serif" font-size="14" lengthAdjust="spacing" textLength="58.4678" x="88.8926" y="93.5352">FdV HKK</text><ellipse cx="121.1265" cy="28.5" fill="#E2E2F0" rx="8" ry="8" style="stroke:#181818;stroke-width:0.5;"/><path d="M121.1265,36.5 L121.1265,63.5 M108.1265,44.5 L134.1265,44.5 M121.1265,63.5 L108.1265,78.5 M121.1265,63.5 L134.1265,78.5 " fill="none" style="stroke:#181818;stroke-width:0.5;"/><text fill="#000000" font-family="sans-serif" font-size="14" lengthAdjust="spacing" textLength="58.4678" x="88.8926" y="536.8184">FdV HKK</text><ellipse cx="121.1265" cy="548.2715" fill="#E2E2F0" rx="8" ry="8" style="stroke:#181818;stroke-width:0.5;"/><path d="M121.1265,556.2715 L121.1265,583.2715 M108.1265,564.2715 L134.1265,564.2715 M121.1265,583.2715 L108.1265,598.2715 M121.1265,583.2715 L134.1265,598.2715 " fill="none" style="stroke:#181818;stroke-width:0.5;"/><text fill="#000000" font-family="sans-serif" font-size="14" lengthAdjust="spacing" textLength="95.2383" x="194.2969" y="93.5352">Fachdienst TK</text><ellipse cx="244.916" cy="64" fill="#E2E2F0" rx="12" ry="12" style="stroke:#181818;stroke-width:0.5;"/><line style="stroke:#181818;stroke-width:0.5;" x1="232.916" x2="256.916" y1="78" y2="78"/><text fill="#000000" font-family="sans-serif" font-size="14" lengthAdjust="spacing" textLength="95.2383" x="194.2969" y="536.8184">Fachdienst TK</text><ellipse cx="244.916" cy="555.7715" fill="#E2E2F0" rx="12" ry="12" style="stroke:#181818;stroke-width:0.5;"/><line style="stroke:#181818;stroke-width:0.5;" x1="232.916" x2="256.916" y1="569.7715" y2="569.7715"/><text fill="#000000" font-family="sans-serif" font-size="14" lengthAdjust="spacing" textLength="115.8213" x="347.9629" y="93.5352">Push Gateway TK</text><ellipse cx="408.8735" cy="64" fill="#E2E2F0" rx="12" ry="12" style="stroke:#181818;stroke-width:0.5;"/><line style="stroke:#181818;stroke-width:0.5;" x1="396.8735" x2="420.8735" y1="78" y2="78"/><text fill="#000000" font-family="sans-serif" font-size="14" lengthAdjust="spacing" textLength="115.8213" x="347.9629" y="536.8184">Push Gateway TK</text><ellipse cx="408.8735" cy="555.7715" fill="#E2E2F0" rx="12" ry="12" style="stroke:#181818;stroke-width:0.5;"/><line style="stroke:#181818;stroke-width:0.5;" x1="396.8735" x2="420.8735" y1="569.7715" y2="569.7715"/><text fill="#000000" font-family="sans-serif" font-size="14" lengthAdjust="spacing" textLength="105.8135" x="479.7842" y="93.5352">Fachdienst HKK</text><ellipse cx="535.6909" cy="64" fill="#E2E2F0" rx="12" ry="12" style="stroke:#181818;stroke-width:0.5;"/><line style="stroke:#181818;stroke-width:0.5;" x1="523.6909" x2="547.6909" y1="78" y2="78"/><text fill="#000000" font-family="sans-serif" font-size="14" lengthAdjust="spacing" textLength="105.8135" x="479.7842" y="536.8184">Fachdienst HKK</text><ellipse cx="535.6909" cy="555.7715" fill="#E2E2F0" rx="12" ry="12" style="stroke:#181818;stroke-width:0.5;"/><line style="stroke:#181818;stroke-width:0.5;" x1="523.6909" x2="547.6909" y1="569.7715" y2="569.7715"/><text fill="#000000" font-family="sans-serif" font-size="14" lengthAdjust="spacing" textLength="126.3965" x="633.4502" y="93.5352">Push Gateway HKK</text><ellipse cx="699.6484" cy="64" fill="#E2E2F0" rx="12" ry="12" style="stroke:#181818;stroke-width:0.5;"/><line style="stroke:#181818;stroke-width:0.5;" x1="687.6484" x2="711.6484" y1="78" y2="78"/><text fill="#000000" font-family="sans-serif" font-size="14" lengthAdjust="spacing" textLength="126.3965" x="633.4502" y="536.8184">Push Gateway HKK</text><ellipse cx="699.6484" cy="555.7715" fill="#E2E2F0" rx="12" ry="12" style="stroke:#181818;stroke-width:0.5;"/><line style="stroke:#181818;stroke-width:0.5;" x1="687.6484" x2="711.6484" y1="569.7715" y2="569.7715"/><text fill="#000000" font-family="sans-serif" font-size="14" lengthAdjust="spacing" textLength="94.3633" x="775.8467" y="93.5352">Apple/Google</text><ellipse cx="826.0283" cy="64" fill="#E2E2F0" rx="12" ry="12" style="stroke:#181818;stroke-width:0.5;"/><line style="stroke:#181818;stroke-width:0.5;" x1="814.0283" x2="838.0283" y1="78" y2="78"/><text fill="#000000" font-family="sans-serif" font-size="14" lengthAdjust="spacing" textLength="94.3633" x="775.8467" y="536.8184">Apple/Google</text><ellipse cx="826.0283" cy="555.7715" fill="#E2E2F0" rx="12" ry="12" style="stroke:#181818;stroke-width:0.5;"/><line style="stroke:#181818;stroke-width:0.5;" x1="814.0283" x2="838.0283" y1="569.7715" y2="569.7715"/><rect fill="#FFFFFF" height="407.7949" style="stroke:#181818;stroke-width:1.0;" width="10" x="116.1265" y="106.4883"/><rect fill="#FFFFFF" height="29.3105" style="stroke:#181818;stroke-width:1.0;" width="10" x="239.916" y="152.1094"/><rect fill="#FFFFFF" height="78.3105" style="stroke:#181818;stroke-width:1.0;" width="10" x="239.916" y="218.7305"/><rect fill="#FFFFFF" height="44" style="stroke:#181818;stroke-width:1.0;" width="10" x="403.8735" y="253.041"/><rect fill="#FFFFFF" height="29.3105" style="stroke:#181818;stroke-width:1.0;" width="10" x="530.6909" y="340.3516"/><rect fill="#FFFFFF" height="78.3105" style="stroke:#181818;stroke-width:1.0;" width="10" x="530.6909" y="406.9727"/><rect fill="#FFFFFF" height="44" style="stroke:#181818;stroke-width:1.0;" width="10" x="694.6484" y="441.2832"/><rect fill="#FFFFFF" height="44" style="stroke:#181818;stroke-width:1.0;" width="10" x="821.0283" y="267.041"/><rect fill="#FFFFFF" height="44" style="stroke:#181818;stroke-width:1.0;" width="10" x="821.0283" y="455.2832"/><path d="M78.8926,113.4883 L188.4863,113.4883 L188.4863,120.7988 L178.4863,130.7988 L78.8926,130.7988 L78.8926,113.4883 " fill="#EEEEEE" style="stroke:#000000;stroke-width:1.5;"/><rect fill="none" height="393.7949" style="stroke:#000000;stroke-width:1.5;" width="807.3174" x="78.8926" y="113.4883"/><text fill="#000000" font-family="sans-serif" font-size="13" font-weight="bold" lengthAdjust="spacing" textLength="64.5938" x="93.8926" y="127.0566">SendPush</text><polygon fill="#181818" points="227.916,148.1094,237.916,152.1094,227.916,156.1094,231.916,152.1094" style="stroke:#181818;stroke-width:1.0;"/><line style="stroke:#181818;stroke-width:1.0;" x1="126.1265" x2="233.916" y1="152.1094" y2="152.1094"/><text fill="#000000" font-family="sans-serif" font-size="13" lengthAdjust="spacing" textLength="94.7896" x="133.1265" y="147.3672">register_device</text><polygon fill="#181818" points="137.1265,177.4199,127.1265,181.4199,137.1265,185.4199,133.1265,181.4199" style="stroke:#181818;stroke-width:1.0;"/><line style="stroke:#181818;stroke-width:1.0;" x1="131.1265" x2="243.916" y1="181.4199" y2="181.4199"/><text fill="#000000" font-family="sans-serif" font-size="13" lengthAdjust="spacing" textLength="38.8794" x="143.1265" y="176.6777">return</text><line style="stroke:#181818;stroke-width:1.0;" x1="244.916" x2="291.916" y1="205.7305" y2="205.7305"/><line style="stroke:#181818;stroke-width:1.0;" x1="291.916" x2="291.916" y1="205.7305" y2="218.7305"/><line style="stroke:#181818;stroke-width:1.0;" x1="250.916" x2="291.916" y1="218.7305" y2="218.7305"/><polygon fill="#181818" points="260.916,214.7305,250.916,218.7305,260.916,222.7305,256.916,218.7305" style="stroke:#181818;stroke-width:1.0;"/><text fill="#000000" font-family="sans-serif" font-size="13" lengthAdjust="spacing" textLength="83.3574" x="256.916" y="200.9883">event_trigger</text><polygon fill="#181818" points="391.8735,249.041,401.8735,253.041,391.8735,257.041,395.8735,253.041" style="stroke:#181818;stroke-width:1.0;"/><line style="stroke:#181818;stroke-width:1.0;" x1="249.916" x2="397.8735" y1="253.041" y2="253.041"/><text fill="#000000" font-family="sans-serif" font-size="13" font-weight="bold" lengthAdjust="spacing" textLength="35.0708" x="256.916" y="248.2988">POST</text><text fill="#000000" font-family="sans-serif" font-size="13" lengthAdjust="spacing" textLength="4.1133" x="291.9868" y="248.2988">&#160;</text><text fill="#000000" font-family="sans-serif" font-size="13" font-style="italic" lengthAdjust="spacing" textLength="95.7734" x="296.1001" y="248.2988">push/v1/notify</text><line style="stroke:#181818;stroke-width:1.0;" x1="819.0283" x2="809.0283" y1="267.041" y2="263.041"/><line style="stroke:#181818;stroke-width:1.0;" x1="819.0283" x2="809.0283" y1="267.041" y2="271.041"/><line style="stroke:#181818;stroke-width:1.0;stroke-dasharray:2.0,2.0;" x1="413.8735" x2="820.0283" y1="267.041" y2="267.041"/><polygon fill="#181818" points="137.1265,307.041,127.1265,311.041,137.1265,315.041,133.1265,311.041" style="stroke:#181818;stroke-width:1.0;"/><line style="stroke:#181818;stroke-width:1.0;" x1="131.1265" x2="825.0283" y1="311.041" y2="311.041"/><polygon fill="#181818" points="518.6909,336.3516,528.6909,340.3516,518.6909,344.3516,522.6909,340.3516" style="stroke:#181818;stroke-width:1.0;"/><line style="stroke:#181818;stroke-width:1.0;" x1="126.1265" x2="524.6909" y1="340.3516" y2="340.3516"/><text fill="#000000" font-family="sans-serif" font-size="13" lengthAdjust="spacing" textLength="94.7896" x="133.1265" y="335.6094">register_device</text><polygon fill="#181818" points="137.1265,365.6621,127.1265,369.6621,137.1265,373.6621,133.1265,369.6621" style="stroke:#181818;stroke-width:1.0;"/><line style="stroke:#181818;stroke-width:1.0;" x1="131.1265" x2="534.6909" y1="369.6621" y2="369.6621"/><text fill="#000000" font-family="sans-serif" font-size="13" lengthAdjust="spacing" textLength="38.8794" x="143.1265" y="364.9199">return</text><line style="stroke:#181818;stroke-width:1.0;" x1="535.6909" x2="582.6909" y1="393.9727" y2="393.9727"/><line style="stroke:#181818;stroke-width:1.0;" x1="582.6909" x2="582.6909" y1="393.9727" y2="406.9727"/><line style="stroke:#181818;stroke-width:1.0;" x1="541.6909" x2="582.6909" y1="406.9727" y2="406.9727"/><polygon fill="#181818" points="551.6909,402.9727,541.6909,406.9727,551.6909,410.9727,547.6909,406.9727" style="stroke:#181818;stroke-width:1.0;"/><text fill="#000000" font-family="sans-serif" font-size="13" lengthAdjust="spacing" textLength="83.3574" x="547.6909" y="389.2305">event_trigger</text><polygon fill="#181818" points="682.6484,437.2832,692.6484,441.2832,682.6484,445.2832,686.6484,441.2832" style="stroke:#181818;stroke-width:1.0;"/><line style="stroke:#181818;stroke-width:1.0;" x1="540.6909" x2="688.6484" y1="441.2832" y2="441.2832"/><text fill="#000000" font-family="sans-serif" font-size="13" font-weight="bold" lengthAdjust="spacing" textLength="35.0708" x="547.6909" y="436.541">POST</text><text fill="#000000" font-family="sans-serif" font-size="13" lengthAdjust="spacing" textLength="4.1133" x="582.7617" y="436.541">&#160;</text><text fill="#000000" font-family="sans-serif" font-size="13" font-style="italic" lengthAdjust="spacing" textLength="95.7734" x="586.875" y="436.541">push/v1/notify</text><line style="stroke:#181818;stroke-width:1.0;" x1="819.0283" x2="809.0283" y1="455.2832" y2="451.2832"/><line style="stroke:#181818;stroke-width:1.0;" x1="819.0283" x2="809.0283" y1="455.2832" y2="459.2832"/><line style="stroke:#181818;stroke-width:1.0;stroke-dasharray:2.0,2.0;" x1="704.6484" x2="820.0283" y1="455.2832" y2="455.2832"/><polygon fill="#181818" points="137.1265,495.2832,127.1265,499.2832,137.1265,503.2832,133.1265,499.2832" style="stroke:#181818;stroke-width:1.0;"/><line style="stroke:#181818;stroke-width:1.0;" x1="131.1265" x2="825.0283" y1="499.2832" y2="499.2832"/><!--SRC=[jLJ1QeGm4BtdAwPx5DpG77iGUkaM5bh1fTT5pAo6gf4OBVvzeyLLj-EofQqdcRptvitBw9tDi418iOYjUeUJqGLijxngYfonEB7QmEP9li5Xlu6uXiUgcbUVz-UoO5XQPJjt42UPL5ZMTcHDbJCeREeCTh75ZxWROI_QgfDAd15THcXQbI0bEZQTIeAM7O64xiHmrdFaEwtJ7B-XGwDR9T4mbXhTL11XAViM3DpZSb2jQ_Kr_L3gty0FPjRW0GocghPeZXA7aHRSMJHzVKPqCeDSBs0RKmxd4YacGLqumDPDUxH6fQcRvVR-H71EpVF2r-ZWUS3TcjGPR-zvsGCxpfVQr7ts04hMzuE0ZdvLSe6O1RFMbixkqj2eEkP_JNrQ3_honUstBoxY5p-uVy4eyjB6JIj0cg2-dbzkWLXR0_7FUo2kXVWtc-1-B9BDK0Fp4m00]--></g></svg>